<svg width="127" height="126" viewBox="0 0 127 126" fill="none" xmlns="http://www.w3.org/2000/svg">
<path d="M56.5682 0.230919C45.2183 1.53578 34.5085 5.86894 24.9312 13.0827C22.0507 15.2492 15.6494 21.7982 13.2859 24.9496C6.49071 34.0837 2.42838 44.178 1.02503 55.3309C0.532623 59.4179 0.655724 68.6258 1.27123 72.4666C3.0685 83.718 7.64786 94.0585 14.64 102.749C17.1513 105.876 22.2723 110.849 25.3744 113.164C33.8684 119.565 43.0025 123.504 53.466 125.302C57.2083 125.966 66.0962 126.212 70.1832 125.794C81.8531 124.588 93.1538 120.057 102.436 112.893C104.553 111.268 104.824 110.899 104.824 109.766C104.824 108.043 103.445 106.836 101.869 107.156C101.451 107.23 100.269 107.944 99.2104 108.732C91.8736 114.346 83.3796 118.211 74.7871 119.86C69.5184 120.894 61.5907 121.141 56.3958 120.476C29.7814 116.98 9.00197 95.7326 6.12141 69.0936C5.72748 65.5729 5.80134 59.0486 6.24451 55.5525C8.92811 34.6992 23.3309 16.3818 42.9286 8.94646C50.5362 6.04128 56.9621 4.98261 65.4807 5.20419C74.5409 5.42577 81.8285 7.24767 89.8055 11.31C106.276 19.6562 117.528 34.8961 120.852 53.3859C121.516 56.9805 121.762 65.179 121.344 68.8966C120.581 75.5933 118.562 82.5362 115.632 88.5436C113.662 92.6059 113.539 93.3937 114.647 94.5263C115.435 95.2895 116.592 95.4618 117.7 94.9694C119.3 94.2554 123.289 84.9244 125.012 77.9569C126.366 72.4666 126.613 70.1276 126.613 62.8647C126.613 57.5713 126.514 55.6756 126.169 53.509C123.855 39.574 118.193 28.3226 108.689 18.7207C98.3979 8.30634 85.0045 1.75737 70.7987 0.230919C68.0166 -0.0891495 59.2518 -0.0645294 56.5682 0.230919Z" fill="white"/>
<path d="M56.9376 10.6698C47.3604 11.9254 37.7339 16.0863 30.3971 22.069C11.3656 37.7028 5.55528 64.4403 16.462 86.3523C27.2703 108.092 51.0288 119.54 74.8611 114.542C96.3792 110.012 113.17 91.7934 116.001 69.9306C117.356 59.3686 115.534 48.6341 110.782 39.2292C102.78 23.4231 87.7375 12.861 70.1094 10.6452C66.7118 10.2267 60.286 10.2267 56.9376 10.6698ZM61.2462 17.1449C61.2462 19.1392 61.6155 19.7793 62.9449 20.1732C63.7574 20.4194 64.0529 20.3948 64.8653 20.0009C65.9486 19.4592 66.3918 18.499 66.3918 16.6279L66.4164 15.4215L67.9675 15.5938C77.7417 16.6279 86.8265 20.4194 94.0895 26.4267L95.7637 27.8301L94.7542 28.8641C94.188 29.4304 93.6956 30.2182 93.5971 30.686C93.2524 32.3602 94.4588 33.6897 96.3299 33.6897C97.0193 33.6897 97.4378 33.4681 98.3242 32.6556L99.4567 31.6216L99.9491 32.2125C106.35 40.1894 109.797 48.1171 110.979 57.5713C111.422 61.1412 111.447 61.0181 109.846 61.0181C108.665 61.0181 108.394 61.1166 107.754 61.7321C107.187 62.2984 107.04 62.6677 107.04 63.4801C107.04 64.0464 107.163 64.7111 107.311 65.0066C107.655 65.6467 108.985 66.1884 110.24 66.1884H111.25L111.102 67.3455C110.24 74.0914 108.935 78.6215 106.424 83.7918C104.922 86.8447 102.362 90.8332 100.269 93.3444L98.8658 95.0432L98.0041 94.2061C97.3147 93.5414 96.9701 93.3937 96.0837 93.3937C94.8035 93.3937 93.8187 94.1569 93.5971 95.3879C93.4247 96.3973 93.5971 97.0128 94.4096 97.973L95.0743 98.7362L94.4588 99.2287C87.7129 104.67 80.9915 107.969 73.4331 109.52C71.4882 109.938 67.5735 110.505 66.7611 110.505C66.6134 110.505 66.4164 109.963 66.3179 109.298C66.121 107.723 65.1361 106.812 63.6589 106.812C62.2063 106.812 61.2462 107.846 61.2462 109.397V110.554L59.4735 110.382C54.5002 109.914 47.8035 108.067 43.4458 105.975C39.7281 104.177 37.1922 102.552 32.9329 99.204L32.3174 98.7116L32.8344 98.1454C34.1393 96.7174 34.2624 95.3879 33.2038 94.2061C32.5882 93.5168 32.3174 93.3937 31.3572 93.3937C30.4463 93.3937 30.1016 93.5414 29.4122 94.2061L28.5505 95.0432L26.704 92.7289C22.0754 86.9678 18.8994 80.3696 17.3237 73.3036C17.0037 71.7525 16.6344 69.8321 16.5605 69.0197C16.4866 68.2072 16.3389 67.247 16.2897 66.8531C16.1666 66.213 16.1912 66.1884 17.2991 66.1884C19.3918 66.1884 20.4505 65.2528 20.4259 63.3816C20.4013 62.5692 20.2535 62.2245 19.638 61.6829C19.0225 61.1412 18.6778 61.0181 17.5453 61.0181C15.945 61.0181 15.9942 61.2397 16.5605 57.0296C17.2252 51.9579 18.6778 47.0831 20.8198 42.553C22.5186 39.0077 24.1681 36.4225 27.4919 32.2125L27.9597 31.6216L29.0922 32.6556C30.0524 33.542 30.3724 33.6897 31.2588 33.6897C32.8591 33.6651 33.9177 32.6064 33.9177 30.9815C33.9177 30.4152 33.6223 29.9228 32.7852 29.0119L31.6773 27.8301L33.967 25.9836C39.7035 21.355 46.2278 18.2036 53.4169 16.6033C56.1498 15.9878 58.858 15.5692 60.4583 15.4954L61.2462 15.4707V17.1449Z" fill="white"/>
<path d="M36.8721 46.1472C33.1052 47.1566 30.0769 50.5296 29.7815 54.0257C29.683 55.232 29.7323 55.4044 30.4216 56.0938C30.9633 56.6354 31.4064 56.8324 32.0466 56.8324C33.7207 56.8324 34.1639 56.4138 35.1487 53.9518C35.5672 52.8685 37.1183 51.5144 38.3493 51.1451C39.1618 50.8989 39.605 50.8989 40.4913 51.1451C42.781 51.736 44.1104 53.3363 44.1351 55.4536C44.1351 57.4479 42.8794 59.6637 36.6259 68.5023C31.8004 75.3467 30.8894 76.7501 30.8648 77.5133C30.8402 78.5966 31.4803 79.6553 32.3666 80C32.7605 80.1477 36.1581 80.2215 41.1068 80.1723L49.2314 80.0984L49.9454 79.286C50.7087 78.4243 50.8564 77.4887 50.364 76.4054C49.8223 75.1744 49.1576 75.0513 43.6427 75.0513C40.836 75.0513 38.5955 74.9528 38.6448 74.8543C38.694 74.7559 40.5159 72.1215 42.6825 69.0194C47.188 62.6181 48.1728 60.9193 48.9606 58.3342C51.1518 51.022 44.3567 44.153 36.8721 46.1472Z" fill="white"/>
<path d="M62.7725 46.271C60.9998 46.788 59.6211 48.8068 52.5551 61.437C50.5609 64.9577 48.8621 68.1829 48.7882 68.5769C48.5912 69.6109 49.256 70.8173 50.29 71.2605C50.9548 71.5313 52.5059 71.6051 57.1837 71.6051H63.2156V75.0766V78.548L63.9296 79.262C64.7175 80.0499 65.8746 80.1976 67.0071 79.7052C68.0904 79.2128 68.3859 78.1295 68.3859 74.7073V71.6051H69.0014C70.0847 71.6051 71.2911 70.9404 71.7096 70.1279C72.5959 68.4045 71.3895 66.4349 69.4692 66.4349H68.4105L68.3366 57.8671L68.2628 49.3239L67.6473 48.216C67.2041 47.4281 66.7117 46.9357 65.9239 46.5418C64.7667 45.9755 64.0773 45.9017 62.7725 46.271ZM63.1418 66.361C63.0679 66.4103 61.4184 66.4103 59.4241 66.3857L55.8296 66.3118L58.6117 61.3878C60.1381 58.6795 61.763 55.8236 62.2308 55.0357L63.0925 53.6078L63.1664 59.9352C63.191 63.4066 63.191 66.3118 63.1418 66.361Z" fill="white"/>
<path d="M78.8498 52.8696C78.579 52.9927 78.1358 53.3374 77.865 53.6328C77.3972 54.1499 77.3726 54.5684 77.2987 66.0168C77.2495 74.6339 77.3233 78.0561 77.5203 78.5731C78.1604 80.0749 80.4993 80.4688 81.7057 79.2625L82.4197 78.5485V73.5998V68.6512H87.4422H92.4647L92.5632 73.5998L92.6371 78.5485L93.4496 79.2625C94.5575 80.2719 95.9608 80.2719 96.9702 79.2625L97.6842 78.5485V66.3122V54.1006L97.0933 53.5097C96.2809 52.6973 95.0006 52.5003 93.9912 53.0173C92.711 53.6821 92.514 54.5438 92.514 59.2955V63.4809H87.4668H82.4197V58.9262V54.3714L81.755 53.6328C81.0164 52.8204 79.7361 52.5003 78.8498 52.8696Z" fill="white"/>
<path d="M109.059 99.548C108.098 99.9666 107.434 101.321 107.655 102.379C108.074 104.349 110.561 105.063 111.988 103.635C113.958 101.641 111.644 98.4155 109.059 99.548Z" fill="white"/>
</svg>
