<svg width="107" height="126" viewBox="0 0 107 126" fill="none" xmlns="http://www.w3.org/2000/svg">
<path d="M56.4328 0.465794C55.9852 0.717537 55.5657 0.913334 55.4817 0.857391C55.258 0.773476 54.223 1.9203 54.1112 2.39581C54.0552 2.61957 53.8315 3.15102 53.6077 3.59856C53.1322 4.57755 53.1042 5.72437 53.5238 5.72437C53.6916 5.72437 53.7755 5.92017 53.6636 6.14394C53.5797 6.36771 53.6357 6.5635 53.8035 6.5635C53.9713 6.5635 54.0272 6.67539 53.9433 6.81525C53.8594 6.9551 53.9713 7.1509 54.223 7.23481C54.4468 7.31873 54.5867 7.51452 54.5028 7.65438C54.4188 7.79424 54.5587 8.07395 54.8104 8.26974C55.202 8.6054 55.258 8.6054 55.0622 8.24178C54.9503 8.01801 55.1181 8.12989 55.4258 8.49352C55.7615 8.85714 56.0132 9.05294 56.0132 8.94105C56.0132 8.82917 56.181 8.88511 56.3768 9.05294C56.6006 9.22076 56.8523 9.27671 56.9362 9.16482C57.0481 9.08091 57.2999 9.13685 57.4957 9.33265C57.7474 9.52845 58.6425 9.58439 60.1529 9.50048C61.5235 9.38859 62.4745 9.44453 62.5864 9.61236C62.6703 9.78019 63.1179 9.83613 63.5374 9.75222C63.985 9.6683 64.4045 9.72424 64.5164 9.8641C64.6003 10.0319 64.936 10.0879 65.2157 10.004C65.4954 9.92004 65.8311 10.004 65.915 10.1438C65.9989 10.3116 66.3346 10.3676 66.6422 10.2837C66.9779 10.1998 67.2017 10.2837 67.2017 10.4795C67.2017 10.6753 67.4254 10.7312 67.7611 10.6193C68.0967 10.5074 68.3205 10.5634 68.3205 10.7592C68.3205 10.955 68.5443 11.0109 68.8799 10.899C69.1876 10.7871 69.4394 10.8431 69.4394 11.0109C69.4394 11.1787 69.6352 11.2347 69.8589 11.1508C70.0827 11.0389 70.2785 11.1228 70.2785 11.2906C70.2785 11.4585 70.4743 11.5144 70.6981 11.4305C70.9218 11.3186 71.1176 11.4025 71.1176 11.5703C71.1176 11.7382 71.2854 11.7941 71.5092 11.7102C71.705 11.6263 72.0686 11.7382 72.2644 11.9619C72.4882 12.1577 72.7959 12.2976 72.9637 12.2416C73.1595 12.1857 73.4672 12.3256 73.7189 12.5493C73.9427 12.7731 74.1944 12.885 74.3063 12.8011C74.3902 12.6892 74.4742 12.7731 74.4742 12.9409C74.4742 13.1367 74.5581 13.2486 74.6979 13.2206C75.0336 13.1088 76.7119 13.8919 76.7119 14.1717C76.7119 14.3115 76.8517 14.3395 76.9916 14.2556C77.1594 14.1717 77.2713 14.2276 77.2713 14.3954C77.2713 14.5633 77.4111 14.6192 77.551 14.5353C77.7188 14.4514 77.8307 14.5073 77.8307 14.6751C77.8307 14.843 77.9706 14.8989 78.1104 14.815C78.2782 14.7311 78.474 14.843 78.5579 15.0667C78.6419 15.3185 78.8377 15.4304 78.9775 15.3464C79.1174 15.2625 79.3132 15.4024 79.3971 15.6262C79.481 15.8779 79.6768 15.9898 79.8166 15.9059C79.9565 15.822 80.1523 15.9618 80.2362 16.1856C80.3201 16.4373 80.5159 16.5772 80.6278 16.4933C80.7677 16.4093 81.0754 16.6331 81.2991 16.9688C81.5509 17.3044 81.7467 17.4723 81.7467 17.3324C81.7467 17.1646 82.0264 17.3604 82.3341 17.752C82.6417 18.1436 82.8375 18.2554 82.7256 18.0317C82.6417 17.8079 83.2291 18.3673 84.0683 19.2624C84.9074 20.1855 86.306 21.584 87.229 22.4231C88.1241 23.2623 88.6835 23.8776 88.4597 23.7658C88.236 23.6539 88.3758 23.8497 88.8234 24.1853C89.2429 24.521 89.5226 24.8846 89.4387 25.0245C89.3548 25.1363 89.4947 25.3321 89.7464 25.4161C89.9702 25.5 90.11 25.6958 89.9981 25.8356C89.9142 26.0035 90.11 26.2552 90.4177 26.423C90.7254 26.5908 90.9212 26.8426 90.8373 27.0104C90.7254 27.1503 90.8093 27.2622 90.9771 27.2622C91.145 27.2622 91.2289 27.374 91.145 27.5139C91.0611 27.6537 91.1729 27.8495 91.4247 27.9335C91.6764 28.0453 91.8163 28.1852 91.7324 28.2691C91.6484 28.381 91.8163 28.6887 92.096 29.0243C92.4037 29.332 92.5715 29.6956 92.4876 29.8355C92.4037 29.9474 92.4876 30.0593 92.6554 30.0593C92.8232 30.0593 92.8792 30.1712 92.7953 30.339C92.7113 30.4788 92.7673 30.6187 92.9351 30.6187C93.1029 30.6187 93.1589 30.7306 93.075 30.8984C92.9911 31.0383 93.047 31.1781 93.2148 31.1781C93.3827 31.1781 93.4666 31.29 93.3827 31.4299C93.2708 31.5697 93.3547 31.7375 93.4945 31.7935C93.6624 31.8494 93.8302 32.1571 93.8582 32.5207C93.8582 32.8564 93.998 33.1361 94.1379 33.1361C94.2498 33.1361 94.3057 33.248 94.2218 33.3878C94.1099 33.5277 94.1938 33.6955 94.3337 33.7515C94.5015 33.8074 94.6693 34.1151 94.6973 34.4787C94.6973 34.8144 94.8372 35.0941 94.977 35.0941C95.1169 35.0941 95.1728 35.2899 95.0609 35.5136C94.977 35.7374 95.033 35.9332 95.1728 35.9332C95.3127 35.9332 95.3686 36.129 95.2847 36.3528C95.1728 36.5765 95.2567 36.7723 95.4525 36.7723C95.6483 36.7723 95.7322 36.9961 95.6483 37.3318C95.5644 37.6115 95.6203 37.8912 95.7602 37.9471C95.9001 38.0031 96.0399 38.3947 96.1238 38.8702C96.1798 39.3177 96.3196 39.9331 96.4315 40.1848C96.5434 40.4366 96.5434 40.7722 96.4595 40.94C96.3476 41.0799 96.4035 41.2757 96.5434 41.3876C96.8231 41.5554 96.8791 42.0589 96.8791 44.4364C96.8791 45.2196 97.0189 46.0028 97.1867 46.1986C97.3546 46.4224 97.4385 47.2615 97.3546 48.2405C97.2986 49.1636 97.3546 49.9188 97.4944 49.9188C97.6343 49.9188 97.6902 50.0866 97.6343 50.2544C97.5504 50.4502 97.7741 50.8418 98.0818 51.1215C98.4175 51.4013 98.4734 51.5411 98.2496 51.4292C97.9699 51.2894 97.9979 51.4292 98.3615 51.8208C98.9209 52.4642 99.2566 52.632 98.9489 52.1285C98.837 51.9607 99.0049 51.9886 99.3405 52.2124C99.6762 52.4082 99.9279 52.66 99.9279 52.7998C99.9279 52.9117 100.04 52.9676 100.18 52.8558C100.32 52.7718 100.515 52.8278 100.599 52.9397C100.795 53.2753 103.005 53.2753 103.005 52.9397C103.005 52.7998 103.145 52.7159 103.34 52.7718C103.536 52.8558 103.9 52.6879 104.18 52.4642C104.459 52.2124 104.823 52.0166 104.963 52.0166C105.131 52.0166 105.242 51.8768 105.27 51.7369C105.27 51.5691 105.578 51.0656 105.914 50.6181C106.445 49.8908 106.529 49.3873 106.585 47.0098C106.641 45.2756 106.529 44.1288 106.333 43.877C106.165 43.6532 106.082 43.0379 106.138 42.5064C106.193 41.975 106.138 41.5274 105.998 41.5274C105.858 41.5274 105.802 41.1358 105.858 40.6883C105.942 40.2128 105.858 39.8492 105.718 39.8492C105.578 39.8492 105.522 39.5415 105.578 39.1499C105.662 38.7583 105.606 38.3667 105.466 38.2828C105.326 38.1989 105.27 37.9471 105.354 37.7234C105.438 37.4996 105.354 37.3318 105.214 37.3318C105.047 37.3318 104.963 37.08 105.047 36.7723C105.131 36.4647 105.075 36.2129 104.907 36.2129C104.739 36.2129 104.683 35.9612 104.767 35.6535C104.851 35.3458 104.795 35.0941 104.627 35.0941C104.487 35.0941 104.459 34.8423 104.543 34.5347C104.655 34.227 104.599 33.9752 104.431 33.9752C104.263 33.9752 104.207 33.7794 104.291 33.5557C104.403 33.3319 104.319 33.1361 104.124 33.1361C103.928 33.1361 103.844 32.9403 103.956 32.7165C104.04 32.4928 103.984 32.297 103.816 32.297C103.648 32.297 103.564 32.1291 103.648 31.9054C103.732 31.6816 103.676 31.4578 103.536 31.4019C103.396 31.3459 103.229 31.0383 103.201 30.6746C103.201 30.339 103.061 30.0593 102.921 30.0593C102.809 30.0593 102.781 29.9194 102.865 29.7796C102.949 29.6117 102.893 29.4998 102.725 29.4998C102.557 29.4998 102.501 29.36 102.585 29.2201C102.669 29.0523 102.613 28.9404 102.445 28.9404C102.25 28.9404 102.166 28.7446 102.277 28.5209C102.361 28.2971 102.305 28.1013 102.138 28.1013C101.858 28.1013 101.159 26.479 101.271 26.0594C101.298 25.9475 101.187 25.8636 101.019 25.8636C100.879 25.8636 100.823 25.7237 100.907 25.5839C100.991 25.4161 100.935 25.3042 100.767 25.3042C100.599 25.3042 100.515 25.1923 100.599 25.0524C100.683 24.9126 100.571 24.7168 100.32 24.6329C100.096 24.549 99.9838 24.3532 100.068 24.1853C100.152 24.0455 100.096 23.9056 99.8999 23.9056C99.7041 23.9056 99.6202 23.8217 99.7041 23.7378C99.816 23.6539 99.6482 23.3462 99.3405 23.0385C99.0328 22.7308 98.865 22.3672 98.9489 22.2553C99.0049 22.1155 98.893 21.9197 98.6412 21.8358C98.4175 21.7518 98.2776 21.556 98.3615 21.4162C98.4454 21.2763 98.3335 21.0805 98.0818 20.9966C97.8301 20.8847 97.6902 20.7449 97.7741 20.661C97.858 20.5491 97.6622 20.2414 97.3266 19.9617C96.9909 19.682 96.8231 19.4582 96.9909 19.4302C97.1308 19.4302 96.963 19.2344 96.6273 18.9827C96.2917 18.7589 96.0679 18.4512 96.1238 18.3394C96.2077 18.2275 95.9001 17.8359 95.4525 17.5002C94.977 17.1646 94.6414 16.8009 94.6973 16.6891C94.7253 16.5492 93.8022 15.5702 92.5995 14.4793C91.4247 13.3885 90.5296 12.4374 90.5855 12.3535C90.6695 12.2976 90.5016 12.0738 90.2219 11.8501C89.8023 11.5144 89.7744 11.5144 89.9702 11.878C90.0821 12.1018 89.7184 11.7941 89.131 11.1787C88.5716 10.5634 88.18 10.2557 88.2919 10.4795C88.4038 10.7032 88.236 10.5914 87.9283 10.2277C87.5926 9.8641 87.3409 9.69627 87.3409 9.80816C87.3129 9.94801 87.0891 9.78019 86.8094 9.44453C86.5297 9.10888 86.222 8.88511 86.1661 8.96902C86.0822 9.02497 85.6906 8.77322 85.299 8.4096C84.8794 8.01801 84.5438 7.79424 84.5438 7.90612C84.5438 8.01801 84.348 7.85018 84.0962 7.5425C83.8725 7.23481 83.6207 7.03901 83.5368 7.09496C83.341 7.23481 80.0684 5.44466 80.0684 5.19292C80.0684 5.08104 79.9006 4.96915 79.6768 4.96915C79.0614 4.96915 77.551 4.26987 77.551 3.99016C77.551 3.8503 77.4391 3.82233 77.2713 3.90625C77.1314 3.99016 76.9916 3.93422 76.9916 3.76639C76.9916 3.57059 76.7958 3.48668 76.572 3.59856C76.3482 3.68248 76.1524 3.65451 76.1524 3.54262C76.1524 3.43074 75.8727 3.29088 75.5371 3.29088C75.1734 3.26291 74.8658 3.09508 74.8098 2.95523C74.7539 2.81537 74.5301 2.75943 74.3063 2.84334C74.0826 2.92726 73.9147 2.87132 73.9147 2.75943C73.9147 2.61957 73.5791 2.47972 73.1595 2.45175C72.7399 2.45175 72.3484 2.28392 72.2924 2.14406C72.2644 2.00421 71.9568 1.9203 71.677 2.00421C71.3414 2.08812 71.1176 2.00421 71.1176 1.80841C71.1176 1.61261 70.8939 1.55667 70.5582 1.66855C70.2505 1.75247 69.9988 1.72449 69.9988 1.58464C69.9988 1.41681 69.747 1.36087 69.4394 1.44479C69.1037 1.5287 68.8799 1.44479 68.8799 1.24899C68.8799 1.05319 68.6841 0.969276 68.4324 1.08116C68.1807 1.16507 67.873 1.16507 67.7051 1.08116C67.5373 0.969276 66.7821 0.857391 65.9989 0.801449C65.2157 0.717537 64.4605 0.577679 64.3206 0.437824C64.1808 0.29797 63.6493 0.242027 63.1179 0.325939C62.6144 0.409851 61.9711 0.381882 61.6913 0.269997C60.6844 -0.17754 57.2439 -0.0376854 56.4328 0.465794Z" fill="white"/>
<path d="M61.5795 19.5421C61.4956 19.626 60.2369 19.7099 58.7265 19.7379C57.0762 19.7659 56.0133 19.9057 56.0133 20.0736C56.0133 20.2414 55.9573 20.2973 55.8734 20.2134C55.6497 20.0176 53.8595 21.7518 53.9994 22.0036C54.0553 22.1434 53.9714 22.2273 53.8315 22.2273C53.6637 22.2273 53.6078 22.4791 53.6917 22.7868C53.7756 23.0945 53.6917 23.3462 53.5238 23.3462C53.356 23.3462 53.2441 23.7098 53.2721 24.1853C53.3001 24.6329 53.412 25.0245 53.5238 25.0245C53.6357 25.0245 53.7756 25.3321 53.8875 25.6678C54.0833 26.479 55.5937 28.4369 55.8455 28.1852C55.9294 28.1013 56.0133 28.1572 56.0133 28.3251C56.0133 28.4929 56.2091 28.5768 56.4328 28.4929C56.6566 28.381 56.8524 28.4369 56.8524 28.5488C56.8524 28.6887 57.8594 28.7726 59.0901 28.7446C60.3208 28.7167 61.3278 28.8285 61.3278 28.9684C61.3278 29.0803 61.6914 29.1362 62.1669 29.0523C62.6145 28.9404 63.2019 28.9684 63.4816 29.0803C63.7613 29.2201 64.2648 29.2761 64.6284 29.2481C64.964 29.2201 65.2438 29.332 65.2438 29.4998C65.2438 29.7236 65.4955 29.7796 65.943 29.6677C66.3906 29.5558 66.6423 29.6117 66.6423 29.8075C66.6423 29.9754 66.8101 30.0593 67.0339 29.9754C67.2577 29.8914 67.5094 29.8914 67.5933 30.0033C67.7052 30.0872 68.0688 30.1991 68.4045 30.2551C68.7402 30.311 69.0758 30.4788 69.1038 30.6187C69.1597 30.7865 69.3275 30.8425 69.4674 30.7306C69.6073 30.6467 69.7191 30.7306 69.7191 30.8984C69.7191 31.0662 69.859 31.1222 69.9989 31.0383C70.1667 30.9543 70.2786 31.0103 70.2786 31.1781C70.2786 31.3459 70.3904 31.4299 70.5583 31.318C70.6981 31.2341 71.0618 31.4019 71.3974 31.7375C71.7051 32.0452 71.9568 32.213 71.9568 32.1012C71.9568 31.9893 72.5163 32.4648 73.2155 33.1361C73.8868 33.8074 74.3903 34.4507 74.3344 34.5626C74.2505 34.6745 74.3903 34.8423 74.6421 34.9262C74.8658 35.0102 74.9777 35.206 74.8938 35.3738C74.8099 35.5136 74.8379 35.6535 74.9497 35.6535C75.3134 35.6535 76.2084 37.3038 76.0126 37.6115C75.9287 37.7793 75.9567 37.8912 76.1245 37.8912C76.2924 37.8912 76.3483 38.087 76.2644 38.3108C76.1525 38.5345 76.2364 38.7303 76.4322 38.7303C76.628 38.7303 76.7119 38.9261 76.6 39.1499C76.5161 39.3737 76.6 39.5695 76.7399 39.5695C76.9077 39.5695 76.9916 39.8212 76.9077 40.1289C76.8238 40.4366 76.8798 40.6883 77.0476 40.6883C77.2154 40.6883 77.2714 40.996 77.2154 41.3876C77.1315 41.7792 77.1874 42.0869 77.3273 42.0869C77.579 42.0869 77.607 42.3945 77.6629 46.4224C77.6629 47.793 77.8028 49.1076 77.9427 49.3034C78.0545 49.4992 78.1105 49.751 78.0266 49.8349C77.9427 49.9188 77.9706 50.1146 78.1385 50.3104C78.2783 50.4782 78.7538 51.0936 79.2014 51.653C79.6209 52.2404 80.0685 52.632 80.1804 52.5201C80.2643 52.4362 80.3482 52.4921 80.3482 52.66C80.3482 52.8278 80.544 52.9117 80.7677 52.8278C80.9915 52.7159 81.1873 52.7718 81.1873 52.9117C81.1873 53.0516 81.7467 53.1914 82.446 53.1914C83.1453 53.1914 83.7047 53.0795 83.7047 52.9397C83.7047 52.7998 83.8166 52.7439 83.9565 52.8558C84.0963 52.9397 84.6278 52.632 85.1312 52.1565C85.6627 51.7089 86.1662 51.3173 86.306 51.3173C86.4179 51.3173 86.4739 51.2055 86.362 51.0656C86.2781 50.9257 86.3899 50.646 86.5857 50.4223C86.7815 50.2265 86.9214 49.7789 86.8934 49.4153C86.8655 49.0796 86.9214 48.7999 87.0333 48.7999C87.1172 48.7999 87.2011 48.4923 87.2011 48.1007C87.2011 47.7091 87.1172 47.4014 87.0333 47.4014C86.9494 47.4014 86.8934 46.3385 86.8934 45.0238C86.9214 43.7092 86.8375 42.6463 86.7536 42.6463C86.6417 42.6463 86.5857 42.2267 86.5857 41.7232C86.5857 41.2477 86.5018 40.6324 86.4179 40.4086C86.2781 40.017 86.2221 39.6254 86.1941 38.3667C86.1941 38.115 86.0543 37.8912 85.9144 37.8912C85.7466 37.8912 85.6907 37.6395 85.8026 37.3597C85.8865 37.0521 85.8305 36.7444 85.6627 36.6325C85.4949 36.5486 85.4389 36.3528 85.5228 36.2129C85.6068 36.0731 85.5508 35.9052 85.383 35.7934C85.2152 35.6815 85.1592 35.4857 85.2431 35.3458C85.355 35.206 85.2991 35.0941 85.1592 35.0941C84.9075 35.0941 84.0683 32.8844 84.2082 32.4928C84.2362 32.3809 84.1243 32.297 83.9565 32.297C83.8166 32.297 83.7607 32.1571 83.8446 32.0173C83.9285 31.8494 83.8725 31.7375 83.7047 31.7375C83.5369 31.7375 83.4809 31.5977 83.5649 31.4578C83.6488 31.29 83.6208 31.1781 83.4809 31.1781C83.3411 31.1781 82.8936 30.6746 82.474 30.0593C82.0824 29.4439 81.8027 28.9404 81.8866 28.9404C81.9705 28.9404 81.6348 28.5488 81.1314 28.0733C80.6279 27.5978 80.3761 27.3181 80.5999 27.43C80.8517 27.5698 80.9356 27.5139 80.7957 27.3181C80.6838 27.1223 80.4321 26.9824 80.2083 26.9824C79.9846 26.9824 79.7328 26.8426 79.6209 26.6468C79.4811 26.451 79.537 26.423 79.8167 26.5629C80.0405 26.7027 79.9566 26.5349 79.6769 26.1993C79.0895 25.5279 78.8098 25.3881 79.0895 25.9195C79.2014 26.1153 78.8937 25.8636 78.4182 25.3601C77.9427 24.8566 77.5511 24.549 77.5511 24.6608C77.5511 24.8007 77.3553 24.6329 77.1315 24.3532C76.9077 24.0455 76.7119 23.9056 76.7119 24.0734C76.7119 24.2133 76.5161 24.0734 76.2644 23.7658C76.0406 23.4581 75.7609 23.2343 75.649 23.2623C75.2854 23.4021 74.4742 23.0385 74.4742 22.7588C74.4742 22.591 74.3624 22.563 74.1945 22.6469C74.0547 22.7308 73.9148 22.6749 73.9148 22.5071C73.9148 22.3392 73.8029 22.2833 73.6351 22.3672C73.4952 22.4511 73.3554 22.3952 73.3554 22.2273C73.3554 22.0595 73.2435 22.0036 73.0757 22.0875C72.9358 22.1714 72.796 22.1434 72.796 21.9756C72.796 21.8078 72.6002 21.7518 72.3764 21.8358C72.1526 21.9476 71.9568 21.8637 71.9568 21.6679C71.9568 21.5001 71.8449 21.4442 71.6771 21.5281C71.5373 21.612 71.3974 21.584 71.3974 21.4162C71.3974 21.2484 71.2016 21.1924 70.9778 21.2763C70.7541 21.3882 70.5583 21.3043 70.5583 21.1085C70.5583 20.9407 70.4184 20.8847 70.2786 20.9686C70.1107 21.0805 69.8031 21.0246 69.6073 20.8568C69.4115 20.6889 69.0199 20.605 68.7681 20.7169C68.5164 20.8008 68.3206 20.7449 68.3206 20.605C68.3206 20.3253 68.0688 20.2694 66.3067 20.2414C65.8871 20.2414 65.4675 20.1295 65.3836 20.0176C65.3277 19.8778 64.6284 19.8218 63.8452 19.8778C63.062 19.9337 62.4466 19.8498 62.4466 19.7099C62.4466 19.4302 61.8033 19.3184 61.5795 19.5421Z" fill="white"/>
<path d="M19.9306 25.1086C19.9306 25.2485 19.5669 25.3044 19.0914 25.2485C18.6439 25.1926 18.2243 25.2485 18.1684 25.3883C18.1404 25.5282 17.6929 25.6681 17.1894 25.696C16.6859 25.696 16.2943 25.8359 16.2943 25.9478C16.2943 26.0876 16.1824 26.0876 16.0146 26.0037C15.8747 25.9198 15.7349 25.9478 15.7349 26.0876C15.7349 26.3953 14.0566 27.1505 13.693 27.0386C13.5531 27.0107 13.5252 27.0946 13.6091 27.2344C13.7489 27.4582 12.9657 27.9337 12.714 27.8218C12.4902 27.71 11.0078 29.3043 11.1196 29.5001C11.2036 29.612 10.6162 30.3672 9.86094 31.1504C9.07775 31.9616 8.60224 32.521 8.77007 32.4371C8.93789 32.3252 8.90992 32.493 8.71412 32.8007C8.51833 33.1364 8.23862 33.3042 8.12673 33.2482C7.98688 33.1643 7.90296 33.1923 7.93093 33.3322C8.04282 33.9195 7.87499 34.2832 7.56731 34.0874C7.37151 33.9755 7.34354 34.0035 7.45542 34.1993C7.56731 34.3671 7.39948 34.7587 7.0918 35.0664C6.78412 35.374 6.61629 35.6817 6.72817 35.7656C6.81209 35.8496 6.72817 35.9335 6.56035 35.9335C6.36455 35.9335 6.25266 36.0174 6.25266 36.1293C6.33658 36.7167 6.19672 37.0803 5.94498 36.9125C5.77715 36.8006 5.69324 36.8285 5.72121 36.9684C5.8331 37.332 5.07788 39.0103 4.77019 39.0103C4.63034 39.0103 4.60237 39.1222 4.68628 39.29C4.77019 39.4299 4.74222 39.5697 4.57439 39.5697C4.40657 39.5697 4.3786 39.7655 4.46251 40.0452C4.57439 40.3529 4.54642 40.4368 4.32265 40.297C4.09889 40.1851 4.04294 40.241 4.15483 40.4928C4.23874 40.7165 4.12686 41.0802 3.90309 41.276C3.70729 41.4997 3.56743 41.8354 3.65135 42.0592C3.73526 42.2829 3.65135 42.3668 3.45555 42.2549C3.25975 42.1151 3.20381 42.227 3.31569 42.4787C3.39961 42.7305 3.37164 42.9263 3.25975 42.9263C3.1199 42.9263 2.98004 43.2619 2.95207 43.6815C2.95207 44.101 2.78424 44.4926 2.61641 44.5486C2.47656 44.6045 2.42062 44.8283 2.50453 45.0521C2.58844 45.2758 2.5325 45.4437 2.42062 45.4437C2.28076 45.4437 2.1409 45.8353 2.1409 46.3387C2.11293 46.8422 1.97308 47.2898 1.80525 47.3457C1.6654 47.3737 1.58148 47.6814 1.6654 47.9611C1.74931 48.2687 1.69337 48.5205 1.55351 48.5205C1.38568 48.5205 1.32974 48.8282 1.41366 49.2198C1.4696 49.6114 1.41366 49.919 1.2738 49.919C1.10597 49.919 1.05003 50.2267 1.13394 50.6183C1.18989 51.0099 1.13394 51.3176 0.994088 51.3176C0.854232 51.3176 0.79829 51.8211 0.854232 52.4364C0.938145 53.1357 0.854232 53.5553 0.658434 53.5553C0.434665 53.5553 0.378722 54.5343 0.490607 56.8279C0.57452 58.9817 0.518578 59.8488 0.350751 59.2894C0.182924 58.702 0.154953 58.9817 0.266838 60.2684C0.350751 61.2753 0.546549 62.1704 0.714376 62.2543C0.854232 62.3662 0.910174 62.8977 0.826261 63.4571C0.714376 64.0724 0.770319 64.464 0.966117 64.464C1.13394 64.464 1.18989 64.7717 1.13394 65.1633C1.05003 65.5549 1.078 65.8626 1.18989 65.8626C1.44163 65.8626 2.05699 68.6597 1.86119 68.9674C1.77728 69.1073 1.86119 69.2191 2.02902 69.2191C2.22482 69.2191 2.30873 69.4149 2.19685 69.6387C2.11293 69.8625 2.16888 70.0583 2.3367 70.0583C2.50453 70.0583 2.56047 70.31 2.44859 70.6457C2.30873 71.0932 2.3367 71.1771 2.58844 71.0373C2.84018 70.8974 2.86815 71.0093 2.7283 71.4568C2.58844 71.8764 2.61641 72.0163 2.84018 71.9044C3.1199 71.7086 3.25975 72.1281 3.23178 73.0512C3.20381 73.247 3.34366 73.3309 3.51149 73.219C3.67932 73.1071 3.73526 73.219 3.62338 73.4987C3.53946 73.7784 3.53946 73.9742 3.67932 73.9742C4.01497 73.9742 4.57439 75.3728 4.3786 75.7084C4.23874 75.9042 4.32265 75.9322 4.54642 75.7924C4.82614 75.6245 4.88208 75.6805 4.74222 76.0161C4.65831 76.2958 4.68628 76.4916 4.85411 76.4916C5.02193 76.4916 5.0499 76.6035 4.96599 76.7713C4.88208 76.9112 4.91005 77.0511 5.07788 77.0511C5.2457 77.0511 5.6373 77.5545 5.94498 78.1699C6.25266 78.7853 6.44846 79.2887 6.36455 79.2887C6.28063 79.2887 6.47643 79.5405 6.78412 79.8482C7.11977 80.1838 7.2876 80.5754 7.17571 80.7432C7.06383 80.939 7.0918 80.967 7.2876 80.8551C7.59528 80.6593 7.76311 81.023 7.65122 81.6104C7.62325 81.7502 7.73513 81.7782 7.90296 81.6663C8.1547 81.4985 8.29456 81.8901 8.21064 82.4495C8.18267 82.5893 8.29456 82.6173 8.46238 82.5054C8.71412 82.3376 8.85398 82.7292 8.77007 83.2886C8.7421 83.4285 8.85398 83.4565 8.99384 83.3725C9.24558 83.2047 9.72109 83.9879 9.6092 84.4075C9.58123 84.5473 9.69312 84.5753 9.83297 84.4914C10.0567 84.3515 10.4763 84.9389 10.5322 85.4983C10.5602 85.5823 10.6721 85.7781 10.812 85.9179C10.9518 86.0578 10.9798 85.9739 10.8679 85.7221C10.728 85.4983 10.9518 85.6662 11.3434 86.1417C11.735 86.5892 11.9867 87.0647 11.9308 87.1766C11.8749 87.2885 11.9588 87.4563 12.1266 87.5682C12.3504 87.7081 12.3783 87.6521 12.2385 87.3724C12.1266 87.1486 12.5182 87.5402 13.1056 88.2395C13.693 88.9108 14.1685 89.5262 14.1405 89.6381C14.0286 89.8618 16.9376 92.7149 17.1334 92.575C17.2453 92.5191 18.1124 93.1904 19.0355 94.0855C19.9865 95.0085 20.6858 95.6239 20.6019 95.4561C20.518 95.3162 20.9935 95.6239 21.6927 96.1274C22.364 96.6309 22.8675 97.1343 22.8116 97.2742C22.7277 97.3861 22.7836 97.47 22.9235 97.442C23.4829 97.3581 23.8745 97.498 23.7067 97.7497C23.5948 97.9175 23.6227 98.0294 23.7626 98.0014C24.35 97.8896 24.7136 98.0574 24.5178 98.3651C24.4059 98.5609 24.4339 98.5888 24.6297 98.477C24.7975 98.3651 25.1891 98.5329 25.4968 98.8406C25.8045 99.1483 26.1122 99.3161 26.1961 99.2322C26.28 99.1203 26.3639 99.2322 26.3639 99.428C26.3639 99.6238 26.4478 99.7357 26.5317 99.6238C26.7835 99.4 28.3219 100.211 28.3219 100.575C28.3219 100.743 28.4618 100.771 28.6016 100.687C28.7694 100.603 28.8813 100.659 28.8813 100.827C28.8813 100.994 28.9932 101.078 29.1331 100.994C29.5247 100.743 30.3079 101.134 30.0841 101.47C29.9722 101.638 30.0841 101.694 30.3638 101.582C30.6435 101.498 30.8393 101.526 30.8393 101.694C30.8393 101.861 30.9792 101.889 31.119 101.806C31.2589 101.722 31.3987 101.75 31.3987 101.917C31.3987 102.085 31.5666 102.141 31.7903 102.057C31.9861 101.973 32.3497 102.085 32.5455 102.281C32.7693 102.477 33.105 102.645 33.3008 102.673C34.3637 102.757 34.5035 102.812 34.3637 103.036C34.2518 103.176 34.4756 103.232 34.8112 103.12C35.2308 103.008 35.3427 103.064 35.1748 103.316C35.035 103.596 35.1189 103.624 35.5664 103.484C35.8741 103.4 36.1538 103.428 36.1538 103.568C36.1538 103.736 36.4056 103.791 36.7132 103.708C37.0209 103.624 37.2727 103.68 37.2727 103.847C37.2727 104.015 37.5244 104.071 37.8321 103.987C38.1398 103.903 38.3915 103.959 38.3915 104.127C38.3915 104.295 38.6433 104.351 38.9509 104.267C39.2586 104.183 39.5104 104.239 39.5104 104.379C39.5104 104.547 39.818 104.603 40.2096 104.519C40.6012 104.463 40.9089 104.519 40.9089 104.659C40.9089 104.798 41.3005 104.882 41.7481 104.798C42.2236 104.742 42.5872 104.798 42.5872 104.938C42.5872 105.078 43.0347 105.134 43.5662 105.078C44.0976 105.022 44.7689 105.05 45.0207 105.19C45.7759 105.498 51.9016 105.554 52.3211 105.218C52.5169 105.078 53.1603 105.022 53.7757 105.106C54.447 105.19 54.8945 105.134 54.8945 104.966C54.8945 104.798 55.2581 104.742 55.7336 104.798C56.2091 104.882 56.5728 104.798 56.5728 104.659C56.5728 104.519 56.8804 104.463 57.272 104.519C57.6636 104.603 57.9713 104.547 57.9713 104.379C57.9713 104.239 58.279 104.183 58.6706 104.239C59.0622 104.323 59.3699 104.267 59.3699 104.099C59.3699 103.959 59.6216 103.903 59.9293 103.987C60.237 104.071 60.4887 104.015 60.4887 103.847C60.4887 103.708 60.7684 103.68 61.0761 103.764C61.5237 103.903 61.6076 103.875 61.4677 103.624C61.2999 103.344 61.4397 103.316 61.9992 103.456C62.5586 103.596 62.7264 103.568 62.5586 103.316C62.4187 103.064 62.5306 103.036 62.9502 103.12C63.2858 103.232 63.5096 103.176 63.4257 103.064C63.2858 102.868 64.6005 102.393 65.3837 102.365C65.5515 102.365 65.8312 102.197 66.055 102.001C66.2508 101.806 66.6144 101.694 66.8102 101.778C67.034 101.861 67.2018 101.806 67.2018 101.638C67.2018 101.47 67.3417 101.442 67.4815 101.526C67.6493 101.61 67.7612 101.554 67.7612 101.386C67.7612 101.19 67.957 101.134 68.2088 101.218C68.4885 101.33 68.5724 101.274 68.4325 101.05C68.2927 100.827 68.3766 100.799 68.7122 100.91C68.964 101.022 69.1318 100.994 69.0479 100.855C68.8521 100.547 69.6633 100.211 70.0269 100.435C70.1667 100.519 70.2786 100.463 70.2786 100.295C70.2786 99.9315 71.817 99.1203 72.0688 99.3441C72.1527 99.4559 72.2366 99.4 72.2366 99.2322C72.2366 98.8965 74.4463 97.3861 74.9498 97.3861C75.1456 97.3861 75.2295 97.2742 75.1456 97.1343C75.0058 96.9385 75.4253 96.7987 75.9568 96.8826C76.0686 96.8826 76.1246 96.8267 76.0966 96.7148C76.0686 96.5749 76.9358 95.5959 78.0266 94.5051C79.1455 93.3862 79.9846 92.4352 79.9287 92.3792C79.8448 92.3233 80.0406 91.7639 80.3482 91.1765C80.6559 90.5611 80.9077 89.9178 80.9077 89.722C80.9077 89.5262 81.0195 89.3584 81.1594 89.3584C81.2993 89.3584 81.3552 89.1066 81.2713 88.7989C81.1874 88.4633 81.2713 88.2395 81.4391 88.2395C81.6629 88.2395 81.7188 87.8759 81.6069 87.0927C81.4951 86.4494 81.551 86.0018 81.6909 86.1137C81.8307 86.1976 81.9426 85.3305 81.9146 84.1837C81.9146 82.953 81.8027 82.1977 81.6349 82.2817C81.4951 82.3935 81.4391 81.946 81.551 81.1628C81.6909 80.2677 81.6349 79.8482 81.4391 79.8482C81.2433 79.8482 81.1874 79.5405 81.2713 79.037C81.3832 78.5895 81.3272 78.1699 81.1874 78.114C81.0475 78.058 80.8797 77.5825 80.8517 77.0511C80.7958 76.5196 80.6839 76.0161 80.6 75.9322C80.2923 75.6805 79.5091 73.0792 79.6769 72.8274C79.7608 72.6876 79.6769 72.5757 79.5091 72.5757C79.3133 72.5757 79.2294 72.3799 79.3413 72.1561C79.4252 71.9323 79.3692 71.7365 79.2014 71.7365C79.0336 71.7365 78.9777 71.5128 79.0616 71.261C79.1734 70.9813 79.1734 70.8694 79.0616 70.9813C78.8098 71.2331 78.0546 69.5268 78.2784 69.1912C78.3623 69.0513 78.2784 68.9394 78.1105 68.9394C77.9427 68.9394 77.8588 68.8275 77.9427 68.6877C78.0266 68.5478 77.9147 68.352 77.663 68.2681C77.4113 68.1562 77.2714 67.9045 77.3833 67.6807C77.4672 67.457 77.4113 67.2612 77.2434 67.2612C77.0756 67.2612 77.0476 67.1213 77.1316 66.9814C77.2155 66.8136 77.1875 66.7017 77.0756 66.7017C76.7679 66.7017 75.761 65.0235 75.9568 64.8277C76.0407 64.7717 75.8729 64.464 75.5652 64.1564C75.2575 63.8487 75.0897 63.4851 75.1736 63.3452C75.2855 63.1774 75.2015 63.0655 75.0058 63.0655C74.81 63.0655 74.754 62.9816 74.8379 62.8697C74.9498 62.7858 74.8379 62.562 74.6142 62.3942C74.4184 62.2263 74.1946 61.9187 74.1386 61.6949C74.0827 61.4711 73.831 61.0516 73.5512 60.7719C73.2715 60.4921 73.1317 60.1005 73.2436 59.9327C73.3555 59.7369 73.3275 59.7089 73.1317 59.8208C72.824 60.0166 72.6562 59.653 72.7681 59.0656C72.796 58.9258 72.6841 58.8978 72.5163 59.0097C72.2366 59.1775 72.0967 58.7579 72.2366 58.1705C72.2646 58.0307 72.2086 57.9747 72.0967 58.0866C71.9849 58.1705 71.6772 58.0307 71.3695 57.723C70.8381 57.1915 70.0828 57.2195 70.4185 57.751C70.5024 57.8908 70.3625 58.1146 70.1108 58.2544C69.8591 58.3943 69.6912 58.5621 69.7472 58.6181C69.887 58.8978 69.3835 59.9887 69.1318 59.8488C68.992 59.7649 68.964 59.9047 69.0759 60.1565C69.1878 60.4921 69.1598 60.5761 68.936 60.4362C68.7122 60.3243 68.6563 60.3803 68.7682 60.632C68.8521 60.8558 68.7402 61.2194 68.5164 61.4152C68.2927 61.611 68.1808 62.0306 68.2647 62.3382C68.3486 62.7019 68.2927 62.8137 68.0969 62.6739C67.8731 62.534 67.8172 62.7298 67.929 63.3452C68.0409 63.8766 67.985 64.1843 67.7892 64.1843C67.6214 64.1843 67.4815 64.3801 67.4815 64.6039C67.4815 64.8277 67.6214 65.0235 67.7892 65.0235C67.957 65.0235 68.0409 65.2752 67.957 65.5829C67.8731 65.8906 67.929 66.0864 68.0409 66.0025C68.2927 65.8626 68.7682 66.9255 68.6563 67.3451C68.6283 67.4849 68.7122 67.5129 68.8521 67.429C69.0759 67.2891 69.8311 68.6877 69.7472 69.0793C69.7192 69.1632 69.887 69.4429 70.1388 69.6946C70.3905 69.9184 70.5304 70.31 70.4464 70.5338C70.3346 70.7855 70.3905 70.8415 70.6143 70.7296C70.8381 70.5897 70.866 70.6736 70.7541 70.9813C70.6702 71.261 70.6702 71.4568 70.8101 71.4568C71.1178 71.4568 71.7052 72.8554 71.5373 73.1631C71.4254 73.3029 71.5094 73.4148 71.6772 73.4148C71.873 73.4148 71.9569 73.6106 71.845 73.8344C71.7611 74.0581 71.817 74.2539 71.9849 74.2539C72.1527 74.2539 72.2366 74.4497 72.1247 74.6735C72.0408 74.8973 72.1247 75.0931 72.2646 75.0931C72.4324 75.0931 72.5163 75.3448 72.4324 75.6525C72.3485 76.0161 72.4044 76.156 72.6002 76.0161C72.7681 75.9042 72.824 76.0721 72.7401 76.4357C72.6282 76.7713 72.6841 77.0511 72.852 77.0511C73.0198 77.0511 73.0757 77.3587 73.0198 77.7503C72.9359 78.1419 72.9639 78.4496 73.1037 78.4496C73.2156 78.4496 73.2995 79.5685 73.2995 80.967C73.2995 82.3376 73.1876 83.4285 73.0757 83.3446C72.9359 83.2607 72.9079 83.4565 72.9918 83.7641C73.0757 84.0718 72.9918 84.3236 72.824 84.3236C72.6841 84.3236 72.6002 84.4914 72.6841 84.7152C72.7681 84.9389 72.5723 85.3865 72.2646 85.6941C71.9289 86.0298 71.7611 86.2815 71.873 86.2815C71.9849 86.2815 71.7052 86.6452 71.2576 87.1207C70.8381 87.5682 70.3625 87.8759 70.2227 87.792C70.1108 87.7081 69.9989 87.792 69.9989 87.9598C69.9989 88.1276 69.887 88.1836 69.7192 88.0997C69.5793 88.0157 69.4395 88.0717 69.4395 88.2675C69.4395 88.4633 69.3556 88.5472 69.2717 88.4353C69.1598 88.3514 68.908 88.4633 68.6563 88.6871C68.4325 88.9388 67.957 89.0787 67.5934 88.9947C67.2298 88.9388 66.8941 88.9947 66.8661 89.1346C66.7543 89.4702 63.174 89.4702 63.0621 89.1346C63.0341 88.9947 62.6705 88.9388 62.3068 89.0227C61.9152 89.0787 61.6076 89.0227 61.6076 88.8829C61.6076 88.715 61.2719 88.6591 60.8803 88.743C60.3768 88.8269 60.181 88.771 60.3209 88.5752C60.4328 88.4073 60.265 88.3514 59.9293 88.4353C59.6216 88.5192 59.3699 88.4353 59.3699 88.2675C59.3699 88.1276 59.1741 88.0437 58.9503 88.1276C58.7265 88.2395 58.5307 88.1556 58.5307 87.9878C58.5307 87.82 58.3349 87.764 58.1112 87.8479C57.8874 87.9598 57.6916 87.8759 57.6916 87.7081C57.6916 87.5402 57.5238 87.4843 57.3 87.5682C57.1042 87.6521 56.7406 87.5123 56.4888 87.2885C56.2651 87.0647 56.0133 86.9528 55.9015 87.0368C55.8175 87.1486 55.7336 87.0647 55.7336 86.8689C55.7336 86.6731 55.6217 86.5892 55.4819 86.7011C55.1462 86.8969 53.7757 86.2815 53.7757 85.9459C53.7757 85.806 53.6638 85.7781 53.4959 85.862C53.3561 85.9459 53.2162 85.8899 53.2162 85.7221C53.2162 85.5543 53.1043 85.4983 52.9365 85.5823C52.7967 85.6662 52.6568 85.6102 52.6568 85.4144C52.6568 85.2186 52.5729 85.1347 52.489 85.2466C52.2372 85.4704 50.6988 84.6592 50.6988 84.2956C50.6988 84.1278 50.5869 84.0718 50.4191 84.1837C50.2793 84.2676 49.9156 84.0998 49.6079 83.7921C49.3003 83.4844 48.9926 83.3166 48.9087 83.4005C48.8248 83.4844 48.6849 83.3725 48.573 83.1208C48.4891 82.8691 48.2374 82.7572 48.0136 82.8411C47.7619 82.925 47.622 82.8131 47.622 82.5054C47.622 82.2537 47.5101 82.1138 47.3982 82.1977C47.0905 82.3656 45.1046 81.0509 45.1046 80.6873C45.1046 80.5195 45.0207 80.4356 44.9088 80.4356C44.3214 80.5195 43.9857 80.3796 43.9857 79.988C43.9857 79.7643 43.9018 79.5964 43.7899 79.5964C43.2026 79.6803 42.8669 79.5405 42.8669 79.1489C42.8669 78.9251 42.783 78.7573 42.6711 78.7573C42.0837 78.8412 41.804 78.6734 41.5243 78.0021C41.3285 77.6105 41.0767 77.3587 40.9369 77.4427C40.797 77.5266 40.3215 77.1909 39.874 76.6874C39.4544 76.184 39.2027 75.9602 39.3705 76.2119C39.6502 76.6874 38.923 76.0721 36.993 74.226C36.2937 73.5547 36.0419 73.275 36.4335 73.5826L37.1328 74.1141L36.4615 73.3589C36.0979 72.9393 35.6783 72.6596 35.5385 72.7435C35.3986 72.8274 35.3427 72.7435 35.3706 72.5197C35.4266 72.3239 35.2867 72.1841 35.0909 72.24C34.9231 72.268 34.7832 72.1281 34.8112 71.9603C34.8672 71.7645 34.7273 71.6247 34.5315 71.6806C34.3077 71.7086 34.2238 71.6526 34.3077 71.5128C34.3916 71.3729 34.056 70.8974 33.5525 70.4499C32.7693 69.7226 32.7134 69.7226 33.2169 70.338C33.5245 70.7296 33.1329 70.366 32.3497 69.4988C31.5386 68.6597 30.9512 67.8765 31.0071 67.7926C31.0631 67.6807 30.8952 67.429 30.6155 67.2332C30.168 66.8696 30.168 66.8975 30.5316 67.401C30.7554 67.7087 30.5876 67.5968 30.168 67.1772C29.7484 66.7297 29.3568 66.1703 29.3009 65.9185C29.2729 65.6668 29.1051 65.471 28.9932 65.499C28.8534 65.499 28.4897 65.2193 28.21 64.7997C27.9023 64.4081 27.8464 64.1843 28.0422 64.3242C28.2939 64.464 28.3499 64.4361 28.21 64.2403C28.0981 64.0445 27.8184 63.9046 27.5947 63.9046C27.231 63.9046 27.0912 63.5969 27.287 63.1774C27.3149 63.0655 27.0352 62.8697 26.6716 62.7578C26.252 62.59 26.0842 62.3662 26.1961 62.0585C26.28 61.8348 26.252 61.7229 26.0842 61.8068C25.8325 61.9746 25.6926 61.583 25.7765 61.0236C25.8045 60.8837 25.6926 60.8558 25.5528 60.9676C25.3849 61.0516 25.1332 60.8558 24.9654 60.5481C24.7975 60.2404 24.7416 59.9887 24.8255 59.9887C24.9094 59.9887 24.7136 59.7369 24.4059 59.4292C24.0703 59.0936 23.9025 58.73 23.9864 58.5901C24.0983 58.4223 23.9584 58.3104 23.7067 58.3104C23.371 58.3104 23.2871 58.1705 23.399 57.8349C23.5109 57.5552 23.5109 57.4433 23.399 57.5552C23.1193 57.8069 22.364 56.716 22.5878 56.3524C22.6717 56.1846 22.6158 56.0727 22.448 56.0727C22.2801 56.0727 22.1962 55.9608 22.2801 55.821C22.364 55.6811 22.2522 55.5133 22.0284 55.4294C21.5529 55.2336 20.434 53.0238 20.6578 52.6882C20.7417 52.5483 20.6578 52.4364 20.49 52.4364C20.3222 52.4364 20.2662 52.2966 20.3501 52.1567C20.434 51.9889 20.3781 51.877 20.2103 51.877C20.0424 51.877 19.9865 51.7372 20.0704 51.5693C20.1823 51.4015 20.0424 51.1218 19.7907 50.926C19.539 50.7302 19.2872 50.2547 19.2872 49.8631C19.2592 49.4715 19.1474 49.1918 19.0355 49.2477C18.8397 49.3876 18.3921 47.8212 18.4481 47.038C18.4481 46.7863 18.3362 46.5625 18.1963 46.5625C18.0565 46.5625 18.0285 46.3108 18.1124 46.0031C18.2243 45.6674 18.1684 45.2479 17.9726 45.0241C17.8048 44.8283 17.6929 44.4926 17.7208 44.2689C17.7488 44.0731 17.6929 43.6815 17.553 43.4018C17.2453 42.6745 17.553 38.6467 17.9446 38.5068C18.1124 38.4509 18.1963 38.283 18.0845 38.1432C18.0005 38.0033 18.0565 37.8914 18.2243 37.8914C18.3921 37.8914 18.4481 37.6956 18.3642 37.4719C18.2523 37.2481 18.3921 36.9964 18.6439 36.8845C18.8956 36.8006 19.0355 36.6327 18.9795 36.5209C18.6998 36.1013 20.9095 34.1433 21.3571 34.423C21.4969 34.5069 21.6088 34.451 21.6088 34.2832C21.6088 34.1153 21.8046 34.0594 22.0284 34.1433C22.2522 34.2552 22.448 34.1993 22.448 34.0314C22.448 33.8636 22.7277 33.8077 23.0633 33.9195C23.4549 34.0035 23.5948 33.9755 23.4549 33.7517C23.3151 33.5 23.9304 33.4161 25.7765 33.4161C27.4548 33.4161 28.3219 33.528 28.3219 33.7237C28.3219 33.9195 28.6016 33.9755 29.0212 33.8636C29.4407 33.7517 29.7205 33.8077 29.7205 33.9755C29.7205 34.1713 29.9442 34.2272 30.2799 34.1153C30.6155 34.0035 30.8393 34.0594 30.8393 34.2552C30.8393 34.423 30.9792 34.479 31.119 34.3951C31.4826 34.1713 33.3567 34.7587 33.3567 35.0943C33.3567 35.2342 33.5245 35.2901 33.7483 35.2062C33.9441 35.1223 34.3077 35.2342 34.5035 35.458C34.7273 35.6538 35.063 35.7936 35.2867 35.7097C35.5105 35.6258 35.5944 35.7097 35.4825 35.9055C35.3427 36.1013 35.4545 36.1572 35.7063 36.0454C35.958 35.9614 36.1538 36.0174 36.1538 36.2132C36.1538 36.381 36.2657 36.4649 36.4056 36.353C36.5454 36.2691 36.8531 36.409 37.1048 36.6327C37.3286 36.8845 37.6083 37.0523 37.6922 37.0243C38.0279 36.9684 39.5104 37.6956 39.3985 37.8635C39.3146 37.9754 40.0978 37.9754 41.1327 37.8635C42.1676 37.7516 43.1186 37.7236 43.2585 37.8355C43.3984 37.9194 43.4263 37.8075 43.2865 37.6117C43.1186 37.332 43.2026 37.2761 43.6501 37.388C44.0417 37.4999 44.2095 37.4439 44.0976 37.2761C43.9857 37.1083 44.0697 37.0243 44.2655 37.1083C44.4892 37.1642 44.8808 36.9964 45.1885 36.6887C45.4682 36.409 45.8878 36.2411 46.1116 36.3251C46.3633 36.409 46.4472 36.353 46.3633 36.2132C46.1955 35.9335 46.615 35.7936 47.2024 35.9335C47.3423 35.9614 47.3982 35.9055 47.2863 35.7936C47.2024 35.6817 47.3423 35.374 47.65 35.0664C48.2374 34.479 48.1255 33.8916 47.4821 34.1713C47.2024 34.2552 47.0626 34.1433 47.0626 33.8356C47.0626 33.5839 46.9507 33.444 46.7829 33.5559C46.643 33.6398 46.2794 33.472 45.9437 33.1364C45.636 32.8287 45.3843 32.6329 45.3843 32.7168C45.3843 33.0245 43.6781 31.9616 43.5102 31.5979C43.4263 31.3742 43.2585 31.2623 43.1186 31.3462C42.9788 31.4301 42.8669 31.3462 42.8669 31.1784C42.8669 31.0105 42.755 30.9546 42.5872 31.0385C42.4473 31.1224 42.3075 31.0665 42.3075 30.8987C42.3075 30.7308 42.1956 30.6469 42.0557 30.7308C41.6921 30.9826 40.8809 30.6189 41.0767 30.3113C41.1607 30.1714 41.1327 30.0595 40.9928 30.0875C40.3775 30.1994 39.846 30.0036 39.3146 29.5281C38.9789 29.2204 38.6433 29.0526 38.5593 29.1365C38.4754 29.2484 38.3915 29.1645 38.3915 28.9687C38.3915 28.7729 38.2796 28.7169 38.1118 28.8008C37.972 28.8847 37.8321 28.8568 37.8321 28.7169C37.8321 28.5491 37.6643 28.4372 37.4964 28.4652C36.5734 28.4931 36.1259 28.3533 36.2937 28.1015C36.4056 27.9337 36.2657 27.9057 35.986 28.0176C35.7063 28.1015 35.5664 28.0736 35.6503 27.9337C35.7622 27.7939 35.5105 27.654 35.1189 27.654C34.7553 27.626 34.1958 27.3743 33.9161 27.1226C33.6364 26.8708 33.2448 26.731 33.105 26.8428C32.9371 26.9268 32.7973 26.8708 32.7973 26.703C32.7973 26.5072 32.5735 26.4512 32.2379 26.5631C31.9302 26.675 31.6784 26.6191 31.6784 26.4512C31.6784 26.2834 31.4826 26.2275 31.2589 26.3114C31.0351 26.4233 30.8393 26.3673 30.8393 26.1995C30.8393 26.0317 30.5876 25.9757 30.2799 26.0597C29.9722 26.1436 29.7205 26.0876 29.7205 25.9198C29.7205 25.752 29.4687 25.696 29.161 25.7799C28.8534 25.8639 28.6016 25.8079 28.6016 25.6681C28.6016 25.5002 28.2939 25.4443 27.9023 25.5282C27.5107 25.5841 27.2031 25.5282 27.2031 25.3883C27.2031 25.2485 26.7555 25.1926 26.2241 25.2485C25.6926 25.3044 25.2451 25.2485 25.2451 25.1086C25.2451 24.9408 24.0703 24.8569 22.5878 24.8569C21.1333 24.8569 19.9306 24.9967 19.9306 25.1086ZM15.8747 91.0366C16.63 91.7919 17.1894 92.4352 17.1055 92.4352C17.0216 92.4352 16.3503 91.7919 15.595 91.0366C14.8398 90.2534 14.2804 89.6381 14.3643 89.6381C14.4482 89.6381 15.1195 90.2534 15.8747 91.0366Z" fill="white"/>
<path d="M57.1324 39.0384C57.1324 39.2342 56.8247 39.2902 56.2933 39.1783C55.7618 39.0944 55.4541 39.1503 55.4541 39.3182C55.4541 39.486 55.2583 39.5699 55.0346 39.458C54.8108 39.3741 54.615 39.43 54.615 39.5979C54.615 39.7657 54.4192 39.8216 54.1675 39.7377C53.9437 39.6538 53.8038 39.6818 53.8877 39.7937C53.9437 39.9055 53.636 40.2132 53.1885 40.4929C52.685 40.7727 52.4332 40.8286 52.5451 40.6048C52.629 40.437 52.3493 40.6887 51.9298 41.2202C50.3913 43.0663 50.3634 43.0943 50.5871 42.6467C50.699 42.395 50.6711 42.3111 50.5312 42.4509C50.3913 42.5908 50.2515 42.8145 50.2515 42.9544C50.2235 43.0943 50.1956 43.346 50.1676 43.5138C50.1676 43.6537 50.0277 43.7096 49.8599 43.6257C49.6921 43.5138 49.6641 43.6537 49.776 43.9334C49.8879 44.269 49.8599 44.353 49.6361 44.2131C49.4124 44.0732 49.3564 44.1851 49.4963 44.4928C49.6082 44.8005 49.5522 44.9124 49.3844 44.8005C49.2166 44.6886 49.1047 44.8285 49.1326 45.1082C49.1326 45.3599 48.9928 45.5557 48.825 45.5277C48.6292 45.4718 48.4613 45.5837 48.4613 45.7235C48.4613 45.9193 47.9579 45.9473 47.0628 45.8354C46.1677 45.7235 45.6642 45.7515 45.6642 45.9473C45.6642 46.0872 45.1607 46.1991 44.5454 46.1711C43.93 46.1711 43.4265 46.255 43.4265 46.3949C43.4265 46.5067 42.8671 46.5627 42.1678 46.5067C41.4686 46.4508 40.9091 46.5347 40.9091 46.6746C40.9091 46.8144 40.3497 46.8424 39.6504 46.7864C38.8952 46.6746 38.3917 46.7585 38.3917 46.9263C38.3917 47.0941 37.8882 47.1501 37.133 47.0662C36.3778 46.9822 35.8743 47.0382 35.8743 47.178C35.8743 47.3459 35.6226 47.4018 35.3149 47.3179C35.0072 47.234 34.7555 47.3179 34.7555 47.4857C34.7555 47.6536 34.6716 47.7095 34.5877 47.5976C34.4758 47.5137 34.1961 47.6536 33.9443 47.9053C33.6646 48.2409 33.5807 48.2409 33.7765 47.9612C34.0003 47.5976 33.9723 47.5976 33.6366 47.9053C33.4129 48.1011 33.1891 48.3808 33.1891 48.5207C33.1611 48.6885 33.1332 48.9402 33.1052 49.1081C33.1052 49.2479 32.9653 49.3318 32.8255 49.2479C32.6856 49.136 32.6297 49.3598 32.7416 49.6954C32.8255 50.0031 32.7695 50.2269 32.6297 50.143C32.4898 50.0311 32.3779 50.3947 32.3779 50.9262C32.3779 51.4576 32.4898 51.8772 32.6297 51.8772C32.7416 51.8772 32.7695 52.073 32.6856 52.3247C32.6017 52.5485 32.6297 52.6604 32.7975 52.5765C32.9653 52.4926 33.1052 52.5485 33.1052 52.6884C33.1332 52.8562 33.1611 53.1079 33.1891 53.2478C33.2171 53.5555 33.6087 53.975 33.8604 54.003C34.5037 54.0869 35.5946 54.4785 35.5946 54.6463C35.5946 54.7582 35.9023 54.8701 36.2939 54.8981C36.6855 54.9261 36.9932 54.8142 36.9932 54.6463C36.9932 54.4226 37.4127 54.3666 38.2519 54.4505C39.0071 54.5624 39.4267 54.5065 39.3427 54.3387C39.2309 54.1708 39.6784 54.0869 40.3777 54.1149C41.049 54.1708 41.8322 54.0869 42.1119 53.975C42.3916 53.8631 42.979 53.8352 43.4265 53.9191C43.902 54.031 44.3216 53.975 44.4335 53.8072C44.5454 53.6114 45.0768 53.5555 45.6922 53.6394C46.3635 53.7233 46.7831 53.6674 46.7831 53.4995C46.7831 53.3037 47.2586 53.2758 48.0697 53.3876C48.769 53.4716 49.2725 53.4436 49.1886 53.3037C49.0767 53.1639 49.2725 53.1079 49.5802 53.1918C49.9158 53.2758 50.1116 53.4156 50.0277 53.4716C49.9438 53.5555 50.2235 53.9191 50.6431 54.3107C51.0627 54.7023 51.1466 54.8421 50.8389 54.6463C50.2795 54.2827 50.2795 54.2827 50.8109 54.8701C51.0906 55.2058 51.4543 55.4575 51.65 55.4295C51.8179 55.4016 51.9298 55.5414 51.8738 55.7372C51.8458 55.905 51.9018 56.0449 52.0137 56.0169C52.4332 55.933 53.2164 56.4085 53.0766 56.6323C52.9927 56.7721 53.0486 56.94 53.2164 57.0519C53.3563 57.1358 53.4961 57.4155 53.4961 57.6393C53.4961 57.891 53.3563 57.9749 53.1885 57.863C52.9367 57.7232 52.9088 58.1148 53.0766 59.2896C53.2164 60.4643 53.1885 60.828 52.9367 60.6881C52.713 60.5483 52.685 60.8839 52.8248 61.9188C52.9367 62.8139 52.9088 63.3454 52.7409 63.3454C52.5731 63.3454 52.4892 63.8488 52.6011 64.6041C52.685 65.3593 52.629 65.8628 52.4612 65.8628C52.2934 65.8628 52.2095 66.3663 52.3214 67.1215C52.3773 67.8208 52.3493 68.3802 52.2095 68.3802C51.8179 68.3802 51.9018 71.5409 52.3214 71.9605C52.5172 72.1842 52.6011 72.436 52.5172 72.5479C52.4053 72.7716 53.4402 73.8905 53.664 73.7506C53.9157 73.6108 54.643 73.7227 54.5311 73.8905C54.4472 74.0303 54.9506 74.1143 55.622 74.1143C56.2933 74.1143 56.8527 74.0024 56.8527 73.8625C56.8527 73.7506 57.0765 73.7227 57.3282 73.8066C57.6079 73.9185 57.7198 73.9185 57.6079 73.8066C57.496 73.6947 57.6918 73.415 57.9995 73.1912C58.7267 72.6877 59.3701 71.2053 59.3701 70.0584C59.3701 69.6109 59.454 69.2193 59.5939 69.2193C59.7057 69.2193 59.7337 68.576 59.6778 67.7928C59.6218 66.7299 59.6778 66.3942 59.9295 66.562C60.1812 66.7299 60.2092 66.4502 60.0973 65.4712C59.9855 64.6041 60.0134 64.1845 60.2092 64.1845C60.433 64.1845 60.461 63.681 60.3491 62.6461C60.2092 61.6112 60.2372 61.1077 60.461 61.1077C60.6288 61.1077 60.6847 60.8 60.6008 60.2685C60.4889 59.7651 60.5728 59.2616 60.7686 59.0098C60.9365 58.7861 61.0484 58.4504 60.9924 58.2546C60.8246 57.7791 61.5239 57.1078 61.9155 57.3595C62.1392 57.4994 62.1672 57.4435 62.0273 57.1917C61.8595 56.912 61.9155 56.8561 62.2511 56.9959C62.5308 57.0798 62.7266 57.0519 62.7266 56.884C62.7266 56.7162 62.8665 56.6882 63.0623 56.8001C63.2581 56.912 63.286 56.884 63.1742 56.6882C62.9504 56.3246 63.9574 55.7092 64.265 56.0169C64.3489 56.1288 64.4049 56.0449 64.3489 55.8211C64.321 55.5974 64.5448 55.2617 64.9084 55.0939C65.244 54.8981 65.6356 54.6463 65.7475 54.5345C65.8594 54.3946 65.7755 54.3946 65.5797 54.5065C65.3 54.6743 66.0832 53.3037 66.8384 52.2968C66.9782 52.1289 67.0901 51.6534 67.1461 51.1779C67.202 50.7304 67.3419 50.2828 67.4258 50.1989C67.6775 50.0311 67.6775 46.7585 67.4537 46.5627C67.1181 46.283 66.6426 44.5208 66.8384 44.2411C66.9503 44.0732 66.8664 44.0453 66.6426 44.1851C66.3629 44.353 66.3069 44.297 66.4468 43.9614C66.5307 43.7096 66.4468 43.4579 66.195 43.374C65.9433 43.2901 65.8594 43.0663 65.9713 42.8705C66.0832 42.6747 66.0832 42.5908 65.9713 42.7027C65.7195 42.9264 63.9574 41.2761 64.0692 40.9125C64.0972 40.7727 64.0413 40.7167 63.9014 40.8006C63.5937 40.9964 62.1113 39.9895 62.363 39.7377C62.4749 39.6258 62.363 39.6258 62.0833 39.7377C61.8315 39.8216 61.6078 39.7657 61.6078 39.5979C61.6078 39.43 61.412 39.3741 61.1882 39.458C60.9644 39.5699 60.7686 39.486 60.7686 39.3182C60.7686 39.1503 60.461 39.0944 59.9295 39.1783C59.3981 39.2902 59.0904 39.2342 59.0904 39.0384C59.0904 38.8706 58.6428 38.7308 58.1114 38.7308C57.5799 38.7308 57.1324 38.8706 57.1324 39.0384Z" fill="white"/>
<path d="M23.9304 107.679C23.4269 107.903 23.0074 107.987 23.0074 107.903C23.0074 107.791 22.8395 107.931 22.6717 108.182C22.4759 108.434 22.1402 108.658 21.9165 108.714C21.6927 108.77 21.2731 109.022 20.9934 109.301C20.7137 109.581 20.3221 109.721 20.1543 109.609C19.9865 109.497 19.9305 109.525 20.0144 109.693C20.2102 110.001 19.455 110.476 18.9515 110.364C18.8117 110.308 18.7557 110.392 18.8676 110.504C19.0914 110.7 18.2802 111.427 17.9166 111.343C17.6649 111.315 15.7349 113.161 15.8188 113.385C15.9307 113.721 14.9796 114.812 14.7838 114.588C14.672 114.476 14.588 114.504 14.644 114.672C14.7559 115.147 14.3083 115.93 14.0286 115.763C13.8888 115.679 13.7769 115.707 13.8048 115.846C13.8888 116.406 13.7489 116.797 13.4972 116.63C13.3293 116.546 13.3014 116.658 13.3853 116.881C13.4972 117.133 13.3573 117.385 13.1056 117.497C12.8538 117.581 12.7419 117.776 12.8259 117.916C12.9098 118.056 12.8259 118.168 12.658 118.168C12.4902 118.168 12.4343 118.308 12.5182 118.448C12.6021 118.588 12.5741 118.728 12.4063 118.728C12.2385 118.728 12.1825 118.895 12.2664 119.119C12.3503 119.315 12.2385 119.679 12.0147 119.874C11.8189 120.098 11.679 120.434 11.763 120.63C11.8189 120.797 11.735 120.965 11.5951 120.965C11.4273 120.965 11.3714 121.217 11.4553 121.525C11.5392 121.86 11.4553 122.084 11.2595 122.084C11.0637 122.084 11.0077 122.308 11.1196 122.671C11.2315 123.035 11.1756 123.343 11.0077 123.483C10.784 123.594 10.756 124.07 10.8679 124.825L11.0637 126H38.9509H66.8661L66.978 124.937C67.0619 124.378 67.006 123.818 66.8661 123.734C66.7263 123.65 66.6983 123.371 66.8102 123.119C66.9221 122.839 66.8381 122.643 66.6423 122.643C66.4465 122.643 66.3626 122.448 66.4745 122.224C66.5584 122 66.5025 121.804 66.3347 121.804C66.1668 121.804 66.0829 121.664 66.1389 121.469C66.1948 121.301 66.027 120.909 65.7193 120.602C65.4396 120.322 65.2718 119.902 65.3557 119.706C65.4116 119.511 65.2997 119.259 65.048 119.175C64.7962 119.063 64.6844 118.923 64.7683 118.811C64.8802 118.728 64.7403 118.476 64.4606 118.252C64.1809 118 64.1529 117.944 64.4047 118.056C64.6284 118.168 64.3207 117.776 63.7054 117.161C63.09 116.574 62.111 115.539 61.5516 114.895C60.9922 114.252 60.4607 113.805 60.3768 113.888C60.2929 113.972 60.153 113.833 60.0412 113.581C59.9572 113.329 59.7614 113.217 59.6216 113.301C59.4817 113.385 59.3698 113.301 59.3698 113.161C59.3698 112.993 59.1181 112.854 58.8104 112.854C58.5027 112.854 58.251 112.993 58.251 113.133C58.251 113.329 57.8874 113.357 57.272 113.245C56.6007 113.133 56.293 113.161 56.293 113.413C56.293 113.637 55.9014 113.721 55.0343 113.637C54.335 113.581 53.7476 113.665 53.6917 113.777C53.5518 114.196 45.9157 114.112 45.664 113.693C45.4962 113.413 45.4122 113.441 45.3004 113.721C45.2164 113.944 45.1325 113.972 45.1325 113.833C45.1046 113.665 44.6011 113.581 43.9857 113.581C43.3703 113.609 42.8669 113.525 42.8669 113.385C42.8669 113.217 42.4473 113.189 41.8879 113.301C41.2166 113.413 40.9089 113.385 40.9089 113.133C40.9089 112.91 40.6292 112.882 40.0698 112.993C39.5383 113.105 39.2306 113.077 39.2306 112.882C39.2306 112.686 38.9509 112.63 38.5313 112.742C38.0838 112.854 37.8321 112.798 37.8321 112.574C37.8321 112.406 37.7202 112.322 37.5803 112.406C37.2726 112.602 35.5664 112.294 35.7063 112.042C35.7622 111.958 35.4265 111.847 34.951 111.847C34.4755 111.819 34.028 111.679 33.972 111.511C33.9161 111.343 33.6923 111.287 33.4686 111.371C33.2448 111.455 33.077 111.371 33.077 111.203C33.077 111.035 32.8812 110.979 32.6574 111.063C32.4336 111.175 32.2378 111.091 32.2378 110.924C32.2378 110.756 32.07 110.7 31.8462 110.784C31.6504 110.868 31.2868 110.728 31.0351 110.504C30.8113 110.28 30.5596 110.14 30.4757 110.224C30.2799 110.42 28.3219 109.441 28.3219 109.161C28.3219 109.022 28.21 108.966 28.0701 109.077C27.7065 109.273 24.6856 107.791 24.8534 107.483C25.0492 107.203 24.9933 107.203 23.9304 107.679ZM17.6928 111.819C17.6928 111.875 17.2733 112.266 16.7978 112.742L15.8747 113.553L16.6859 112.63C17.4691 111.791 17.6928 111.595 17.6928 111.819Z" fill="white"/>
</svg>
