<svg width="70" height="115" viewBox="0 0 70 115" fill="none" xmlns="http://www.w3.org/2000/svg">
<path d="M29.6866 0.39373C29.219 0.713661 28.9237 0.738274 28.0377 0.516777C25.0106 -0.246147 22.4757 0.590614 21.6143 2.63329C21.1467 3.74076 21.1959 4.65135 21.762 5.78344C22.0327 6.32487 22.2542 6.81708 22.2542 6.91552C22.2542 7.01396 21.7374 7.26007 21.1221 7.48157C19.2271 8.12144 17.8735 9.05664 17.3567 10.0411C16.8891 11.0009 16.4953 14.3971 16.5199 17.6211C16.5445 19.2208 16.4953 19.4177 15.9785 19.6392C15.2402 19.9837 13.6897 21.3619 13.3452 21.9772C12.9514 22.7401 12.1639 26.0379 12.1639 26.9239C12.1639 27.3423 12.3608 28.1298 12.6069 28.6466C13.0252 29.6065 13.0252 29.6803 12.4838 31.5753C11.7455 34.1102 11.7701 36.0544 12.5576 39.1061L13.1729 41.5426L12.41 43.1669C11.7455 44.5451 11.6224 45.0619 11.6224 46.6123C11.647 48.4581 11.647 48.4581 10.7857 48.9996C9.57976 49.7379 8.76761 50.8946 8.44768 52.3712C8.20157 53.4541 8.20157 54.0693 8.57073 56.112L9.01372 58.5731L7.58631 61.4279C6.33117 63.8889 6.13429 64.4796 6.06045 65.9562C5.98662 67.0883 6.08506 68.0481 6.38039 68.8849L6.77416 70.1154L6.06045 71.0506C4.95298 72.4288 4.85454 73.3148 5.61746 74.9637C6.01123 75.8004 6.25734 76.7849 6.25734 77.4493C6.25734 78.6799 6.65111 79.5905 7.58631 80.4518C8.37385 81.2148 8.37385 81.5839 7.58631 83.5035C7.02027 84.8571 6.94643 85.2509 7.06949 86.9736C7.21715 89.3362 7.02027 89.8531 5.49441 90.8129C3.89473 91.8711 3.45174 92.8555 3.64862 94.9967L3.82089 96.6702L2.9103 96.8178C2.41809 96.9163 1.75361 97.2608 1.43367 97.5808C0.916849 98.0976 0.843018 98.4175 0.843018 99.8449C0.843018 100.756 0.96607 101.961 1.11373 102.503C1.45828 103.684 2.76264 105.038 3.77167 105.235C4.58382 105.407 4.58382 105.382 5.02681 107.893C5.44519 110.403 6.47883 111.387 8.57073 111.264C11.6224 111.117 11.6224 111.117 12.7053 111.929C14.6249 113.405 16.2984 114.045 18.3165 114.144C19.9408 114.218 20.2607 114.168 21.0237 113.651C21.5651 113.282 22.0081 112.716 22.2296 112.076C22.5249 111.215 22.5249 110.994 22.1558 110.231C21.9343 109.763 21.442 109.172 21.0237 108.951C20.5315 108.656 20.1623 108.089 19.7931 107.13C19.3255 105.875 19.3255 105.727 19.6701 105.333C19.8916 105.087 20.5068 104.841 21.0729 104.767C21.6389 104.693 22.3772 104.423 22.7218 104.152C23.4847 103.586 24.3953 101.838 24.5922 100.534C24.7399 99.5742 24.7891 99.525 26.0196 99.2297C27.5701 98.8851 28.5299 97.9253 28.9729 96.301C29.1944 95.415 29.4651 95.0459 30.1788 94.6029C31.3109 93.8892 31.6554 93.2739 31.6554 91.9203C31.6554 90.5422 30.9909 89.164 30.0311 88.5487C29.4159 88.1795 28.899 88.1057 27.4224 88.1549C26.4134 88.2042 25.429 88.1303 25.2813 88.0319C25.109 87.9088 24.9614 87.5151 24.9614 87.0967C24.9614 86.506 25.0598 86.383 25.5766 86.383C27.0286 86.383 28.3822 85.4232 28.8252 84.0696C28.9975 83.5035 29.2682 83.282 30.1788 83.0359C31.3601 82.6668 32.5168 81.707 32.8613 80.7718C33.1321 80.0581 33.1321 77.7447 32.8613 77.3263C32.7383 77.1294 32.8613 76.6126 33.1567 76.0219C34.2887 73.7332 33.9196 71.9612 32.0492 70.7061C30.9663 69.9677 30.228 68.8603 30.5233 68.3927C30.5972 68.245 30.8679 68.4173 31.114 68.8603C31.7046 69.8201 33.1321 70.3123 35.9623 70.5092C39.1124 70.7061 40.6137 70.017 41.6965 67.9251C42.6317 66.0793 42.4595 64.2581 41.2781 62.9537C40.8844 62.5107 40.9336 62.5107 42.2133 62.6584C44.7728 62.9537 50.4087 61.6002 53.8787 59.8774C56.8074 58.3762 59.7114 55.0291 60.2775 52.4943C60.4744 51.4606 60.0314 50.107 59.3177 49.5164C58.8993 49.1964 58.8009 48.9503 58.9485 48.6058C59.2438 47.8183 59.1946 46.7846 58.8009 46.0217C58.3333 45.1357 57.0781 44.4466 55.1093 44.0528C54.2971 43.8806 53.5588 43.7083 53.4604 43.6345C53.3619 43.5852 53.5096 43.2161 53.7803 42.8469C54.3956 42.0102 54.6417 40.312 54.2971 39.1061C54.1002 38.3924 54.1495 38.1463 54.5186 37.6787C55.1339 36.9158 55.4784 35.5868 55.4784 33.8887C55.4784 32.5843 55.5277 32.4859 56.0691 32.4859C56.9797 32.4859 58.2102 31.4769 59.1454 29.9264C60.2529 28.1052 61.1881 27.5638 63.2554 27.5638C65.9871 27.5638 67.9068 26.0133 69.0142 22.8385C69.7772 20.6974 69.9987 15.6277 69.408 13.8557C69.0142 12.6744 67.956 11.4193 66.8731 10.8532C66.0117 10.4102 63.6984 10.5333 62.6401 11.0501C61.4834 11.6654 60.942 12.4529 60.5728 14.151C60.3267 15.3323 60.2283 15.5046 59.5884 15.6523C59.1946 15.7261 58.3825 16.2921 57.7672 16.8828C56.709 17.9657 56.6843 17.9657 55.3554 17.818C54.5186 17.7196 54.0018 17.5227 54.0018 17.3504C54.0018 17.1781 54.5186 16.6121 55.1339 16.1199C56.6351 14.8893 57.2012 13.9049 57.2012 12.576C57.2012 11.0501 56.1183 10.0164 54.1249 9.59807C52.4513 9.27814 51.4669 8.85976 50.5317 8.09682C49.5965 7.35851 48.1937 7.0878 46.6679 7.40773C45.019 7.72767 44.7236 7.5554 42.5579 4.94668C41.4012 3.54388 40.5891 2.80556 39.6785 2.36257C38.2018 1.62425 37.562 1.57504 35.913 2.06725L34.7317 2.4364L33.575 1.20587C32.5414 0.0984039 32.3445 -3.8147e-05 31.3355 -3.8147e-05C30.7202 -3.8147e-05 29.9819 0.172234 29.6866 0.39373ZM27.8162 4.82362C28.776 5.09434 29.4405 5.14356 30.0557 4.9959C30.8433 4.82362 31.0155 4.87285 31.7046 5.56194C32.1476 6.00493 32.9844 6.49714 33.5504 6.66942C34.5349 6.96474 34.781 6.94013 36.1345 6.44792L37.6358 5.88188L38.694 7.06319C42.9271 11.7146 42.8778 11.69 46.028 11.69C47.8984 11.69 48.366 11.7638 48.809 12.1576C49.0797 12.4037 49.9165 12.8221 50.6055 13.0682C51.5161 13.3635 51.7868 13.5604 51.4915 13.6588C51.27 13.7573 50.7778 14.2741 50.384 14.8155C49.818 15.6277 49.695 16.1199 49.6703 17.3258C49.6457 18.1625 49.4981 19.1716 49.3012 19.6146C48.9074 20.599 49.1781 21.5342 50.1133 22.2233C50.7532 22.7155 50.8024 22.7155 52.8697 22.2725C54.9124 21.8541 55.0108 21.8541 55.9706 22.2725C57.718 23.06 59.0962 22.5432 60.3267 20.599C60.6466 20.0822 61.1142 19.6146 61.3357 19.5407C63.28 18.9255 64.1413 17.9164 64.4859 15.7753C64.6582 14.7663 65.1504 14.4217 65.4211 15.1601C65.7164 15.8984 65.5688 19.6146 65.1996 20.8451C64.5843 22.9124 64.1413 23.2815 62.1479 23.4538C59.2192 23.6999 57.1766 24.9305 55.7984 27.2438C55.2569 28.1544 55.0847 28.3021 54.3463 28.3021C53.1158 28.3021 52.0576 28.942 51.6392 29.9018C51.4423 30.394 51.2946 31.5753 51.2946 32.7566C51.2946 34.6516 51.2454 34.7747 50.5809 35.4145C49.6211 36.3005 49.4242 37.5064 49.9165 39.18C50.2856 40.4597 50.2856 40.4843 49.695 41.0996C48.2922 42.5516 48.0953 44.3728 49.1289 45.8494C49.6703 46.6123 51.4669 47.5968 52.7713 47.8675C54.494 48.212 54.5432 48.2366 54.4202 48.975C54.2233 49.9348 54.6663 51.3376 55.3308 51.879L55.9214 52.322L55.0601 53.4787C53.4358 55.6444 50.3102 57.2195 45.585 58.1793C43.0009 58.7207 42.2626 58.6961 42.0657 58.0809C41.8196 57.3179 40.5891 56.6042 39.3093 56.4566C37.9311 56.3089 36.2576 57.0226 35.4701 58.1055C34.2395 59.8036 34.8056 62.4861 36.8236 64.6519C37.4881 65.341 37.9311 65.9562 37.8327 66.0301C37.7342 66.1039 36.9467 66.1285 36.0853 66.1039C34.6333 66.0793 34.5349 66.0301 34.0673 65.2671C32.7137 63.0522 28.8252 63.3475 27.1025 65.8332C25.6504 67.9251 26.1673 71.1244 28.2592 73.1917L29.2928 74.2008L28.7268 75.0375C28.0623 75.9973 27.9885 77.2279 28.5299 78.2615L28.899 78.9752L27.9638 79.2213C26.9302 79.5166 25.0598 80.9687 24.8383 81.707C24.7399 81.9777 24.223 82.3222 23.5093 82.5683C22.8695 82.7652 22.0081 83.282 21.6143 83.7004C20.9498 84.3895 20.9006 84.611 20.8022 86.506C20.753 88.2534 20.8022 88.7702 21.2698 89.7054C21.9343 91.0836 23.0417 91.9696 24.6414 92.3387L25.8473 92.6341L25.3305 93.9384C24.8875 95.1443 24.7891 95.2428 24.0262 95.2428C22.1804 95.2428 21.1713 96.4241 20.5561 99.2297C20.3838 100.017 20.1131 100.657 19.9654 100.657C19.7931 100.657 19.2517 100.78 18.7595 100.903C16.1754 101.642 14.5757 104.816 15.4371 107.573L15.7816 108.705L14.1081 107.843C12.7791 107.154 12.1393 106.982 10.7857 106.933L9.11216 106.859L8.81683 105.432C8.32462 102.847 7.83241 102.158 6.13429 101.568C5.61746 101.371 5.14986 101.125 5.10064 100.977C5.05142 100.829 5.44519 100.46 5.96201 100.165C7.41403 99.3281 8.0293 98.0976 7.93086 96.0549L7.85702 94.3814L8.84145 93.6431C10.7365 92.1911 11.5978 90.0007 11.2779 87.4658C11.1548 86.4568 11.2533 85.8662 11.7701 84.4387C12.8037 81.5839 12.5576 79.4182 11.0318 77.9908C10.5642 77.5478 10.4411 77.2032 10.4411 76.2434C10.4411 75.5789 10.2689 74.693 10.0474 74.2746C9.6782 73.5855 9.70282 73.5117 10.1704 72.9948C11.2779 71.8135 11.4256 70.5584 10.6872 68.4911C10.4165 67.7036 10.195 66.7684 10.195 66.3746C10.195 65.9808 10.8103 64.455 11.5486 63.003C13.1483 59.8036 13.3452 58.7453 12.7791 55.7921C12.5576 54.6108 12.4346 53.4541 12.5084 53.208C12.5822 52.9865 13.1729 52.5189 13.8128 52.1743C15.6832 51.1653 15.9785 50.5992 15.9047 47.8921C15.8555 45.8002 15.9047 45.4803 16.5199 44.3974C17.3813 42.8469 17.4059 40.632 16.5938 37.7772C15.9539 35.513 16.0031 34.1348 16.8399 31.8706C17.652 29.6311 17.7012 28.942 17.1106 27.9822C16.6922 27.2931 16.643 26.9485 16.7907 25.6195C16.9629 24.0937 16.9629 24.0691 18.3165 23.1831C20.4084 21.7557 20.8268 20.9681 20.7776 18.4579C20.6791 15.0616 21.0237 12.0345 21.4913 11.8868C25.6504 10.4594 27.324 8.2691 26.3642 5.4635C25.9458 4.2822 25.9704 4.2822 27.8162 4.82362Z" fill="white"/>
</svg>
