<svg width="115" height="75" viewBox="0 0 115 75" fill="none" xmlns="http://www.w3.org/2000/svg">
<path d="M72.108 73.9249C72.5325 71.9532 73.0335 69.9934 73.3681 68.0047C74.5546 60.9296 75.7055 53.8483 76.8207 46.7607C77.0364 45.4021 77.0687 44.0027 77.1247 42.6203C77.1451 42.0887 77.2691 41.8679 77.8397 41.8696C84.1777 41.8883 90.5174 41.8493 96.8606 41.9104C99.6271 41.9376 101.171 43.5 101.026 46.2444C100.903 48.6017 100.476 50.947 100.121 53.289C99.9407 54.4871 99.682 55.6723 99.3469 56.8367C98.7745 58.8186 97.7046 60.3623 95.4985 60.8056C95.3287 60.8379 95.1164 61.2675 95.147 61.4849C95.7788 65.7816 96.239 70.1173 97.8218 74.2221C97.9016 74.4293 97.9509 74.6484 98.0358 74.932H90.2576C89.7396 71.8751 89.2301 68.8504 88.7105 65.8224C88.471 64.4332 88.1908 63.0507 87.9649 61.6598C87.8698 61.0773 87.6117 60.8667 87.0088 60.882C85.3971 60.9228 83.782 60.9194 82.1703 60.8905C81.6116 60.8803 81.3823 61.0603 81.2906 61.6259C80.5875 65.9429 79.5448 70.2141 79.5414 74.6246C79.5244 74.7323 79.4953 74.8377 79.4548 74.9388H63.4467C63.8933 71.7698 63.141 68.7604 62.4464 65.6678H59.0396C56.5788 65.6678 54.1145 65.6814 51.6554 65.6593C51.1629 65.6593 50.8878 65.8156 50.6687 66.2537C49.3271 68.9285 47.7731 71.5048 47.0429 74.4531C46.9914 74.5801 46.9101 74.6927 46.8057 74.7814C46.7013 74.8702 46.577 74.9323 46.4434 74.9626C44.7451 75.0033 43.057 74.9846 41.2075 74.9846C41.8019 74.1525 42.3963 73.4681 42.8277 72.6987C44.8775 69.0882 46.9359 65.481 48.8974 61.8297C51.7947 56.424 54.5969 50.9606 57.4823 45.5515C57.8423 44.8722 57.9051 44.3322 57.5536 43.6698C57.292 43.179 57.1222 42.6373 56.8624 41.997C57.2173 41.9664 57.4789 41.9257 57.7421 41.9257C59.8921 41.9172 62.0439 41.9257 64.1956 41.9019C64.7476 41.9019 64.9819 42.0497 65.094 42.6237C66.0213 47.4197 66.9791 52.2122 67.9369 57.0031C68.8523 61.5698 69.7541 66.1399 70.7187 70.6965C70.9531 71.8088 71.4151 72.8737 71.7717 73.9589L72.108 73.9249ZM82.2586 55.923C82.6493 55.9434 82.9006 55.9672 83.1503 55.9672C85.9807 55.974 88.8112 55.9785 91.6417 55.9808C92.7864 55.9808 93.0309 55.8024 93.2279 54.6748C93.6236 52.3923 93.9939 50.1064 94.3573 47.8188C94.5016 46.9085 94.3573 46.72 93.4725 46.72C90.4733 46.72 87.4758 46.7556 84.4715 46.7556C83.9383 46.7556 83.7039 46.9798 83.6343 47.4774C83.5392 48.1465 83.422 48.814 83.3133 49.4831C82.9685 51.5907 82.6204 53.7033 82.2586 55.9162V55.923ZM53.5949 60.7445H61.5378C60.7871 57.1594 60.062 53.6898 59.33 50.215L59.15 50.1862L53.5949 60.7445Z" fill="#170EFF"/>
<path d="M26.9672 42.0361C26.8789 43.7973 26.7974 45.5601 26.7023 47.3144C25.437 47.1055 24.2822 46.8049 23.1138 46.7489C21.1692 46.6521 19.2162 46.7132 17.2682 46.6979C15.9096 46.686 14.551 46.6487 13.1923 46.6385C12.6557 46.6385 12.119 46.6623 11.5824 46.6962C11.0083 46.7336 10.6262 47.0121 10.5277 47.6065C10.2356 49.3897 9.9418 51.1729 9.65819 52.9578C9.56988 53.5217 9.80085 53.7849 10.4088 53.7815C13.7171 53.7702 17.0265 53.7742 20.3371 53.7934C20.9566 53.793 21.5743 53.8631 22.178 54.0023C23.9069 54.4269 24.9377 55.6394 24.9224 57.5093C24.8843 59.1457 24.7339 60.7777 24.4724 62.3936C24.1327 64.7117 23.7099 67.0197 23.2751 69.3226C23.1233 69.9833 22.9107 70.6286 22.6399 71.2501C21.621 73.84 19.5915 74.9677 16.9303 74.9864C11.5824 75.0221 6.23104 74.9779 0.883112 74.9643C0.635161 74.9643 0.387211 74.9422 0 74.9236C0.108691 73.086 0.213985 71.2994 0.320977 69.4703C3.81267 70.6116 7.30945 70.0155 10.7604 70.1497C12.2888 70.2057 13.8173 70.1072 15.3458 70.1378C16.0743 70.1531 16.4683 69.866 16.5855 69.168C16.9371 67.0791 17.292 64.9902 17.6334 62.8996C17.7455 62.2084 17.2937 62.1015 16.7537 62.1015C13.7545 62.1015 10.7553 62.0913 7.75271 62.0641C7.04742 62.0562 6.34339 62.0023 5.64512 61.9027C3.69888 61.6276 2.30628 60.145 2.43705 58.1665C2.60688 55.6377 2.95673 53.1158 3.32696 50.6057C3.54357 49.0678 3.87221 47.5477 4.31027 46.0577C5.08978 43.4695 6.91884 42.0022 9.62253 41.9665C15.3084 41.8901 21.0011 41.9427 26.6836 41.9461C26.7814 41.9645 26.8767 41.9947 26.9672 42.0361Z" fill="#170EFF"/>
<path d="M100.386 0C101.016 5.20527 101.645 10.4122 102.287 15.7194H114.543C113.492 16.8233 112.605 17.7573 111.716 18.6897C108.937 21.5904 106.149 24.4826 103.394 27.407C103.148 27.7146 103.027 28.103 103.054 28.4957C103.394 32.8042 103.768 37.1111 104.136 41.4163C104.269 42.6257 104.318 43.8429 104.284 45.0591C101.531 41.6761 98.7796 38.2914 95.974 34.8405C94.5152 36.0191 93.1345 37.1315 91.7555 38.2489C90.8316 38.9962 89.9145 39.7502 88.989 40.4958C88.8218 40.6464 88.6292 40.766 88.42 40.849C87.4231 41.1666 87.041 40.8898 86.9391 39.8301C86.8508 38.9317 86.7846 38.0282 86.6436 37.1366C86.5264 36.3927 86.7625 35.8764 87.3076 35.3534C90.7042 32.1045 94.055 28.82 97.4227 25.5491C97.6739 25.3452 97.8696 25.0812 97.9916 24.7815C97.7097 24.7679 97.4295 24.7424 97.1425 24.7424C94.5679 24.7424 91.9932 24.7305 89.4186 24.7526C88.8939 24.7526 88.5253 24.6252 88.1976 24.1871C87.4877 23.236 86.6521 22.3733 85.9898 21.3883C85.6212 20.8313 85.4327 20.1146 85.3105 19.4438C85.1508 18.5946 85.1576 17.703 85.0557 16.8352C84.9351 15.8162 84.9827 15.7262 86.0475 15.7228C88.3113 15.7228 90.5752 15.6939 92.8407 15.7398C93.6151 15.7551 94.0159 15.5547 94.3216 14.7701C96.1897 9.95709 98.1326 5.173 100.052 0.380417C100.103 0.254744 100.162 0.130769 100.221 0.00679333L100.386 0Z" fill="#170EFF"/>
<path d="M74.6537 40.922C74.8389 42.1396 75.046 43.1892 75.1344 44.2489C75.1666 44.6208 75.0257 45.1405 74.7675 45.3834C73.02 47.0205 71.2198 48.6101 69.4366 50.2031L69.2107 50.0825C69.3109 49.7633 69.3958 49.4389 69.5096 49.1264C71.0992 44.8093 72.6786 40.4872 74.2988 36.182C74.5383 35.5469 74.5756 35.0578 74.0305 34.6043C73.4853 34.1509 73.4768 33.6991 73.9931 33.193C74.2852 32.906 74.5026 32.5477 74.8711 32.0739C74.039 32.0739 73.3936 32.1197 72.7601 32.0552C72.4375 32.0212 72.0248 31.8718 71.8397 31.6306C70.481 29.8678 69.1547 28.0642 67.8266 26.2776C67.7825 26.1723 67.7534 26.0614 67.74 25.9481H72.0672C73.538 25.9481 75.0087 25.9481 76.4828 25.9481C77.8414 25.9481 78.0435 25.8343 78.5428 24.5317C79.8335 21.1589 81.0903 17.7776 82.3691 14.3997C82.775 13.3247 83.1758 12.2497 83.7702 11.1917C84.1506 16.0657 84.531 20.9415 84.9182 25.9006H95.6939C95.5395 26.1151 95.3739 26.3215 95.198 26.5187C92.2599 29.3787 89.3179 32.2346 86.372 35.0866C85.91 35.5316 85.6689 35.9511 85.7657 36.6304C85.9355 37.8005 85.9576 38.991 86.1053 40.1662C86.197 40.8778 85.8064 40.888 85.3071 40.8897C82.1109 40.8965 78.9148 40.9078 75.7186 40.9237L74.6537 40.922Z" fill="#170EFF"/>
<path d="M30.5253 74.9284C30.7342 74.3663 30.9139 73.7938 31.0636 73.2131C31.7039 70.1171 32.3747 67.0262 32.9232 63.9133C33.8013 58.9339 34.5927 53.9392 35.418 48.9496C35.5318 48.2601 35.6286 47.5689 35.7577 46.7418C32.9385 46.6043 30.2637 46.6671 27.4802 47.6759C28.0509 45.7483 28.5552 43.9702 29.1327 42.2159C29.1921 42.0342 29.6863 41.9068 29.9818 41.9051C33.6314 41.8847 37.2845 41.8949 40.9341 41.8932C43.8778 41.8932 46.8215 41.8881 49.7652 41.8779H50.8946C50.8029 43.8004 50.7146 45.6142 50.628 47.4229C49.1776 47.1817 47.7986 46.8913 46.406 46.7435C45.3072 46.6431 44.2024 46.6266 43.1011 46.6943C42.8769 46.7045 42.522 47.1053 42.4778 47.3736C41.7323 51.7739 41.036 56.1826 40.3108 60.5863C39.7776 63.8131 39.1781 67.0398 38.694 70.2785C38.4699 71.7832 38.4495 73.3184 38.3289 74.9301L30.5253 74.9284Z" fill="#170EFF"/>
<path d="M6.39087 38.1623C7.20775 33.0674 7.56779 28.0438 7.84461 22.9354C7.91933 22.9354 8.16728 22.9082 8.41354 22.9082C11.1308 22.9082 13.8481 22.8895 16.5653 22.9082C18.639 22.9235 19.5 23.8796 19.3285 25.9482C19.2503 26.9043 19.3692 27.9725 18.9752 28.786C18.2467 30.289 18.9175 31.7784 18.678 33.2491C18.532 34.139 18.5082 35.0527 18.3384 35.9324C18.0225 37.4235 16.9797 38.1589 15.4784 38.1521C12.79 38.1368 10.1016 38.1521 7.41324 38.1623H6.39087ZM13.0669 31.5202C12.4742 31.5202 11.8781 31.544 11.2921 31.5202C10.8234 31.4948 10.6128 31.7003 10.5857 32.1384C10.5092 33.0895 10.4328 34.0405 10.3496 34.9899C10.3088 35.4603 10.5194 35.6505 10.9848 35.6437C11.7456 35.6318 12.5132 35.6556 13.2656 35.6437C15.0403 35.6335 15.0403 35.6301 15.1897 33.8877C15.3952 31.5202 15.3952 31.5202 13.0669 31.5202ZM15.9166 25.42H11.1919C11.0799 26.675 10.9729 27.8689 10.8523 29.1562C12.3807 29.1562 13.7767 29.1681 15.1795 29.1375C15.2803 29.1163 15.374 29.0701 15.4521 29.003C15.5302 28.9359 15.5901 28.8501 15.6262 28.7537C15.7536 27.6736 15.8232 26.5833 15.9166 25.4217V25.42Z" fill="#170EFF"/>
<path d="M64.6014 22.6347C64.7441 23.6842 64.8918 24.7321 65.0311 25.7816C65.3011 27.7924 65.5797 29.8032 65.8259 31.8173C65.8972 32.3931 66.1656 32.5374 66.7175 32.5272C68.4973 32.495 70.2839 32.5153 72.062 32.5153H73.098C72.7855 32.8669 72.6208 33.0758 72.4323 33.2575C70.6683 34.9716 68.9015 36.6829 67.1319 38.3914C66.5392 38.9655 65.6731 39.4427 66.5426 40.5992H57.5705C57.5705 40.5058 57.5399 40.3631 57.596 40.2884C58.3008 39.3476 57.7658 38.7056 57.1561 37.9753C55.8145 36.3756 54.556 34.7061 53.1804 32.9603C53.4946 32.9144 53.6899 32.8652 53.8988 32.8584C55.8773 32.7973 57.8558 32.7225 59.8428 32.6886C60.3846 32.6886 60.6257 32.4831 60.8142 31.9838C61.9113 29.0831 63.0475 26.1977 64.1718 23.3089C64.2618 23.0779 64.3637 22.8487 64.4588 22.6194L64.6014 22.6347Z" fill="#170EFF"/>
<path d="M14.6224 13.1925L14.9315 11.7014C16.6298 11.7014 18.4096 11.6539 20.1775 11.7456C20.4934 11.7625 21.0267 12.3485 21.0267 12.6898C21.0658 13.6663 20.8993 14.6513 20.794 15.6313C20.7801 15.8031 20.7026 15.9636 20.5766 16.0813C19.0804 17.1444 20.4408 18.2483 20.3762 19.3267L20.614 19.3896C20.7635 19.1365 20.9333 18.8937 21.0607 18.6287C21.9692 16.7453 22.888 14.8772 23.7575 12.9683C23.9138 12.6287 23.8628 12.1871 23.9274 11.6946C23.8577 11.7439 23.8968 11.6946 23.941 11.6946C25.877 11.5825 25.8838 11.5808 26.3882 13.4507C26.8807 15.2763 27.3528 17.1071 27.8419 18.9344C27.8698 19.0393 27.9199 19.1369 27.9887 19.2207C28.0576 19.3045 28.1436 19.3725 28.241 19.4202C28.5297 16.8727 28.8185 14.3389 29.1208 11.6708C29.6625 11.6708 30.279 11.6182 30.8785 11.698C31.0993 11.7269 31.3591 12.0377 31.4644 12.2771C32.2133 13.9754 32.9249 15.6941 33.8573 17.3975L34.4517 11.7201H35.7033C35.5063 13.3657 35.3076 14.9995 35.1157 16.635C35.0121 17.5333 34.9578 18.4385 34.8049 19.3284C34.7489 19.6545 34.4534 20.215 34.2955 20.2031C33.6399 20.1555 32.784 20.7126 32.3696 19.7021C31.7469 18.1838 31.1146 16.6695 30.4726 15.1591C30.3785 14.9004 30.2057 14.6776 29.9784 14.5223C29.7729 16.3904 29.5657 18.2483 29.3517 20.1878H26.0112C25.95 20.0893 25.9008 20.0451 25.8957 19.9959C25.6732 17.8594 25.0466 17.3958 22.9118 17.924C22.6044 17.9987 22.2512 18.4895 22.1883 18.8376C21.9489 20.147 21.1082 20.3661 19.9941 20.2302C19.9659 20.2285 19.9375 20.2285 19.9092 20.2302C18.6644 20.2489 18.6627 20.2506 18.3808 19.055C18.2315 18.5413 18.1135 18.0189 18.0275 17.4909C17.9341 16.6774 17.4688 16.4176 16.7555 16.6044C16.6172 16.651 16.4917 16.7291 16.3889 16.8326C16.286 16.936 16.2086 17.062 16.1628 17.2005C16.0184 18.1447 15.9675 19.1043 15.8775 20.1317H13.9431C14.1696 17.8107 14.3994 15.4897 14.6326 13.1687L14.6224 13.1925ZM19.0669 15.2305L19.2842 13.0465H16.6247C16.5466 13.775 16.4702 14.4798 16.3904 15.2305H19.0669ZM25.1518 16.4057C24.9447 15.6381 24.7578 14.9519 24.5727 14.2641H24.3689L23.3347 16.4057H25.1518Z" fill="#170EFF"/>
<path d="M52.6528 31.9396C50.8611 31.8733 49.1475 31.8241 47.4339 31.7375C46.8089 31.7052 46.5083 31.8716 46.4999 32.5645C46.4648 33.3557 46.3866 34.1443 46.2655 34.9269C46.2077 35.3888 46.3419 35.6164 46.8463 35.6062C48.7874 35.562 50.7269 35.5366 52.8328 35.5009C52.6884 36.2091 52.5237 37.0939 52.3097 37.9668C52.2859 38.067 51.9802 38.1502 51.8002 38.1502C48.6618 38.1621 45.525 38.1587 42.4426 38.1587C42.8944 33.0825 43.3393 28.0692 43.8013 22.9624H53.5698V25.5268H47.0688C46.972 26.6749 46.8718 27.8756 46.7529 29.2817C47.8415 29.2817 48.8435 29.314 49.8438 29.2716C50.8441 29.2291 51.7917 29.1102 52.8447 29.0168C52.7801 30.0103 52.7139 31.0106 52.6528 31.9396Z" fill="#170EFF"/>
<path d="M40.6064 22.9253H42.984C42.8396 23.8509 42.663 24.7187 42.5764 25.5967C42.2928 28.5212 42.0448 31.4507 41.7748 34.3769C41.7384 34.9397 41.6658 35.4996 41.5574 36.0531C41.2348 37.4593 40.3449 38.142 38.8826 38.1471C36.8447 38.1539 34.8067 38.1539 32.7688 38.1471C30.9006 38.1471 29.9853 37.1977 30.1313 35.3364C30.3878 32.0689 30.7121 28.8065 30.9805 25.539C31.0484 24.7017 30.9907 23.8526 30.9907 22.9474H34.7982C34.4008 27.1167 34.0034 31.2877 33.5907 35.6285H36.1127C37.0179 35.6285 37.9231 35.6081 38.83 35.6387C39.3632 35.6574 39.5704 35.4689 39.6146 34.922C39.9271 30.9582 40.2667 26.9927 40.6064 22.9253Z" fill="#170EFF"/>
<path d="M19.1077 38.1438C19.8396 33.0048 20.2285 28.0118 20.4748 22.9441H24.1329C23.7219 27.144 23.3126 31.3167 22.8881 35.6541C24.1227 35.6541 25.2436 35.6881 26.3611 35.6456C27.4785 35.6032 28.5875 35.4877 29.7967 35.3977C29.6439 36.1687 29.5029 36.9924 29.3008 37.8025C29.2512 37.8929 29.1803 37.97 29.0942 38.0268C29.008 38.0836 28.9093 38.1185 28.8066 38.1285C25.5816 38.154 22.3616 38.1438 19.1077 38.1438Z" fill="#170EFF"/>
<path d="M63.2497 13.3485C63.2699 12.9059 63.3267 12.4656 63.4196 12.0323C63.4637 11.8744 63.7813 11.6927 63.9749 11.6927C67.5668 11.674 71.157 11.6791 74.8202 11.6791V13.0089C73.8012 13.0089 72.823 13.0292 71.8397 13.0089C71.3302 12.9936 71.1349 13.194 71.1298 13.6984C71.1298 14.1739 71.0415 14.6494 70.9871 15.1844H74.3532C74.2999 15.6588 74.2433 16.1501 74.1833 16.6585H70.8173C70.7358 17.3531 70.6577 18.0171 70.5694 18.7678H74.1188C74.1494 20.1808 74.0882 20.247 72.7364 20.2487H68.4907C68.7471 18.0919 68.9254 16.0692 69.2498 14.0686C69.3941 13.1821 68.9322 13.0989 68.3378 13.0649C67.7757 13.0343 67.1201 12.7253 67.0386 13.8054C66.8807 15.9129 66.5682 18.0103 66.3117 20.1808H64.4198C64.6967 17.8303 64.9718 15.4918 65.269 12.9036L63.2446 13.3332L63.2497 13.3485Z" fill="#170EFF"/>
<path d="M63.2514 13.3213C63.0873 13.7897 62.9545 14.2686 62.854 14.7547C62.7352 15.563 62.6214 16.3392 61.6228 16.6652L62.5619 20.2317C62.0185 20.2317 61.458 20.2877 60.9197 20.2028C60.7074 20.1705 60.4442 19.8631 60.3745 19.6169C60.1371 18.8344 59.9533 18.0366 59.8243 17.2291C59.7071 16.4496 59.1636 16.6313 58.6762 16.5888C58.0937 16.5396 58.0648 16.8979 58.0275 17.3293C57.9511 18.2548 57.8356 19.177 57.7286 20.1688H55.801C56.1135 17.3581 56.4209 14.5645 56.7402 11.6892C58.4741 11.6892 60.2472 11.6519 62.0168 11.7249C62.3344 11.7368 62.6808 12.1665 62.9271 12.4739C63.1071 12.7014 63.1461 13.0428 63.248 13.3383C63.2497 13.3485 63.2514 13.3213 63.2514 13.3213ZM61.1659 13.0088C60.3457 13.0088 59.5916 12.9901 58.8393 13.0258C58.7525 13.0503 58.6731 13.096 58.6085 13.1589C58.5438 13.2217 58.4959 13.2998 58.469 13.3858C58.3739 13.9616 58.3366 14.5475 58.2669 15.2404C59.0516 15.2404 59.7801 15.2692 60.5019 15.22C60.6118 15.1944 60.7135 15.142 60.798 15.0672C60.8825 14.9925 60.9471 14.8979 60.9859 14.792C61.0895 14.2469 61.1048 13.6881 61.1659 13.0088Z" fill="#170EFF"/>
<path d="M51.9069 20.2337C51.3975 20.2337 50.888 20.2507 50.3785 20.2337C49.2474 20.1913 48.8262 19.7803 48.9078 18.6475C49.013 17.1853 49.154 15.7231 49.3697 14.2727C49.7535 11.6998 49.8163 11.676 52.4011 11.676C53.1076 11.676 53.8124 11.676 54.5189 11.676C55.5515 11.6879 56.0712 12.1668 55.9794 13.1943C55.8096 15.0454 55.5939 16.8932 55.3358 18.7324C55.1931 19.7514 54.6412 20.176 53.595 20.2286C53.0312 20.2558 52.4657 20.2286 51.8968 20.2286L51.9069 20.2337ZM50.7334 18.8275C51.5724 18.8275 52.2772 18.87 52.9718 18.8021C53.1739 18.7834 53.4728 18.476 53.5118 18.262C53.6817 17.3755 53.77 16.4737 53.8634 15.5753C53.9517 14.7499 54.0077 13.9212 54.0841 13.0075C53.235 13.0075 52.5319 12.9769 51.8339 13.0279C51.7209 13.0514 51.6157 13.1034 51.5284 13.1789C51.441 13.2543 51.3743 13.3508 51.3346 13.4592C51.1138 15.1932 50.9389 16.9356 50.7334 18.8275Z" fill="#170EFF"/>
<path d="M35.4725 18.812C36.6052 18.812 37.6429 18.7644 38.6754 18.829C39.4448 18.8748 39.764 18.5929 39.7454 17.8423C39.7569 17.5317 39.7864 17.2221 39.8337 16.915C38.8979 16.915 38.0301 16.9337 37.164 16.915C36.1942 16.8895 35.8053 16.5346 35.8512 15.5564C35.908 14.6294 36.0243 13.707 36.1993 12.7949C36.2357 12.4933 36.3808 12.2153 36.6075 12.013C36.8341 11.8108 37.1268 11.6981 37.4306 11.6961C38.9506 11.6469 40.4722 11.6808 42.0567 11.6808V13.0089H39.2919C37.7787 13.0089 37.7787 13.0089 37.8518 14.7174C38.6771 14.7174 39.5144 14.7072 40.3499 14.7174C41.4742 14.7327 41.8326 15.0757 41.7748 16.2068C41.7273 17.1324 41.5744 18.0528 41.4674 18.975C41.3774 19.746 40.8849 20.1638 40.1682 20.191C38.7587 20.2555 37.344 20.2504 35.9327 20.2301C35.7764 20.2301 35.5353 19.9549 35.4928 19.7715C35.4493 19.4535 35.4424 19.1315 35.4725 18.812Z" fill="#170EFF"/>
<path d="M43.8333 20.2078H41.8684C42.186 17.4005 42.5036 14.5933 42.8313 11.6909C44.5483 11.6909 46.3179 11.6552 48.0859 11.7113C48.2305 11.7102 48.3736 11.74 48.5058 11.7986C48.638 11.8572 48.7562 11.9432 48.8526 12.051C48.949 12.1588 49.0213 12.2858 49.0648 12.4237C49.1083 12.5616 49.122 12.7072 49.1048 12.8508C49.0454 13.8885 48.9503 14.9295 48.794 15.957C48.6616 16.8333 48.074 17.2596 47.1858 17.2613C46.3944 17.2613 45.6013 17.2969 44.8082 17.2613C44.2528 17.2324 44.0388 17.4736 44.0049 17.9813C43.959 18.6793 43.8979 19.379 43.8333 20.2078ZM44.2817 15.9145C45.1105 15.9145 45.8101 15.9247 46.5064 15.9145C46.6559 15.9145 46.9208 15.8194 46.9344 15.7447C47.0601 14.9176 47.1433 14.0838 47.2401 13.2516C46.5404 13.1735 45.8424 13.0597 45.1427 13.0393C44.9423 13.0393 44.5823 13.2652 44.5534 13.4333C44.4158 14.1976 44.3717 14.9754 44.28 15.9145H44.2817Z" fill="#170EFF"/>
<path d="M14.6396 13.1787C14.108 13.1192 13.573 13.0088 13.0466 13.0309C12.8207 13.0445 12.4539 13.3519 12.425 13.5625C12.1702 15.4595 11.9019 17.3633 11.7966 19.2722C11.7491 20.1111 11.457 20.2911 10.7403 20.2164C10.438 20.1824 10.1306 20.1841 9.78074 20.1672C10.061 17.7777 10.3327 15.451 10.6197 12.9936L8.61401 13.1175C8.66326 11.7164 8.68704 11.6893 9.9234 11.691C11.3635 11.691 12.8031 11.691 14.2422 11.691C14.336 11.7024 14.4291 11.72 14.5207 11.7436C14.5512 12.2073 14.5835 12.6998 14.6158 13.1923L14.6396 13.1787Z" fill="#170EFF"/>
</svg>
