<svg width="127" height="126" viewBox="0 0 127 126" fill="none" xmlns="http://www.w3.org/2000/svg">
<mask id="path-1-inside-1_47_359" fill="white">
<path d="M15.3837 0.41819C14.2515 1.00892 13.513 1.74734 13.0208 2.83035C12.5777 3.76568 12.5531 4.92254 12.5531 24.5398V45.2894H7.26111C1.62452 45.2894 0.836873 45.437 0.246139 46.4954C0.0984557 46.8154 0 50.9506 0 58.0886V69.2141L0.763031 69.9279L1.52606 70.6417H7.03958H12.5531V82.4072C12.5531 91.982 12.6269 94.2711 12.8977 94.6403C13.1684 95.0341 13.1684 95.231 12.8977 95.9202C12.6516 96.4863 12.5531 97.8893 12.5531 100.769C12.5531 104.24 12.6269 105.027 13.0454 106.16C13.9069 108.473 16.4175 110.516 18.8543 110.91L19.888 111.058L20.0111 115.537C20.1588 121.002 20.3803 121.839 22.3741 123.832C24.5401 125.998 24.9339 126.072 33.278 125.974C39.973 125.9 40.293 125.875 41.2775 125.334C42.7544 124.546 44.0097 123.217 44.7727 121.617C45.3634 120.313 45.4127 119.993 45.4865 115.611L45.585 111.009H63.0116H80.4383L80.5367 115.611C80.6106 119.993 80.6598 120.313 81.2505 121.617C82.0136 123.217 83.2689 124.546 84.7457 125.334C85.7303 125.875 86.0503 125.9 92.7452 125.974C101.089 126.072 101.483 125.998 103.649 123.832C105.643 121.839 105.864 121.002 106.012 115.537L106.135 111.058L107.169 110.91C109.606 110.516 112.116 108.473 112.978 106.16C113.396 105.027 113.47 104.24 113.47 100.769C113.47 97.8893 113.372 96.4863 113.126 95.9202C112.855 95.231 112.855 95.0341 113.126 94.6403C113.396 94.2711 113.47 91.982 113.47 82.4072V70.6417H118.984H124.497L125.26 69.9279L126.023 69.2141V58.0886C126.023 50.9506 125.925 46.8154 125.777 46.4954C125.186 45.437 124.399 45.2894 118.762 45.2894H113.47V24.6137C113.47 6.49783 113.421 3.81491 113.101 3.00265C112.609 1.84579 111.87 1.05815 110.713 0.467415C109.827 0.0243683 108.523 -0.00025177 62.9624 -0.00025177C20.7495 0.0243683 16.0483 0.0489807 15.3837 0.41819ZM108.301 35.8622V66.5804L107.243 67.245L106.209 67.9095L106.061 49.1537C105.963 32.8347 105.889 30.2503 105.544 29.2657C104.265 25.6228 102 22.9399 98.8249 21.3646C96.0681 20.0109 97.7172 20.0601 63.0116 20.0601C28.306 20.0601 29.9551 20.0109 27.1984 21.3646C24.0232 22.9399 21.7587 25.6228 20.4788 29.2657C20.1342 30.2503 20.0603 32.8347 19.9619 49.1537L19.8142 67.9095L18.7804 67.245L17.722 66.5804V35.8622V5.16867H63.0116H108.301V35.8622ZM96.2896 26.0413C97.7665 26.7797 99.2433 28.2565 99.9817 29.7334L100.548 30.8902L100.622 53.215L100.671 75.5645H98.9233H97.1757L94.2221 78.4443C92.5976 80.0442 91.0961 81.6933 90.9238 82.1364C90.6777 82.7025 90.5792 84.0809 90.5792 86.7638V90.579H63.0116H35.444V86.7638C35.444 84.0809 35.3456 82.7025 35.0994 82.1364C34.9271 81.6933 33.4257 80.0442 31.8012 78.4689L28.8475 75.5645H27.0999H25.3523V53.5596C25.3523 29.4872 25.2785 30.5702 26.8046 28.5027C27.666 27.3458 29.1429 26.2136 30.4474 25.7213C31.2351 25.4259 36.3301 25.4013 63.2578 25.4259L95.1328 25.4752L96.2896 26.0413ZM12.5531 57.9655V65.4728H8.86101H5.16892V57.9655V50.4583H8.86101H12.5531V57.9655ZM120.854 57.9655V65.4728H117.162H113.47V57.9655V50.4583H117.162H120.854V57.9655ZM19.3958 74.1123L19.9373 74.4568V82.5056V90.579H18.8296H17.722V81.8164V73.0539L18.2881 73.3985C18.5835 73.5954 19.0758 73.9153 19.3958 74.1123ZM108.301 81.841V90.579H107.194H106.086V82.5056V74.4568L107.144 73.7923C107.711 73.4231 108.203 73.1031 108.252 73.1031C108.277 73.1031 108.301 77.0413 108.301 81.841ZM28.2568 82.5302L30.029 84.3024V87.453V90.579H27.6907H25.3523V85.6562V80.7334H25.9185C26.2877 80.7334 27.0753 81.3488 28.2568 82.5302ZM100.671 85.6562V90.579H98.3326H95.9943V87.453V84.3024L97.7665 82.5302C98.9479 81.3488 99.7356 80.7334 100.105 80.7334H100.671V85.6562ZM107.292 96.5109C108.129 97.2986 108.301 98.0124 108.301 100.868C108.301 104.043 107.932 105.052 106.578 105.52C105.323 105.938 20.7003 105.938 19.445 105.52C18.0912 105.052 17.722 104.043 17.722 100.868C17.722 98.0124 17.8943 97.2986 18.7312 96.5109L19.2973 95.994H63.0116H106.726L107.292 96.5109ZM40.1207 115.119C40.0961 121.051 40.3668 120.854 32.7365 120.854C26.8292 120.854 26.2138 120.731 25.6477 119.5C25.4508 119.082 25.3523 117.457 25.3523 114.947V111.009H32.7365H40.1207V115.119ZM100.671 114.947C100.671 117.457 100.572 119.082 100.376 119.5C99.8094 120.731 99.1941 120.854 93.2867 120.854C85.6564 120.854 85.9272 121.051 85.9026 115.119V111.009H93.2867H100.671V114.947Z"/>
</mask>
<path d="M15.3837 0.41819C14.2515 1.00892 13.513 1.74734 13.0208 2.83035C12.5777 3.76568 12.5531 4.92254 12.5531 24.5398V45.2894H7.26111C1.62452 45.2894 0.836873 45.437 0.246139 46.4954C0.0984557 46.8154 0 50.9506 0 58.0886V69.2141L0.763031 69.9279L1.52606 70.6417H7.03958H12.5531V82.4072C12.5531 91.982 12.6269 94.2711 12.8977 94.6403C13.1684 95.0341 13.1684 95.231 12.8977 95.9202C12.6516 96.4863 12.5531 97.8893 12.5531 100.769C12.5531 104.24 12.6269 105.027 13.0454 106.16C13.9069 108.473 16.4175 110.516 18.8543 110.91L19.888 111.058L20.0111 115.537C20.1588 121.002 20.3803 121.839 22.3741 123.832C24.5401 125.998 24.9339 126.072 33.278 125.974C39.973 125.9 40.293 125.875 41.2775 125.334C42.7544 124.546 44.0097 123.217 44.7727 121.617C45.3634 120.313 45.4127 119.993 45.4865 115.611L45.585 111.009H63.0116H80.4383L80.5367 115.611C80.6106 119.993 80.6598 120.313 81.2505 121.617C82.0136 123.217 83.2689 124.546 84.7457 125.334C85.7303 125.875 86.0503 125.9 92.7452 125.974C101.089 126.072 101.483 125.998 103.649 123.832C105.643 121.839 105.864 121.002 106.012 115.537L106.135 111.058L107.169 110.91C109.606 110.516 112.116 108.473 112.978 106.16C113.396 105.027 113.47 104.24 113.47 100.769C113.47 97.8893 113.372 96.4863 113.126 95.9202C112.855 95.231 112.855 95.0341 113.126 94.6403C113.396 94.2711 113.47 91.982 113.47 82.4072V70.6417H118.984H124.497L125.26 69.9279L126.023 69.2141V58.0886C126.023 50.9506 125.925 46.8154 125.777 46.4954C125.186 45.437 124.399 45.2894 118.762 45.2894H113.47V24.6137C113.47 6.49783 113.421 3.81491 113.101 3.00265C112.609 1.84579 111.87 1.05815 110.713 0.467415C109.827 0.0243683 108.523 -0.00025177 62.9624 -0.00025177C20.7495 0.0243683 16.0483 0.0489807 15.3837 0.41819ZM108.301 35.8622V66.5804L107.243 67.245L106.209 67.9095L106.061 49.1537C105.963 32.8347 105.889 30.2503 105.544 29.2657C104.265 25.6228 102 22.9399 98.8249 21.3646C96.0681 20.0109 97.7172 20.0601 63.0116 20.0601C28.306 20.0601 29.9551 20.0109 27.1984 21.3646C24.0232 22.9399 21.7587 25.6228 20.4788 29.2657C20.1342 30.2503 20.0603 32.8347 19.9619 49.1537L19.8142 67.9095L18.7804 67.245L17.722 66.5804V35.8622V5.16867H63.0116H108.301V35.8622ZM96.2896 26.0413C97.7665 26.7797 99.2433 28.2565 99.9817 29.7334L100.548 30.8902L100.622 53.215L100.671 75.5645H98.9233H97.1757L94.2221 78.4443C92.5976 80.0442 91.0961 81.6933 90.9238 82.1364C90.6777 82.7025 90.5792 84.0809 90.5792 86.7638V90.579H63.0116H35.444V86.7638C35.444 84.0809 35.3456 82.7025 35.0994 82.1364C34.9271 81.6933 33.4257 80.0442 31.8012 78.4689L28.8475 75.5645H27.0999H25.3523V53.5596C25.3523 29.4872 25.2785 30.5702 26.8046 28.5027C27.666 27.3458 29.1429 26.2136 30.4474 25.7213C31.2351 25.4259 36.3301 25.4013 63.2578 25.4259L95.1328 25.4752L96.2896 26.0413ZM12.5531 57.9655V65.4728H8.86101H5.16892V57.9655V50.4583H8.86101H12.5531V57.9655ZM120.854 57.9655V65.4728H117.162H113.47V57.9655V50.4583H117.162H120.854V57.9655ZM19.3958 74.1123L19.9373 74.4568V82.5056V90.579H18.8296H17.722V81.8164V73.0539L18.2881 73.3985C18.5835 73.5954 19.0758 73.9153 19.3958 74.1123ZM108.301 81.841V90.579H107.194H106.086V82.5056V74.4568L107.144 73.7923C107.711 73.4231 108.203 73.1031 108.252 73.1031C108.277 73.1031 108.301 77.0413 108.301 81.841ZM28.2568 82.5302L30.029 84.3024V87.453V90.579H27.6907H25.3523V85.6562V80.7334H25.9185C26.2877 80.7334 27.0753 81.3488 28.2568 82.5302ZM100.671 85.6562V90.579H98.3326H95.9943V87.453V84.3024L97.7665 82.5302C98.9479 81.3488 99.7356 80.7334 100.105 80.7334H100.671V85.6562ZM107.292 96.5109C108.129 97.2986 108.301 98.0124 108.301 100.868C108.301 104.043 107.932 105.052 106.578 105.52C105.323 105.938 20.7003 105.938 19.445 105.52C18.0912 105.052 17.722 104.043 17.722 100.868C17.722 98.0124 17.8943 97.2986 18.7312 96.5109L19.2973 95.994H63.0116H106.726L107.292 96.5109ZM40.1207 115.119C40.0961 121.051 40.3668 120.854 32.7365 120.854C26.8292 120.854 26.2138 120.731 25.6477 119.5C25.4508 119.082 25.3523 117.457 25.3523 114.947V111.009H32.7365H40.1207V115.119ZM100.671 114.947C100.671 117.457 100.572 119.082 100.376 119.5C99.8094 120.731 99.1941 120.854 93.2867 120.854C85.6564 120.854 85.9272 121.051 85.9026 115.119V111.009H93.2867H100.671V114.947Z" fill="white" stroke="#170EFF" stroke-width="1.55556" mask="url(#path-1-inside-1_47_359)"/>
<path d="M28.7479 32.6879L28.7482 32.6875C29.4799 31.6357 30.5022 30.9308 31.6573 30.6317C31.6629 30.6311 31.6732 30.6301 31.6899 30.6289C31.725 30.6264 31.7745 30.6236 31.8396 30.6208C31.9694 30.6152 32.1516 30.6097 32.3848 30.6043C32.8507 30.5936 33.5126 30.5836 34.3498 30.5744C36.0238 30.556 38.3934 30.5406 41.2852 30.5283C47.0686 30.5037 54.938 30.4914 63.5032 30.4914L28.7479 32.6879ZM28.7479 32.6879L28.0788 33.6469M28.7479 32.6879L28.0788 33.6469M93.3801 48.3928V48.3921L93.4294 35.4452L93.4309 35.0548H93.0405H62.8884H32.7364H32.3467L32.3475 35.4445L32.3721 47.0623L32.3721 47.063C32.3844 50.2637 32.409 53.3232 32.4398 55.6753C32.4704 58.0137 32.5073 59.6808 32.5463 60.0717L32.5475 60.083L32.5476 60.083L32.7199 61.4121L32.7485 61.6328L32.9533 61.72L37.7515 63.7623C37.7517 63.7624 37.752 63.7625 37.7522 63.7626C39.4395 64.4892 40.716 65.01 41.6631 65.3495C42.5919 65.6826 43.2556 65.8616 43.6896 65.8616C44.1376 65.8616 44.5281 65.8544 44.8678 65.6043C45.0305 65.4846 45.1614 65.325 45.2862 65.1391C45.4106 64.9538 45.5442 64.7184 45.7031 64.4312C45.7033 64.4309 45.7034 64.4306 45.7036 64.4302L46.3918 63.2013L46.716 62.6224H46.0525H44.5757C43.9327 62.6224 43.5874 62.5957 43.3301 62.5165C43.0926 62.4434 42.9038 62.3172 42.5996 62.0363L42.5929 62.0302L42.5859 62.0243C42.2968 61.7814 42.1555 61.6098 42.0733 61.4325C41.9902 61.2532 41.9491 61.0287 41.9371 60.6425C41.9388 59.5114 42.4378 58.7582 43.2491 58.4811L43.2549 58.4792L43.2549 58.4791C43.2549 58.4791 43.255 58.4791 43.2552 58.4791C43.2581 58.4782 43.2775 58.4726 43.3225 58.4646C43.3689 58.4563 43.4305 58.4476 43.508 58.4386C43.6629 58.4206 43.8684 58.4033 44.1197 58.387C44.6218 58.3544 45.2919 58.3266 46.0761 58.3038C47.6437 58.2581 49.6553 58.2328 51.6654 58.2282C53.6754 58.2236 55.681 58.2397 57.2364 58.2769C58.0146 58.2955 58.6771 58.3193 59.1701 58.3482C59.4171 58.3627 59.6176 58.3782 59.7671 58.3945C59.842 58.4027 59.9005 58.4107 59.9437 58.4181C59.9797 58.4243 59.9956 58.4286 59.9981 58.4292C61.5119 59.0235 61.9137 60.9008 60.792 62.0225L60.1921 62.6224H56.2919H52.2306H52.0087L51.8958 62.8134L51.2558 63.8965L51.2512 63.9042L51.2513 63.9043C51.0789 64.2122 50.9169 64.505 50.7975 64.7312C50.7381 64.8437 50.687 64.9441 50.6499 65.0234C50.6316 65.0626 50.6141 65.1021 50.6004 65.1383C50.5936 65.1562 50.5858 65.1785 50.5791 65.2026C50.5743 65.2203 50.5618 65.2672 50.5618 65.325C50.5618 65.4507 50.6201 65.5398 50.6622 65.5866C50.7023 65.6313 50.7435 65.6564 50.7643 65.668C50.8063 65.6915 50.8441 65.7025 50.858 65.7063C50.8918 65.7158 50.9247 65.721 50.9452 65.7239C50.9914 65.7304 51.0506 65.7357 51.116 65.7404C51.2496 65.75 51.4418 65.7592 51.6832 65.7679C52.1674 65.7853 52.8649 65.8015 53.7227 65.8154C55.439 65.8431 57.8041 65.8616 60.4024 65.8616H69.8542H70.0761L70.189 65.6705L70.8289 64.5875L70.8335 64.5797L70.8335 64.5797C71.0059 64.2718 71.1679 63.9789 71.2873 63.7528C71.3467 63.6403 71.3978 63.5399 71.4349 63.4606C71.4532 63.4214 71.4706 63.3819 71.4844 63.3457C71.4912 63.3277 71.499 63.3055 71.5057 63.2813C71.5105 63.2636 71.523 63.2168 71.523 63.159C71.523 63.0101 71.4444 62.9116 71.3991 62.8673C71.3533 62.8224 71.3059 62.7964 71.279 62.783C71.223 62.7553 71.164 62.7383 71.1199 62.7273C71.0256 62.7039 70.9051 62.6855 70.774 62.6709C70.5074 62.6413 70.1481 62.6224 69.7557 62.6224C68.9479 62.6224 68.4744 62.5583 68.1506 62.4111C67.8544 62.2765 67.6439 62.0532 67.4206 61.6067L67.4191 61.6036C67.1614 61.0994 67.0697 60.653 67.1147 60.2482C67.1595 59.8454 67.3439 59.4443 67.7076 59.0365L67.7095 59.0344L68.3085 58.3528L76.5276 58.2805C76.5277 58.2805 76.5279 58.2805 76.528 58.2805M93.3801 48.3928L76.5245 57.8916L76.528 58.2805M93.3801 48.3928L93.3063 61.3151L93.3049 61.5678L93.0735 61.6691L88.2984 63.7613L88.2968 63.762L83.5217 65.8296L83.4478 65.8616H83.3672H79.6997H76.0323H75.3688L75.693 65.2827L76.3821 64.052L77.0713 62.8213L77.1827 62.6224H77.4106H81.4966C83.5322 62.6224 84.5247 62.6215 85.0897 62.5487C85.3617 62.5136 85.4976 62.4655 85.5903 62.4132C85.6874 62.3583 85.7669 62.2832 85.9173 62.1266L85.9172 62.1266L85.9228 62.121C86.6253 61.4185 86.811 60.5029 86.4298 59.5924L86.4294 59.5914C86.2608 59.1854 86.15 58.9677 85.966 58.8094C85.7856 58.654 85.4867 58.5182 84.8572 58.4239C83.5823 58.2328 81.2253 58.2434 76.528 58.2805M93.3801 48.3928L76.528 58.2805M28.0788 33.6469L28.0056 48.5151C27.981 55.1877 27.9749 58.948 28.0178 61.1268C28.0393 62.2177 28.073 62.9002 28.1211 63.3491C28.1687 63.7936 28.2277 63.9775 28.2826 64.0889C28.3742 64.2612 28.4659 64.3936 28.6572 64.5519C28.8636 64.7226 29.1917 64.9278 29.7708 65.2211C30.9284 65.8075 32.9932 66.6998 36.8513 68.3392C36.8513 68.3392 36.8513 68.3392 36.8513 68.3392L41.3566 70.2527H63.0115H84.6664L89.1717 68.3392C89.1717 68.3392 89.1717 68.3392 89.1718 68.3392C93.0298 66.6998 95.0946 65.8075 96.2522 65.2211C96.8313 64.9278 97.1594 64.7226 97.3658 64.5519C97.5572 64.3936 97.6489 64.2611 97.7404 64.0888C97.7954 63.9774 97.8544 63.7935 97.902 63.3491C97.95 62.9002 97.9837 62.2177 98.0052 61.1268C98.0482 58.9481 98.0421 55.1879 98.0174 48.5156L28.0788 33.6469ZM94.5393 30.5404L63.5038 30.4914L98.0174 48.5151L97.9442 33.6446L97.2771 32.6662C96.8873 32.1414 96.0956 31.4211 95.5553 31.1049C95.5542 31.1042 95.5532 31.1036 95.5521 31.103L94.5393 30.5404Z" fill="white" stroke="#170EFF" stroke-width="0.777778"/>
<path d="M41.5184 79.936L41.5184 79.936L41.5204 79.9376C41.5875 79.9913 41.6286 80.0201 41.6904 80.0468C41.758 80.0761 41.8677 80.1098 42.0713 80.1416C42.4852 80.2063 43.2097 80.2524 44.5905 80.2832C47.3417 80.3446 52.6089 80.3446 62.9869 80.3446C64.5128 80.3446 65.9323 80.3451 67.253 80.3456C76.0845 80.3488 80.4972 80.3504 82.7668 80.1857C83.4163 80.1385 83.8741 80.0787 84.2024 80.0054C84.5321 79.9319 84.7049 79.8504 84.8048 79.7767C84.8946 79.7105 84.949 79.6337 85.0049 79.5071C85.0351 79.4385 85.063 79.362 85.0986 79.2632L85.1015 79.2552C85.1352 79.1616 85.1745 79.0524 85.2235 78.9348L85.2238 78.9342C85.595 78.0473 85.3121 76.9995 84.5046 76.3621L84.5027 76.3605C84.4355 76.3068 84.3945 76.278 84.3327 76.2513C84.2651 76.222 84.1553 76.1883 83.9518 76.1565C83.5379 76.0918 82.8134 76.0457 81.4325 76.0149C78.6814 75.9535 73.4142 75.9535 63.0361 75.9535C53.4844 75.9535 48.2029 75.9658 45.2445 76.0211C43.7632 76.0488 42.8755 76.0871 42.3289 76.1387C41.7738 76.191 41.6356 76.2537 41.5939 76.2805C41.4843 76.3574 41.3308 76.515 41.1742 76.7258C41.0195 76.9339 40.883 77.1651 40.7991 77.3643C40.4281 78.2511 40.7111 79.2987 41.5184 79.936Z" fill="white" stroke="#170EFF" stroke-width="0.777778"/>
<path d="M40.675 85.1613L40.675 85.1613L40.6744 85.1643C40.4828 86.1435 40.9837 87.1887 41.7676 87.5706L41.7677 87.5704L41.7797 87.5768C41.9157 87.649 42.1057 87.721 42.6357 87.7794C43.1709 87.8385 44.0192 87.8806 45.4542 87.9099C48.3198 87.9682 53.4712 87.9744 63.0114 87.9744C72.5516 87.9744 77.703 87.9682 80.5686 87.9099C82.0036 87.8806 82.8519 87.8385 83.3872 87.7794C83.9171 87.721 84.1071 87.649 84.2431 87.5768L84.243 87.5766L84.2549 87.5708C85.1297 87.1436 85.4723 86.2419 85.3307 85.3573C85.1888 84.471 84.5697 83.6739 83.5862 83.4772L83.5841 83.4768C83.5876 83.4775 83.5856 83.4774 83.5763 83.4766C83.5603 83.4753 83.5225 83.4722 83.4528 83.4687C83.3572 83.4639 83.2251 83.4592 83.0573 83.4546C82.7224 83.4455 82.2537 83.437 81.6692 83.4293C80.5008 83.4138 78.8753 83.4013 76.9444 83.3917C73.0829 83.3725 68.0032 83.3648 62.9224 83.3679C57.8416 83.371 52.7604 83.3848 48.8958 83.4086C46.9634 83.4206 45.336 83.435 44.1652 83.4518C43.5796 83.4602 43.1096 83.4692 42.7733 83.4787C42.6049 83.4835 42.4719 83.4883 42.3756 83.4932C42.3008 83.497 42.2616 83.5003 42.2464 83.5016C42.2392 83.5022 42.2374 83.5023 42.2397 83.5019C41.9846 83.5529 41.6219 83.7823 41.2884 84.1331C40.9573 84.4812 40.7294 84.871 40.675 85.1613Z" fill="white" stroke="#170EFF" stroke-width="0.777778"/>
<path d="M57.483 101.752L57.4836 101.751C57.8591 100.854 57.5885 99.7795 56.8304 99.1477L56.8294 99.1469L56.1748 98.5979H50.5087C48.6281 98.6102 47.133 98.6409 46.0702 98.6898C45.538 98.7143 45.1194 98.743 44.8172 98.7756C44.6657 98.792 44.5491 98.8087 44.4649 98.825C44.3886 98.8398 44.3609 98.8503 44.3607 98.8497C44.3607 98.8497 44.3608 98.8496 44.3609 98.8495C43.9638 99.0653 43.6842 99.3359 43.5011 99.657C43.3163 99.981 43.2168 100.379 43.2168 100.867C43.2168 101.28 43.2531 101.523 43.3333 101.722C43.413 101.92 43.5502 102.111 43.8196 102.392L44.4166 102.989H50.3351C53.6816 102.989 55.3597 102.975 56.2845 102.793C56.7313 102.706 56.9466 102.588 57.0843 102.455C57.2318 102.312 57.334 102.113 57.483 101.752Z" fill="white" stroke="#170EFF" stroke-width="0.777778"/>
<path d="M69.1934 99.1469L69.1925 99.1477C68.4343 99.7795 68.1637 100.854 68.5392 101.751L68.5398 101.752C68.6889 102.113 68.791 102.312 68.9385 102.455C69.0763 102.588 69.2915 102.706 69.7383 102.793C70.6632 102.975 72.3412 102.989 75.6877 102.989H81.6063L82.2048 102.391C83.2474 101.325 82.9589 99.5236 81.6194 98.8283C81.6194 98.8284 81.6185 98.8281 81.6166 98.8275C81.6075 98.8246 81.5744 98.8142 81.5036 98.8006C81.4179 98.7842 81.3008 98.7676 81.1499 98.7515C80.8486 98.7193 80.4333 98.6912 79.9045 98.6683C78.8481 98.6225 77.3592 98.5979 75.4662 98.5979H69.848L69.1934 99.1469Z" fill="white" stroke="#170EFF" stroke-width="0.777778"/>
</svg>
