<svg width="127" height="126" viewBox="0 0 127 126" fill="none" xmlns="http://www.w3.org/2000/svg">
<path d="M31.3866 14.9898C14.0581 23.5064 0.692616 30.2014 0.446474 30.4968C0.0280322 31.0137 0.00341797 33.3028 0.00341797 77.8792V124.695L0.643388 125.36L1.30797 126H63.0158H124.724L125.388 125.36L126.028 124.695V77.8546V31.0137L125.487 30.3983C125.142 30.0537 112.49 23.7279 94.4236 14.8914C68.4556 2.16582 63.8035 -0.0248413 62.9174 -0.000221252C62.1051 0.0243912 56.0992 2.87964 31.3866 14.9898ZM92.1099 19.5927L121.105 33.7951V77.4361V121.077H118.644H116.183V79.8237C116.183 52.0096 116.109 38.4226 115.936 38.1026C115.247 36.8227 118.324 36.8965 63.0158 36.8965C7.70767 36.8965 10.7844 36.8227 10.0953 38.1026C9.92295 38.4226 9.84911 52.0096 9.84911 79.8237V121.077H7.38769H4.92626V77.4361V33.7951L33.9218 19.5927C49.8472 11.79 62.942 5.39029 62.9912 5.39029C63.0651 5.39029 76.1598 11.79 92.1099 19.5927ZM111.014 44.4038V46.7422H63.0158H15.0181V44.4038V42.0655H63.0158H111.014V44.4038ZM111.014 86.4942V121.077H106.829H102.645V105.939C102.645 94.7399 102.571 90.654 102.349 90.1863C101.759 88.8817 101.389 88.8325 92.4298 88.8325H84.1841V73.744C84.1841 59.2462 84.1595 58.6555 83.6918 57.8924C83.3718 57.3755 82.9287 57.0309 82.2888 56.8586C81.0088 56.4894 45.0228 56.4894 43.7429 56.8586C43.1029 57.0309 42.6599 57.3755 42.3399 57.8924C41.8722 58.6555 41.8476 59.2462 41.8476 73.744V88.8325H33.6018C24.6423 88.8325 24.273 88.8817 23.6823 90.1863C23.4608 90.654 23.3869 94.7399 23.3869 105.939V121.077H19.2025H15.0181V86.4942V51.9112H63.0158H111.014V86.4942ZM54.1793 66.7289C54.1793 74.704 53.7363 74.3101 63.0158 74.3101C72.2954 74.3101 71.8523 74.704 71.8523 66.7289L71.877 61.7569H75.446H79.0151V75.2947V88.8325H63.0158H47.0166V75.2947V61.7569H50.5857H54.1547L54.1793 66.7289ZM66.708 65.449V69.1411H63.0158H59.3237V65.449V61.7569H63.0158H66.708V65.449ZM35.694 99.1705C35.694 104.807 35.8171 105.447 37.0478 106.013C37.4909 106.21 39.78 106.309 44.7029 106.309H51.7425L52.4563 105.595L53.1701 104.881V99.4412V94.0015H56.8623H60.5544V107.539V121.077H44.5552H28.5559V107.539V94.0015H32.125H35.694V99.1705ZM48.0012 97.5706V101.14H44.4321H40.863V97.5706V94.0015H44.4321H48.0012V97.5706ZM72.8615 99.4412V104.881L73.5753 105.595L74.2892 106.309H81.3288C86.2517 106.309 88.5408 106.21 88.9838 106.013C90.2146 105.447 90.3376 104.807 90.3376 99.1705V94.0015H93.9067H97.4758V107.539V121.077H81.4765H65.4773V107.539V94.0015H69.1694H72.8615V99.4412ZM85.1686 97.5706V101.14H81.5996H78.0305V97.5706V94.0015H81.5996H85.1686V97.5706Z" fill="white"/>
<path d="M60.1852 12.6026C56.2962 13.9072 53.7855 16.787 53.1948 20.6515C52.6533 23.999 53.7609 27.1496 56.2715 29.488C58.7822 31.8509 62.1297 32.7371 65.428 31.8756C74.4861 29.5618 75.6922 17.1562 67.2495 13.1934C65.8465 12.5288 65.2804 12.4057 63.3851 12.3565C62.0313 12.3072 60.8006 12.4057 60.1852 12.6026ZM65.1819 17.9685C67.9879 19.3469 68.6525 23.3344 66.4126 25.5005C64.8865 26.9773 63.0897 27.3958 61.3421 26.6573C58.4622 25.4759 57.3792 22.3252 58.9545 19.7654C60.3083 17.5993 62.8682 16.8609 65.1819 17.9685Z" fill="white"/>
</svg>
