<svg width="62" height="61" viewBox="0 0 62 61" fill="none" xmlns="http://www.w3.org/2000/svg">
<path d="M26.6231 0.160908C19.5672 1.09058 13.3098 4.26099 8.36342 9.4457C4.08455 13.9272 1.25978 19.6244 0.282434 25.7269C-0.0274564 27.6339 -0.0989696 32.1511 0.151327 34.1893C1.31938 43.7363 6.92124 52.1867 15.3002 57.0139C18.4468 58.8255 21.7841 60.0174 25.5385 60.673C27.6124 61.0305 32.0104 61.114 34.2035 60.8279C47.3381 59.1831 57.8505 49.4454 60.4727 36.5134C61.0329 33.7721 61.1759 29.5528 60.8303 26.6804C59.1139 12.8902 48.1009 1.87722 34.3108 0.160908C32.4991 -0.0536346 28.3394 -0.0536346 26.6231 0.160908ZM38.6016 16.9069V19.8866H36.4562C33.0951 19.8866 33.1189 19.8628 33.1189 23.1643V25.3693H35.8602H38.6016V25.6911C38.6016 26.0368 38.1844 30.1607 38.0652 31.0546L37.9937 31.5671H35.5504H33.1189V40.3871V49.207H29.4836H25.8484V40.3871V31.5671H24.0606H22.2727V28.4682V25.3693H24.0606H25.8484V22.8663C25.8484 19.9105 25.9914 18.9927 26.6827 17.5386C27.2906 16.2871 28.2322 15.3217 29.4479 14.7258C30.8424 14.0464 31.5456 13.951 35.3001 13.9391L38.6016 13.9272V16.9069Z" fill="white"/>
</svg>
