<svg width="62" height="62" viewBox="0 0 62 62" fill="none" xmlns="http://www.w3.org/2000/svg">
<path d="M27.1619 0.0889626C17.8919 1.19692 9.53299 6.52744 4.57179 14.4801C2.34356 18.0502 0.767796 22.5067 0.201506 26.8277C-0.0447076 28.7482 -0.0447076 32.7122 0.201506 34.6327C1.10018 41.4774 4.12861 47.6574 9.00363 52.5201C12.98 56.5087 17.9658 59.3402 23.3086 60.6451C26.177 61.3468 27.1126 61.4453 30.8551 61.4453C33.9081 61.4453 34.4867 61.4084 35.8778 61.1622C39.2017 60.5589 42.0454 59.611 44.8892 58.1337C47.9423 56.558 50.1951 54.9207 52.5834 52.5201C55.0948 50.021 56.7075 47.7805 58.3817 44.4566C59.9575 41.3297 60.9177 38.1782 61.3855 34.6327C61.6317 32.7122 61.6317 28.7482 61.3855 26.8277C60.4868 19.983 57.4461 13.803 52.5834 8.94033C50.0104 6.35509 47.5114 4.58236 44.1506 2.95735C41.4053 1.6278 39.0909 0.889156 35.8778 0.310555C34.7083 0.101273 33.8219 0.0397186 31.2859 0.00278854C29.5624 -0.00952148 27.7035 0.0274086 27.1619 0.0889626ZM41.7623 12.4119C46.3911 13.6799 48.9394 16.6714 49.6165 21.6572C49.8012 22.9622 49.8012 38.4982 49.6165 39.8032C48.9394 44.789 46.4034 47.7682 41.7623 49.0485L40.5805 49.3809H30.7935H21.0065L19.8247 49.0485C15.2082 47.7805 12.586 44.7151 11.9582 39.8401C11.8105 38.6337 11.8105 22.8268 11.9582 21.6203C12.6476 16.3637 15.676 13.1506 20.8711 12.1903C21.5482 12.0672 23.8749 12.0426 31.1628 12.0549L40.5805 12.0795L41.7623 12.4119Z" fill="white"/>
<path d="M22.73 15.4649C19.3445 15.6865 17.2517 16.8929 16.0945 19.3058C15.2205 21.1647 15.2205 21.1524 15.2205 30.8532C15.2328 39.4461 15.2328 39.5445 15.5036 40.5171C15.8975 41.9451 16.4392 42.9423 17.2763 43.8533C18.0888 44.715 19.1968 45.3429 20.514 45.6876C21.819 46.0323 25.2537 46.1431 32.5169 46.0815C40.3711 46.02 40.802 45.983 42.5624 45.1336C44.3598 44.2718 45.6155 42.5607 46.1448 40.2709C46.3541 39.3599 46.3664 38.5966 46.3664 30.7301C46.3664 22.8636 46.3541 22.1003 46.1448 21.1893C45.6155 18.8996 44.3598 17.1884 42.5624 16.3266C40.7651 15.4649 40.445 15.4403 31.9014 15.4033C27.7404 15.3787 23.6163 15.4156 22.73 15.4649ZM41.8115 19.1458C42.0085 19.2566 42.3039 19.552 42.464 19.7859C42.7102 20.1306 42.7471 20.3153 42.7102 20.9308C42.6609 21.5956 42.6117 21.6941 42.1562 22.125C41.5283 22.7159 40.9497 22.839 40.1988 22.5435C38.4384 21.8787 38.5615 19.4658 40.3835 18.8996C40.7897 18.7765 41.3314 18.8749 41.8115 19.1458ZM32.7632 21.0047C37.9583 22.0757 41.4914 27.1723 40.5927 32.3182C39.9033 36.2453 37.195 39.2491 33.3048 40.357C31.9876 40.7264 29.6978 40.7387 28.319 40.357C24.6504 39.3599 21.819 36.3684 21.0557 32.6383C20.3171 29.0928 21.7205 25.2888 24.6258 22.9744C26.9771 21.1032 29.8578 20.4015 32.7632 21.0047Z" fill="white"/>
<path d="M29.501 24.3282C27.9868 24.636 26.5588 25.547 25.5862 26.815C23.8627 29.0924 23.8504 32.3178 25.5616 34.6076C27.7283 37.5129 31.8524 38.1038 34.7084 35.9372C38.1677 33.2904 38.1677 28.1691 34.7084 25.5223C33.2435 24.4144 31.2984 23.9712 29.501 24.3282Z" fill="white"/>
</svg>
