<svg width="64" height="63" viewBox="0 0 64 63" fill="none" xmlns="http://www.w3.org/2000/svg">
<path d="M28.9998 0.0734444C23.0292 0.676666 17.3416 2.95414 12.6267 6.6104C11.1863 7.73068 8.73648 10.1436 7.54235 11.6208C4.10767 15.8803 1.86713 20.8538 0.906902 26.3813C0.549893 28.4988 0.451407 33.1645 0.734553 35.3189C1.26391 39.2829 2.23645 42.4714 3.97226 45.8814C5.42492 48.7498 7.12379 51.1011 9.48743 53.5263C14.584 58.7584 20.8502 61.873 28.2612 62.8455C30.4033 63.1164 35.069 63.0302 37.1987 62.6609C40.4241 62.1069 43.1694 61.2205 46.0501 59.8048C49.1032 58.3029 51.5653 56.5671 54.1013 54.0926C58.9886 49.3284 62.0663 43.4562 63.2358 36.6238C63.6051 34.4818 63.6913 29.9637 63.4205 27.6863C62.2879 18.441 57.1789 10.2174 49.374 5.08389C45.3238 2.42478 40.8181 0.77515 36.0169 0.171928C34.6258 -0.000419617 30.2801 -0.0619736 28.9998 0.0734444ZM21.0964 15.3633C21.9458 15.7942 22.6475 16.5328 23.0292 17.3576C23.3123 18.0101 23.3616 18.2317 23.3123 19.0565C23.2631 20.1644 22.9307 20.9523 22.192 21.691C20.3701 23.5129 17.2555 23.0575 16.0244 20.8046C14.8303 18.601 15.9505 15.9296 18.4127 15.1171C18.9913 14.9201 20.5301 15.0678 21.0964 15.3633ZM43.6126 25.8889C46.4317 26.7999 47.8844 28.8435 48.3891 32.6105C48.5246 33.5954 48.5738 35.5774 48.5738 40.9449V47.9989H45.1884H41.8152L41.7783 41.1295L41.7414 34.2725L41.4459 33.5585C41.1012 32.6844 40.5842 32.0689 39.9071 31.7119C39.4885 31.4903 39.1931 31.441 38.1713 31.441C37.0633 31.441 36.8664 31.4779 36.2385 31.7857C35.1429 32.3274 34.5396 33.1891 34.2196 34.691C34.0841 35.3312 34.0472 36.8577 34.0472 41.745V47.9989H30.6618H27.2763V36.9808V25.9628H30.5387H33.801V27.5016C33.801 28.351 33.8379 29.0404 33.8995 29.0404C33.9487 29.0404 34.0965 28.8435 34.2319 28.5973C34.5643 27.9694 35.8323 26.8245 36.7186 26.3567C38.0359 25.655 39.033 25.458 40.9412 25.5196C42.3077 25.5565 42.7878 25.6304 43.6126 25.8889ZM22.8445 36.9808V47.9989H19.4591H16.0736V36.9808V25.9628H19.4591H22.8445V36.9808Z" fill="white"/>
</svg>
