<svg width="142" height="126" viewBox="0 0 142 126" fill="none" xmlns="http://www.w3.org/2000/svg">
<path d="M68.2356 0.0703125C61.8675 0.996075 57.5192 3.18424 53.4514 7.4203C50.9266 10.0854 49.3276 12.6943 48.1774 16.1168C43.5486 29.9191 52.2451 44.563 66.5243 47.0597C69.6102 47.5927 74.744 47.2561 77.6335 46.3303C85.9092 43.6933 92.0529 37.0166 93.8203 28.6848C94.4374 25.7672 94.3533 20.7737 93.6519 17.9964C91.4638 9.46819 84.731 2.73538 76.3711 0.715542C74.1268 0.182526 69.8346 -0.154114 68.2356 0.0703125ZM76.4833 5.68099C85.8811 8.79491 91.3796 18.5855 89.1073 28.2079C88.6304 30.1435 86.8069 33.7905 85.3481 35.5859C82.9355 38.6437 79.0081 41.1685 75.1087 42.1504C74.0426 42.4309 72.1911 42.6273 70.6201 42.6273C63.214 42.6273 56.7337 38.5034 53.5075 31.7426C51.6841 27.9273 51.1791 24.2804 51.9366 20.3249C53.4234 12.5541 59.3427 6.6348 67.2818 4.9516C69.5821 4.47469 73.8743 4.81133 76.4833 5.68099Z" fill="white"/>
<path d="M72.0508 20.774L67.3939 25.4028L66.1034 24.1684C65.3741 23.4951 64.4483 22.8499 64.0555 22.7377C62.3723 22.3169 60.7733 23.9159 61.1941 25.6272C61.4185 26.4969 65.0374 30.3402 66.2157 30.9573C67.7025 31.7148 68.2635 31.322 74.4072 25.1503L80.2423 19.2871L80.074 18.2211C79.8496 16.9026 79.008 16.1732 77.6895 16.1732C76.7637 16.1732 76.3149 16.5379 72.0508 20.774Z" fill="white"/>
<path d="M26.913 47.397C26.0995 48.2666 26.1276 49.6132 26.9411 50.5109C27.2777 50.9037 30.1392 52.8393 33.3092 54.8311C36.4512 56.8229 39.1443 58.6464 39.2846 58.8708C39.481 59.1794 37.3489 62.6861 30.9247 72.5889C26.1837 79.9109 22.0598 86.1387 21.7793 86.4192C21.0779 87.1767 20.8255 87.0364 15.0465 82.7162C3.68485 74.2721 2.42245 73.5708 0.851461 74.6649C0.122073 75.1698 -0.242621 76.7689 0.17818 77.5544C0.3465 77.863 1.9736 79.1815 3.76901 80.4439C5.59248 81.7063 9.43579 84.5116 12.2972 86.6437C15.1867 88.7757 17.9921 90.7114 18.5251 90.9358C19.7875 91.4688 22.3684 91.4688 23.5747 90.9639C24.0797 90.7675 24.9774 90.0662 25.5104 89.3929C26.2117 88.6074 26.6606 88.2988 26.913 88.4391C27.5302 88.8318 28.6524 90.2626 29.2695 91.4408L29.8587 92.591L29.0171 93.4326C27.6705 94.7791 27.1375 96.266 27.1375 98.6786C27.1375 100.39 27.2777 101.063 27.8669 102.241C29.0732 104.682 31.7943 106.505 34.235 106.505H35.4413L35.9743 108.245C36.9562 111.527 40.0701 113.799 43.5487 113.799C44.6708 113.799 44.6989 113.827 45.0355 115.034C45.821 118.063 48.963 120.392 52.2733 120.392H54.0126L54.3212 121.374C54.742 122.804 56.3691 124.572 57.912 125.329C59.8477 126.255 62.4006 126.227 64.3643 125.217C65.1498 124.796 65.8792 124.347 65.9634 124.207C66.0756 124.039 66.6366 124.123 67.4221 124.375C69.1334 124.965 72.3315 124.768 73.8744 123.955C75.7259 123.029 77.5494 120.729 78.0263 118.793L78.1946 118.063L79.7937 118.933C81.2524 119.719 81.6732 119.831 83.665 119.803C85.5166 119.803 86.1337 119.691 87.312 119.073C88.0975 118.681 89.1074 117.923 89.5843 117.39C90.6223 116.324 91.6602 114.36 91.6602 113.547C91.6602 113.014 91.6883 113.014 92.7263 113.435C93.3715 113.743 94.5498 113.912 95.8683 113.912C97.6076 113.912 98.2247 113.771 99.403 113.154C101.226 112.228 103.106 110.124 103.527 108.525C103.807 107.487 103.92 107.347 104.425 107.487C107.005 108.329 107.931 108.497 109.278 108.329C112.055 108.048 114.552 106.337 115.87 103.84C116.375 102.943 116.487 102.241 116.487 100.193C116.487 97.332 116.011 96.0696 114.215 94.2742C113.402 93.4606 113.261 93.2082 113.57 93.0118C116.431 91.1042 117.161 90.7956 117.89 91.0761C118.984 91.4969 121.537 91.4127 122.715 90.9358C123.248 90.7114 126.054 88.7757 128.943 86.6437C131.805 84.5116 135.648 81.7063 137.471 80.4439C139.267 79.1815 140.894 77.863 141.062 77.5544C141.483 76.7689 141.118 75.1698 140.389 74.6649C138.818 73.5708 137.556 74.2721 126.222 82.7162C120.976 86.6156 120.106 87.1206 119.545 86.5315C119.349 86.3351 115.225 80.1072 110.344 72.7011L101.507 59.2355L102.264 58.5622C102.685 58.2256 105.434 56.4021 108.352 54.5787C111.298 52.7271 113.963 50.9037 114.327 50.5109C115.169 49.5571 115.141 48.1544 114.299 47.3689C113.065 46.1907 112.195 46.4712 106.837 49.8937C104.116 51.605 101.255 53.4285 100.469 53.9054C99.7116 54.4103 98.6175 55.3361 98.0564 55.9813L97.0746 57.1315H70.6202H44.1939L43.0998 55.8972C42.5107 55.2239 40.547 53.7651 38.7235 52.6149C36.9001 51.4928 34.0947 49.6974 32.4957 48.6594C29.1573 46.4993 28.0071 46.2468 26.913 47.397ZM52.4977 62.6861C49.9449 64.5376 47.7567 67.8198 46.9151 71.074C46.3821 73.15 46.354 78.6765 46.8871 79.9389C47.3359 81.033 48.5983 82.2393 49.6643 82.632C50.8987 83.1089 53.2271 82.9967 54.5456 82.4076C56.1727 81.6502 58.0804 79.7986 59.2867 77.863C59.8197 76.9652 60.7735 75.787 61.4187 75.254C64.5887 72.5328 69.2175 72.8414 72.1912 75.9834C74.4635 78.3399 74.9124 78.7887 75.9504 79.4059C77.7738 80.5561 79.457 81.033 83.0479 81.4257C85.6568 81.6782 87.0595 81.9868 88.0975 82.4637C90.1173 83.4175 109.839 96.7709 110.961 97.9492C111.69 98.7627 111.859 99.1555 111.859 100.193C111.859 101.259 111.69 101.652 110.905 102.522C110.035 103.448 109.783 103.56 108.576 103.56C107.258 103.56 106.865 103.335 95.223 95.3402C84.5347 88.0463 83.104 87.1486 82.1502 87.1486C81.2805 87.1486 80.9158 87.3169 80.4669 87.878C79.7376 88.8038 79.7095 89.982 80.3828 90.7395C80.6353 91.0761 84.5908 93.8814 89.1354 96.9673C93.6801 100.081 97.832 103.055 98.337 103.588C99.0663 104.373 99.2347 104.766 99.2347 105.776C99.2347 107.88 97.2709 109.591 95.2511 109.199C94.69 109.086 90.6784 106.534 85.3482 102.859C79.0923 98.5383 76.1748 96.6868 75.6418 96.6868C75.221 96.6868 74.4916 97.0234 74.0147 97.4162C72.9206 98.3419 72.8084 99.9129 73.7902 100.811C74.1269 101.119 77.0725 103.167 80.3547 105.355C86.4423 109.395 87.1717 110.068 87.1717 111.695C87.1717 113.435 85.4044 115.202 83.637 115.202C82.6271 115.202 81.7574 114.669 75.782 110.377C73.2853 108.581 70.9849 106.982 70.6763 106.814C69.1053 105.972 67.2538 106.982 67.2538 108.694C67.2538 109.255 67.366 109.9 67.5063 110.124C67.6466 110.321 68.937 111.415 70.3677 112.509C73.3133 114.753 73.9025 115.735 73.3975 117.502C72.9486 119.186 71.041 120.448 69.4981 120.111C68.7967 119.943 68.7687 119.887 68.8809 118.456C69.0492 116.296 68.3479 114.36 66.805 112.846C66.1317 112.144 65.1498 111.443 64.6168 111.275L63.6349 110.966L64.224 109.956C65.0657 108.553 65.234 105.383 64.5887 103.42C64.0277 101.708 62.4006 99.9129 60.6613 99.0713C59.1183 98.3139 55.9202 98.1736 54.4895 98.7908C53.3954 99.2396 53.3674 99.2396 52.9466 98.5944C51.1792 95.9293 48.9069 94.6389 45.9613 94.6669C44.8953 94.695 43.5768 94.8914 43.0157 95.1158C42.4546 95.3402 42.0058 95.4244 42.0058 95.3122C42.0058 95.1719 41.4447 94.4425 40.7434 93.657C39.3687 92.1141 37.4611 91.1322 35.5815 91.048C34.4314 90.9639 34.3752 90.9358 33.3934 89.0563C32.8604 88.0183 31.7102 86.4473 30.8966 85.5776L29.3817 84.0066L36.9001 72.9817L44.3903 61.9286H48.9911L53.5918 61.9006L52.4977 62.6861ZM103.387 71.5229C106.977 76.7969 110.849 82.4637 111.999 84.1189L114.047 87.0925L111.466 88.6635C110.035 89.5332 108.773 90.2345 108.689 90.2345C108.576 90.2345 104.789 87.7377 100.273 84.6519C95.756 81.5941 91.5761 78.8448 90.9589 78.5362C88.911 77.4983 87.0595 77.0214 84.2261 76.7689C79.8217 76.4322 79.2607 76.1798 76.4273 73.3464C73.5378 70.4849 71.4618 69.3067 68.3759 68.8298C65.9634 68.4651 63.13 68.8578 60.8857 69.8958C59.0903 70.7093 56.5374 73.0658 55.5275 74.8051C54.1529 77.2738 52.1891 78.8168 51.3756 78.1435C50.8987 77.7507 50.8426 75.3101 51.2634 73.178C51.9928 69.3347 53.8443 67.2307 59.2586 64.1449L63.1861 61.9286H80.0181H96.8501L103.387 71.5229ZM36.1146 95.9854C37.9941 96.9673 38.5552 98.7627 37.4892 100.502C36.0304 102.887 32.4957 102.045 31.7663 99.1274C31.5138 98.1175 32.3274 96.5465 33.3934 96.0135C34.5155 95.4524 35.1046 95.4524 36.1146 95.9854ZM47.5603 99.7726C48.6544 100.446 49.4119 102.045 49.1594 103.083C48.8508 104.317 45.7369 108.357 44.8111 108.75C42.7352 109.619 40.3226 108.133 40.3226 105.972C40.3226 104.878 40.5189 104.542 42.7071 101.484C44.3061 99.2677 45.8491 98.7347 47.5603 99.7726ZM59.0342 103.616C59.988 104.261 60.6332 105.86 60.3246 106.898C59.9319 108.161 54.7701 115.034 53.9285 115.426C51.7403 116.436 49.2716 114.837 49.2996 112.481C49.3277 111.471 49.496 111.19 52.5258 107.095C55.6678 102.887 56.8741 102.241 59.0342 103.616ZM63.4386 116.212C64.3363 117.138 64.3924 118.288 63.5788 119.578C62.3725 121.57 60.7454 121.935 59.3708 120.56C58.3889 119.578 58.3328 118.596 59.1464 117.278C60.3246 115.342 62.12 114.893 63.4386 116.212Z" fill="white"/>
</svg>
