<svg width="49" height="50" viewBox="0 0 49 50" fill="none" xmlns="http://www.w3.org/2000/svg">
<path d="M25.3279 0.0590115C25.2021 0.0880318 24.9119 0.281504 24.6797 0.503996C24.1864 0.987675 24.0122 1.51005 24.0703 2.34197C24.1477 3.39639 24.7087 3.78333 26.4693 3.99615C30.1646 4.46048 33.7825 5.61164 36.1429 7.08202C39.8769 9.41335 42.1985 12.8184 43.4561 17.7907C43.8624 19.4158 44.1526 21.1377 44.259 22.5597C44.3751 24.1365 44.6653 24.7073 45.4972 25.0071C46.3678 25.3167 47.4029 25.0748 47.8769 24.4557C48.2929 23.8947 48.3606 23.2659 48.2445 20.9636C48.1188 18.5549 47.8769 17.1812 47.2094 15.1788C44.2784 6.37585 35.6689 -0.0764179 26.953 0.00097084C26.1791 0.0106449 25.4536 0.0396652 25.3279 0.0590115Z" fill="white"/>
<path d="M7.26753 2.59338C3.93983 3.48335 1.31829 5.73729 0.418649 8.50393C-0.152091 10.2548 -0.142417 12.0831 0.467017 14.163C0.912001 15.6914 2.70161 19.5608 4.24938 22.3274C10.6339 33.8003 20.0753 42.3517 32.8057 48.1849C35.553 49.4521 36.975 49.7423 38.5615 49.3747C40.4092 48.9394 42.1407 47.9527 43.7175 46.434C45.0525 45.1474 45.8747 43.9866 46.3971 42.6226C47.229 40.4944 46.9098 38.8112 45.391 37.2828C44.1335 36.0155 38.9098 32.1751 37.3523 31.3626C36.2205 30.7821 35.3789 30.5403 34.4019 30.5403C32.5446 30.521 31.1709 31.3335 29.7295 33.2973C28.8396 34.4968 28.027 34.8837 26.8952 34.6322C26.605 34.5645 25.8408 34.2453 25.183 33.9261C22.8323 32.7652 21.0427 31.5077 19.3208 29.8051C17.5892 28.0832 16.5251 26.5935 15.4804 24.4169C14.8129 23.0239 14.6678 22.5306 14.6678 21.6696C14.6678 20.5862 15.1418 19.88 16.6025 18.8159C18.0923 17.7228 18.7694 16.7168 18.9145 15.4205C18.9629 15.0239 18.9629 14.5015 18.9145 14.2597C18.5179 12.1605 15.4804 7.49788 12.6364 4.62483C11.3401 3.3189 10.75 2.88359 9.97613 2.64175C9.20225 2.39991 8.06076 2.38056 7.26753 2.59338Z" fill="white"/>
<path d="M25.9374 6.46308C25.1829 6.80165 24.825 7.45946 24.825 8.5042C24.825 9.58764 25.5118 10.2067 26.9725 10.4389C28.1527 10.6227 30.2131 11.1935 31.3256 11.6384C34.2954 12.838 35.9012 14.5405 36.9169 17.5877C37.2845 18.6808 37.6521 20.422 37.7779 21.6602C37.9326 23.1016 38.3583 23.7014 39.3546 23.8852C39.9834 24.0013 40.8347 23.7788 41.2216 23.4015C41.686 22.9565 41.7537 22.6276 41.7537 20.9347C41.7537 18.5937 41.3474 16.7848 40.3994 14.8694C38.9484 11.9673 36.2301 9.27809 33.3474 7.91411C31.7125 7.13056 30.6388 6.81133 28.5976 6.47275C27.1079 6.23092 26.4404 6.23092 25.9374 6.46308Z" fill="white"/>
<path d="M27.4369 12.8567C26.3631 12.9921 25.715 13.6209 25.5408 14.6753C25.3474 15.9038 26.0052 16.552 27.8238 16.9195C28.172 16.9873 28.7138 17.1614 29.033 17.3065C30.484 17.9643 31.1612 18.951 31.4998 20.8857C31.6545 21.8047 31.7706 22.1239 32.1092 22.4915C32.5252 22.9752 32.9024 23.1396 33.5796 23.1396C34.2664 23.1396 34.6533 22.9655 35.0596 22.4722C35.4272 22.0272 35.5626 21.4951 35.5626 20.4697C35.5626 17.9063 33.7827 15.1299 31.1902 13.6499C30.0777 13.0114 28.6074 12.7019 27.4369 12.8567Z" fill="white"/>
</svg>
