<svg width="52" height="38" viewBox="0 0 52 38" fill="none" xmlns="http://www.w3.org/2000/svg">
<path d="M3.16698 0.854765C2.8723 0.94622 2.62842 1.058 2.62842 1.1088C2.62842 1.16977 7.68887 6.28104 13.8874 12.4796L25.1363 23.7386L25.624 23.8097C26.752 23.9621 25.8781 24.7446 38.1837 12.4186C44.3416 6.25055 49.3716 1.15961 49.3716 1.1088C49.3716 1.058 49.1074 0.936058 48.7822 0.844604C48.2436 0.692181 46.2215 0.68202 25.939 0.692181C6.1748 0.702343 3.63441 0.712503 3.16698 0.854765Z" fill="white"/>
<path d="M0.230322 3.64802C0.0474137 4.06464 0.0372522 4.71498 0.0067675 18.7583C-0.0135556 31.5821 0.0067675 33.5027 0.138868 33.9498C0.22016 34.2343 0.331937 34.5392 0.392907 34.6204C0.474199 34.7424 2.07973 33.1877 8.39005 26.8773L16.2957 18.9716L8.42054 11.0964C4.09171 6.76762 0.514845 3.22124 0.484361 3.22124C0.443714 3.22124 0.331937 3.4143 0.230322 3.64802Z" fill="white"/>
<path d="M43.5793 11.0964L35.7041 18.9716L43.6098 26.8773C49.9201 33.1877 51.5256 34.7424 51.6069 34.6204C51.6679 34.5392 51.7797 34.2343 51.861 33.9498C51.9931 33.5027 52.0134 31.5821 51.9931 18.7583C51.9626 4.71498 51.9524 4.06464 51.7695 3.64802C51.6679 3.4143 51.5561 3.22124 51.5155 3.22124C51.485 3.22124 47.9081 6.76762 43.5793 11.0964Z" fill="white"/>
<path d="M10.4223 28.9312C6.13415 33.2295 2.62842 36.7861 2.62842 36.8369C2.62842 36.8877 2.89262 37.0096 3.21779 37.1011C3.75635 37.2535 5.78866 37.2637 26 37.2637C46.2113 37.2637 48.2436 37.2535 48.7822 37.1011C49.1074 37.0096 49.3716 36.8877 49.3716 36.8369C49.3716 36.7861 45.8557 33.2194 41.5573 28.9007L33.7431 21.056L31.2637 23.5049C29.1704 25.588 28.6928 26.0047 28.1339 26.2689C26.7621 26.9395 25.2277 26.9395 23.8762 26.279C23.3072 26.0047 22.8398 25.5982 20.7566 23.5252C19.4153 22.1941 18.2874 21.1068 18.2569 21.1068C18.2366 21.1068 14.7003 24.6227 10.4223 28.9312Z" fill="white"/>
</svg>
