<svg width="44" height="58" viewBox="0 0 44 58" fill="none" xmlns="http://www.w3.org/2000/svg">
<path d="M18.1816 0.21632C9.49764 1.68798 2.70104 7.90042 0.600271 16.281C0.083504 18.3818 -0.0513047 19.6962 0.0160997 22.1003C0.12844 26.0547 1.02716 29.2114 3.36385 34.0308C5.84658 39.1199 9.05952 44.0067 13.5194 49.4777C16.1033 52.6457 19.9566 56.9146 20.5857 57.2966C21.0575 57.5886 22.0461 57.5886 22.5179 57.2966C23.147 56.9146 27.0003 52.6457 29.5841 49.4777C34.0441 44.0067 37.257 39.1199 39.7397 34.0308C41.3237 30.7617 42.2112 28.2678 42.7954 25.4368C43.1324 23.7741 43.211 20.3253 42.9639 18.6177C42.2225 13.7421 40.1779 9.64169 36.8301 6.28271C33.5273 2.99113 29.5617 0.980236 24.8097 0.205086C23.0909 -0.0757637 19.8779 -0.0645294 18.1816 0.21632ZM24.3603 11.2145C28.0338 12.2817 30.8311 15.0902 31.9096 18.8199C32.1343 19.5838 32.168 19.9658 32.168 21.561C32.168 23.1563 32.1343 23.5382 31.9096 24.3021C30.8199 28.0543 28.0338 30.8516 24.3041 31.9188C23.529 32.1435 23.147 32.1772 21.5518 32.1772C19.9566 32.1772 19.5746 32.1435 18.7994 31.9188C15.0697 30.8516 12.2837 28.0543 11.194 24.3021C10.9693 23.5382 10.9356 23.1563 10.9356 21.561C10.9356 19.9658 10.9693 19.5838 11.194 18.8199C12.3399 14.8431 15.3955 11.9559 19.3724 11.0684C20.5183 10.81 23.2369 10.8887 24.3603 11.2145Z" fill="white"/>
</svg>
