<svg width="361" height="796" viewBox="0 0 361 796" fill="none" xmlns="http://www.w3.org/2000/svg">
<path d="M93.1067 712.326V711.221L92.9889 710.912L92.5618 710.779L91.0893 710.441L90.7948 710.338L90.2353 709.97L89.9113 709.837L86.3037 709.233L85.6263 708.939L82.9169 707.348L79.2209 706.126L74.2733 705.964L71.0338 704.492L67.9562 703.167L65.8505 702.386H64.378H60.2845H56.2056H52.1268H48.0332H43.9544L39.8608 702.312H35.7819H31.7031H30.2306L29.3765 701.738L29.4649 700.487L29.671 699.544L29.4943 698.734L29.0673 698.057L28.5666 697.556L27.4181 696.084L26.1665 694.935L25.3566 694.39L23.6485 693.816L23.2951 693.536L23.0447 692.947L22.8975 691.328L22.7502 690.842L22.3674 690.37L21.9404 690.267H21.4544L20.9685 690.164L20.5857 689.487L21.0863 688.603L22.3821 687.249V687.028V686.748V686.468V686.218V685.924L22.4999 685.703L22.6324 685.511L22.7355 685.29L22.8386 684.775V682.655V682.021L22.9711 681.594L23.7515 680.475L23.9577 680.063V679.651L23.6632 679.238L22.2938 678.296L21.7048 677.619L21.3219 676.617V676.043L21.4692 675.645L21.9845 674.909L22.2938 674.335L22.5146 674.055L22.8091 673.923L23.3392 673.834L23.6337 673.201L23.8399 671.861L24.0019 669.402L23.8841 668.283L23.5012 667.547L23.0153 666.913L22.5294 666.118L22.3527 665.618V665.205L22.4705 664.808L23.1331 663.335V662.879L22.7944 662.673L22.3674 662.54L21.6753 662.054L19.4518 661.509L18.6714 661.907L17.4198 663.379H16.6246L16.2565 663.144L15.3288 662.143L14.9312 661.922L14.5189 662.01L12.266 663.35L11.6181 663.895L10.3223 665.367L9.5713 665.971L8.76142 666.339H8.12824L7.43616 665.75L7.27419 664.808V663.718L7.14166 662.658L6.95024 662.231L6.18453 661.185L5.96366 660.714L5.89003 660.287V658.638L5.66915 657.165V656.606V655.457V654.883L5.49245 653.985L5.18323 653.028L4.78565 652.144L4.41752 651.393L4.07885 651.055L3.34259 650.642L1.04548 648.478L0.839329 647.712L1.03076 646.858L1.94371 645.15V644.767L1.78173 644.252L1.54613 643.898L0.559553 643.015L0.235601 642.602V642.249L0.500653 641.91L0.721529 641.542V641.041V640.614L0.795154 640.217L1.75228 639.186L2.09096 638.523V637.758L1.59031 636.86L1.01603 636.241L0.750979 635.873L0.618453 635.431L0.721529 634.945L0.95713 634.518L1.13383 634.076V633.532L1.00131 633.178L0.471202 632.56L0.220876 632.221L0 631.617V631.323L0.544828 630.719L0.824604 630.233V629.865L0.706804 629.468V628.923L0.912955 628.466L1.23691 628.172L1.92898 627.715L2.23821 627.347L2.32656 627.008L2.17931 626.096V625.403L2.41491 625.138L8.08407 625.021V624.52L8.27549 624.328L8.8645 624.167V623.99L7.68649 623.754L7.55396 623.548L7.36254 623.224V622.532L7.59814 621.855L8.76142 620.382L8.83505 619.926V619.572V619.219V618.807L9.08537 618.188L10.3076 616.568L10.4401 616.348L11.1763 615.626L12.0304 615.287L13.7974 615.081L14.5926 614.787L15.2846 614.227L16.5657 612.828L17.5228 611.635L18.0088 610.855L18.2002 610.016V608.956L18.0824 606.01L17.6701 604.538L17.5228 603.139L18.2149 601.564L18.9217 600.989L19.6727 600.547L20.8213 600.15L21.1158 599.9L21.6311 599.163L21.8373 598.781L21.9404 598.677L22.176 598.589H22.4116L22.9564 598.766L23.192 598.692L23.3245 598.309L23.2656 597.838L23.0153 597.367L22.868 596.999V596.542L23.0889 595.526V594.981L22.6619 591.712L22.4852 591.168L21.8667 590.932L21.6606 590.814L21.5281 590.638V590.402V590.152L21.4544 589.901L21.1599 589.518L20.836 589.371L20.4973 589.283L20.0997 589.091L19.5255 588.517L19.0542 587.781L18.907 586.942L19.2604 586.073L19.6874 585.278L20.1586 583.393L20.4679 582.48L22.176 579.402L22.3821 578.961L22.5146 578.519L22.603 578.062V577.547L22.9417 576.074V575.706L22.6472 575.427L22.2643 575.309L22.0434 575.073L22.2054 574.44L22.4705 574.042L22.7944 573.777L23.5307 573.468H23.9872L24.959 573.645L25.3566 573.571L25.6658 573.306L26.1223 572.614L27.6979 570.744L28.066 570.081L28.228 569.625V569.345L28.1249 569.08L28.0071 568.638V568.182L28.0807 567.858L28.2722 567.696H28.655L29.8036 568.491L30.4073 568.668L30.9227 568.388L31.2319 567.711V566.915L31.0257 566.209L30.6723 565.649L30.1864 565.266L29.0231 564.559L28.6403 564.073L28.7434 563.543L29.9214 562.807L30.2895 562.38L30.0686 561.997L29.4649 561.423L29.3029 561.025V560.643L29.5974 559.067L29.6858 558.876L29.8036 558.699L29.9066 558.522V558.316V558.11L29.7888 557.918L29.7005 557.712V557.462L29.995 557.079L30.4809 556.961H31.4086L31.8062 556.799L32.0712 556.549L32.5424 555.813L32.8516 555.474L33.8677 554.87L34.4714 554.193L34.5892 553.398L34.3094 551.484V551.012L34.442 550.6L34.545 550.188L34.4567 549.687L33.2492 546.374L33.0725 545.461V544.416L33.1461 543.223L33.0725 542.472L32.7191 541.956L31.6295 541.205L30.7607 540.351L30.584 540.234H30.422L30.3337 540.13V539.851L30.4809 539.703L30.7312 539.63L32.0859 539.453L32.513 539.335L32.9253 539.085L33.1756 538.776L33.5437 538.01L33.7646 537.657L35.1046 536.184L35.7819 535.433L35.5611 534.491L35.2518 533.755L34.8101 533.18L34.1769 532.783L33.4112 532.503L33.1314 532.253L33.0136 531.811L33.102 531.413L33.264 531.045V530.662L32.9989 530.191L32.5277 529.72L32.3952 529.366V528.954V528.777L32.6897 528.292V528.056V527.879V527.732V527.541V527.114V526.819L33.0136 526.171L33.1167 526.039L33.2492 525.906L33.367 525.759V525.597V525.405L33.0872 525.126V525.023L33.367 524.419L34.0149 524.007L34.7659 523.756L35.3696 523.668L36.7685 523.771L37.4164 523.638L38.0791 523.108L38.2852 522.74V522.357L37.9171 521.592L37.7551 521.076V520.811L39.5663 520.046L39.905 519.839L40.1847 519.545L40.6118 518.867L40.9063 518.602L41.3186 518.013L41.2155 517.174L40.8179 516.32L40.3762 515.672L39.8019 515.083L38.83 514.391L38.138 513.478L37.9613 513.184L37.6226 512.006L36.8127 510.43L36.209 509.723L35.5611 509.65L34.8837 509.753L34.1475 509.605L33.853 509.37L33.3817 508.766L33.102 508.545L32.6897 508.427H32.2774L31.8651 508.589L31.4822 508.796L30.7607 508.884L30.0392 508.545L29.3029 508.074L28.5814 507.794H27.7862L27.4181 507.676L27.2856 507.279L27.4034 506.425V506.013L27.1383 504.628L27.3592 504.069L27.8746 503.907L28.5666 504.187L28.9642 504.363L31.3791 504.835L31.7914 504.761L32.1301 504.525L32.351 504.216L32.6013 503.98L33.0431 503.907L33.4554 503.98L34.6776 504.525H35.4138L37.063 503.774L37.8434 503.583L38.5797 503.818L40.0522 504.835L40.8326 505.085L41.5247 504.923L42.1579 504.452L42.5996 503.701L42.7322 502.729L42.5849 501.831V501.418L42.688 500.932L43.0856 500.122L43.3359 499.725L43.5273 499.548H43.9102L44.2783 499.46L44.5581 499.21L44.7201 498.665V498.179L44.5728 497.928L44.3667 497.722L44.1311 497.369L43.9985 496.942V496.559L43.8955 496.191L43.6304 495.837L43.2034 495.572L42.7469 495.484H41.8045L39.0656 494.924H35.3549L34.3094 494.763H33.5143L32.7486 494.998H31.9976L31.2908 494.336V493.879L31.5853 493.599L31.9976 493.408L32.2626 493.231L32.3804 492.76L32.2332 492.392L32.0123 492.053L31.8798 491.626V491.17L32.2774 490.419V489.992L32.1301 489.55L31.5706 488.475L31.3055 487.533L31.7178 487.194L32.4393 486.973L33.0431 486.428L33.3523 485.942L34.7217 483.792L34.9132 483.292V482.982L33.8677 481.333L33.6468 481.009L33.4848 480.906L33.1461 480.73L33.0431 480.568V480.288V480.096L33.1314 479.92V479.699V479.139H33.0136L32.7633 479.301L32.3657 479.434L32.0418 479.272V478.859L32.1448 478.388L32.3363 478.064L32.6455 477.843L33.3965 477.534L33.7352 477.343L34.0444 477.019L34.1327 476.695L34.0149 475.222L33.9413 474.928L33.7793 474.736L32.9989 474.177L32.8811 474.059L32.778 473.912L32.6897 473.75L32.5719 473.603L32.3804 473.485H31.9681H31.4675L31.0552 473.396L30.9227 473.028V472.896L31.2613 472.395V471.865L31.0699 471.497L30.7607 471.261L30.3926 471.158H30.2011L30.0244 471.261H29.833L29.6416 471.173L29.5091 470.937L29.5827 470.805L29.7447 470.702L29.8477 470.51L29.7594 469.804V469.642L29.8772 469.421L30.0097 469.303L30.157 469.215L30.2895 469.053V468.846V468.095L30.3926 467.904L30.6134 467.83H31.0699L31.7914 467.477L32.1448 467.389L32.94 467.565L33.1167 467.271V466.814V466.373V466.166L33.0136 465.784V465.533V465.312L33.1903 464.885V464.65L33.0578 464.208L32.7044 463.943L31.0405 463.236L28.3605 462.927L27.5506 462.544L26.7996 461.881L26.5051 460.895L26.1517 459.82L26.2695 458.951L26.6818 457.331L26.7996 456.477L26.6524 452.914L26.564 452.531L26.3137 451.692V451.338L26.4757 450.749V450.587V450.366L26.2843 450.013V449.822L26.3873 448.953L26.7555 448.275L27.3003 447.804L28.2132 447.318V447.083L28.0807 446.803L27.5506 445.919V445.654L27.8451 444.329L27.6831 443.858L26.7407 442.96L26.5199 442.327L26.5051 441.752L26.9027 441.207L27.3739 440.721L27.6979 440.147L27.8451 439.485L28.0513 438.851L28.5961 438.366H29.1704L29.4649 438.837L29.7152 439.396L30.157 439.617L30.4073 439.514L30.5693 439.293L30.7018 439.028L30.9227 438.807L31.1435 438.704L32.4246 438.469L32.94 438.218L33.367 437.835L33.6026 437.335V436.068V435.892L33.264 435.465L33.1461 435.288L32.94 434.964V434.611L33.0136 434.228V433.815L32.6602 432.063L32.2921 431.342L31.8503 430.753L31.5264 430.09V429.177L31.335 428.367L30.3042 426.895V426.173L30.5545 425.864L30.9227 425.555L31.1877 425.304L31.3644 424.877V424.612L31.1583 424.347L30.9374 423.964L30.7901 423.567V423.258L30.9227 422.536V422.065V421.726L30.8343 421.388L30.6871 420.96L30.4809 420.048V419.282L30.9227 417.691L31.011 417.206V416.823L30.7901 416.028V415.527L30.9227 415.247L31.0994 415.115L31.2024 414.717V413.863L31.3497 412.994V412.479L31.0846 411.581V411.08L31.3791 410.079V409.622L31.2172 409.018L31.0257 408.606L30.3042 407.502L30.1128 406.972L29.4796 404.41L29.5974 404.144L30.9816 402.672L31.335 401.936L31.438 401.052V400.831L31.2613 400.581V400.345V400.169L31.6 399.535L32.3952 397.43L32.5277 397.15H32.7486L33.5143 397.371H33.7499L33.9266 397.18L34.6628 395.442L34.7512 395.059V394.823V394.588L34.6776 394.382L34.545 394.22L34.3242 394.087H34.2064L33.9708 394.19L33.8677 394.279V394.411H33.7941H33.5585L33.4259 394.293L33.0578 393.704L32.4835 393.115L32.2332 392.762L32.1007 392.35V392.188L32.2626 391.834V391.746L32.1743 391.51V391.275L32.3068 390.553L32.3804 390.332V390.126L32.3068 389.949L32.1743 389.743V389.581L32.4099 389.272L33.0283 389.198L33.8382 389.596L34.5303 389.729L34.7659 388.816V388.565L34.6334 388.065V387.814V387.608L34.7365 387.49L34.869 387.387L34.9721 387.27L35.6347 385.797L35.7819 385.296L35.7083 384.943L35.458 384.678L34.8395 384.104L34.6481 383.824L34.5598 383.485V382.97L34.4714 382.469L34.0149 381.379L33.9413 380.879L34.0444 380.452L34.2211 380.025L34.3094 379.627L33.9119 378.95V378.449L33.9855 377.934L34.1475 377.522L34.4272 377.153H34.6628L35.3107 377.89L35.4727 378.066L35.7378 378.287H36.047L36.4887 378.169H36.8716L37.2103 378.243H37.5048L37.814 377.934L37.9465 377.08L37.1072 376.299L37.5931 375.563L37.8434 375.269L38.1821 374.621L38.403 374.341L38.565 373.987L38.2705 373.251V372.795L38.5503 372.427L38.9478 372.162L39.2865 371.838L39.4338 371.263L39.6252 369.349L39.419 366.183L39.0951 364.446V363.827L39.3601 362.355L39.6399 361.766L40.17 361.25L41.8192 360.367L42.2904 359.954L42.526 359.631L42.6144 359.469H42.7616L44.1163 359.233L44.4108 359.086L45.4563 358.261L46.0011 358.025H46.7079L47.4737 358.129L47.886 358.055L48.1657 357.775L48.4161 357.23L48.5191 357.098L49.064 356.833L49.167 356.759V356.524L49.0787 356.376L48.9756 356.229V356.038V355.773V355.625L49.167 355.272L49.6235 354.624L49.8149 354.271V353.814L49.5499 352.96L48.9903 352.386L48.313 351.915L47.7093 351.37L47.2822 350.575L46.5165 346.879V346.172V345.465L46.6785 344.699V344.523L46.5607 344.081L46.4429 343.61V343.094L46.6932 342.711V342.579V342.329V342.196L46.1926 341.533L46.0306 341.165L45.9275 340.679L45.7655 340.193L45.2796 339.325L45.1471 338.338L44.455 336.983L43.5126 333.95L43.3948 332.919V332.433L43.5273 332.109L43.7335 331.859L44.0133 331.579L44.4403 331.314L44.5434 331.167V330.902L44.3225 330.49V330.239L44.4108 329.798L44.6906 328.929V328.472L44.6023 327.942L44.3519 327.53L43.7777 326.764L43.2917 325.66L43.115 325.027V324.511L43.2623 324.099L43.9838 323.215L44.19 322.744V322.302V321.846V321.375L44.3519 320.889L44.6023 320.58L45.2502 320.212L44.5728 319.622L44.3372 319.254L44.1752 318.165L44.0427 317.914L43.4684 317.561L43.115 317.237H43.2328L43.5862 317.325H43.9396L44.2783 317.105L44.4108 316.781L44.3372 316.471L43.8071 316.118V315.941L43.8955 315.765V315.588V315.396V315.293L43.7777 315.058L43.6304 314.925L43.4537 314.852L43.2917 314.749L43.2034 314.528V314.321L43.3212 314.115L43.439 313.939L43.5421 313.762L43.9985 312.54L44.0722 312.098V311.259V310.905L44.3519 310.64H44.7201L45.0587 310.891L45.3827 311.053L45.6625 310.846V310.478L45.3974 309.006V308.166L45.5299 307.136L45.8686 306.311H46.1484L46.4723 306.223L46.8405 306.355H47.1791H47.5031L47.827 306.12L48.0332 305.766L48.1657 304.927L48.3277 304.603L48.6369 304.5L49.0345 304.603L50.0653 304.809L50.2125 304.912L50.3156 305.03H50.4481L52.0531 304.618L52.2299 304.353V303.837L52.1268 303.572L51.847 303.086V302.806V302.615L52.1562 302.041V301.864V301.673V301.496V301.29L52.2887 301.157L52.4655 301.069L52.8041 300.981L53.0397 300.804L53.7171 299.92H53.8054L54.0116 299.817H54.0852V299.67V299.376V299.258L54.2619 298.816L54.3944 298.654L54.63 298.566L55.0423 298.654L55.8817 299.125H56.397L56.7505 298.89L57.045 298.536L57.1186 298.374L57.2658 298.094L57.4867 297.358L57.6045 297.152L57.9137 296.799L58.0315 296.519V296.165L57.5162 294.781V294.531L57.6487 294.104L57.7518 293.971L57.899 293.854L58.0168 293.721V293.544L57.899 293.368H57.5014L57.3542 293.265V292.484L58.5027 291.291V290.57L58.223 290.084L57.4278 287.713V287.36L57.6192 286.55V286.108L57.5014 285.21L57.6781 284.297L57.5309 283.958L57.2658 283.664L57.0008 283.296L56.5737 281.823V281.47L56.7799 281.293L57.1333 281.19L57.3542 280.984L57.148 280.424L56.5148 280.027L55.6902 279.924L54.9687 279.673L54.63 278.819L55.2779 277.7L58.1199 276.758L58.4438 275.285V273.739L58.7825 272.164L60.255 268.747L60.1814 268.482L59.9605 268.291L59.6955 267.967L59.5335 267.584L59.666 267.452H59.9605L60.3139 267.245L60.6968 266.553L60.8735 264.875L61.1385 264.124L61.4772 263.741L62.2282 263.093L62.5374 262.651L62.935 261.576L63.2 261.09L64.0394 260.369L64.2013 259.956V259.456V258.808V258.16L64.3339 257.659L64.4958 257.497L64.6431 257.35L65.5708 257.173H65.9389L66.3217 257.247L66.9697 257.483L67.0727 257.409V257.247V257.144L68.3244 256.584V256.364L68.1771 255.833L67.7206 254.979L67.6028 254.685L67.5145 254.317V254.125V253.949L67.6028 253.61L67.7501 251.946V250.93L67.5734 250.341L67.2347 250.253L66.9402 250.37H66.7782V249.752L66.9549 248.913V248.53L66.631 246.822V246.351L66.7635 246.1L67.382 245.6L67.6176 245.364V245.04L67.1316 244.333L66.9697 243.965V243.538L67.3525 242.316V242.08V241.889V241.697V241.462L67.4556 241.373L67.8237 241.226L67.9562 241.153V240.902V239.886V239.533L68.1477 239.194L68.6189 238.59L68.7661 238.252V237.825L68.4274 237.059L68.2802 235.866L67.8679 235.351L67.2789 235.012L66.631 234.762L65.9831 234.865L65.2026 235.984L64.7314 236.087L64.1719 234.777L63.9805 234.482L63.362 233.967L63.0822 233.643L62.935 233.275V232.656L63.2589 231.419V230.978L63.0822 230.624L62.9939 230.315L63.1411 229.888L63.3915 229.667L63.9805 229.52L64.2308 229.328L64.378 228.99L64.5695 228.077L64.6873 227.694L64.9965 227.09V226.766L64.7462 226.575L64.3339 226.398L64.0246 226.207L63.4209 225.618L62.4638 224.44L62.184 223.792L61.7275 221.465V220.876V220.464V220.287L61.8306 220.125H62.2429L62.4196 220.052L62.0515 219.492V219.109V218.712V218.255L61.8453 217.813L61.5508 217.578L60.8587 217.165L60.5348 216.518V214.927L60.2845 214.589L60.0489 214.265L59.6218 214.088H59.3126L59.0917 213.911L58.9592 213.381V213.204V212.822V212.615V212.409L58.7383 211.953V211.688V211.496L58.8709 211.143V210.937L58.7972 210.804L58.5027 210.569L58.4291 210.362V209.95V209.788L58.3113 209.597L58.0021 209.273V209.081V208.846L58.2524 208.595H58.6353L59.401 208.89H59.8574L60.0341 208.699L60.1814 207.918L60.3728 207.624L60.5642 207.373L60.6673 207.093V206.681L60.4612 206.328L60.1078 205.93L59.7249 205.592L59.4157 205.4L58.6205 205.282H57.9579L57.3247 205.12L56.6768 204.443L56.4854 204.045L56.3234 203.574L56.2351 203.074V202.161L55.9553 201.734L55.4105 201.086L54.4828 199.186L54.3208 198.656V198.273L54.4828 197.316V196.536V195.844V195.431L54.8067 194.769V194.371L54.7184 193.915L54.5859 193.532V193.134L54.9982 192.28V191.912V191.087V190.675L55.1012 190.336L56.1173 188.731L56.3381 188.584L56.6915 188.746L56.8241 189.203L56.9124 189.674L57.1333 189.939H57.4131L57.6929 189.674L57.9137 189.335L58.061 188.717L58.2377 188.304L58.65 187.642L58.9887 187.48L59.7691 187.597H59.9752V187.318L59.7544 187.038L59.239 186.567L58.9298 186.228L58.7531 185.889L58.6794 185.521L59.0328 182.576L59.2979 181.825L59.3862 181.678L59.7102 181.236L59.828 180.986V180.78V180.559V180.294V179.882L59.9311 179.543L60.2845 178.895L60.5642 178.159L60.8882 176.554L61.2563 175.965L61.5655 175.759L61.86 175.611L62.0809 175.39L62.2135 174.963L62.1251 174.522L61.6833 173.756V173.388L62.1693 173.167L63.6418 173.903L64.2602 174.08L64.9081 173.888L65.453 173.609L65.9389 173.196L66.3954 172.652L66.5721 172.298V171.915V171.12L66.6457 170.737V170.546V170.384L66.8224 170.207L67.1758 170.06L67.3231 169.913L67.5587 169.132L67.3083 168.396L66.7488 167.836L66.0567 167.586L65.3499 167.689H65.0701L64.9523 167.336V167.056L65.5855 166.099L65.8211 165.333L65.9242 164.567L66.042 161.755L66.2628 159.723L66.1156 159.458L65.6444 159.046L65.4677 158.648V158.162L65.5413 157.544V156.925L65.129 154.937L65.0407 154.687L64.9376 154.466L64.7903 154.275L64.6431 153.141L64.5106 152.832L64.3486 152.567L64.2308 152.272V151.919V150.917L64.4075 150.49L64.7903 150.269H64.9818L65.1585 150.152L65.3352 150.004L65.4235 149.813V149.666L65.2026 149.386V149.268L65.291 149.136H65.3793H65.4677L65.7475 148.885L66.2334 148.576L66.4248 148.385L66.5574 148.149V147.987L66.631 147.869L66.9255 147.751L67.8384 147.589L68.236 147.398L68.5747 146.956L68.6925 146.5V145.94L68.5747 144.909V144.497V144.07V143.658L68.7072 143.26L68.8839 142.951L69.1048 142.686L69.2079 142.391V142.053V141.861L69.7232 140.904V140.536V140.08L69.4582 139.196L69.3698 138.74V138.033L69.5907 137.355L69.9294 136.737L70.3122 136.192L70.4595 136.104H70.6067L70.7245 136.03V135.795V133.63L71.0632 132.467V132.393L72.1529 131.495L73.1395 130.7L73.9199 129.669L74.0819 129.316L74.2733 128.241L74.5383 128.035L74.9065 128.197L75.2746 128.462L75.5544 128.535L75.7016 128.329L76.0992 127.504L76.5115 126.857L77.1741 125.251L77.5128 124.928V124.78V124.633V124.471L77.7042 124.162L77.9251 123.956L78.2049 123.823L79.2798 123.529L79.751 123.175L80.0602 122.616L80.767 119.509L80.9437 118.728L81.0468 118.478L81.2235 118.345L81.7242 118.11L81.8125 117.948V117.653L81.68 117.403L81.5769 117.138V116.799L81.6947 116.578L82.107 116.181L82.269 115.975L82.7402 114.988L82.9022 114.429V113.943V113.663V113.383V113.118L83.0347 112.882L83.3439 112.647L83.9771 112.308L84.2569 112.058L84.463 111.778L85.3465 109.746V109.407V108.597V108.244L85.4054 107.788L86.1564 106.521L86.4215 106.197L86.6571 106.035L87.3344 105.873H88.159L88.8069 106.286L89.4107 106.786L90.1175 107.081H90.5592L90.7506 106.801L90.8684 106.403L91.0746 105.947L91.3986 105.608L91.7961 105.328L92.2232 105.166H93.1508L93.5337 105.063L94.3436 104.71H94.535H95.0504H95.1829V104.548V104.047V103.797L95.286 103.399L95.5805 102.663L95.6688 102.295V101.721L95.4038 101.147L91.9581 96.2578L91.3397 95.4627L90.8832 94.6675L90.5592 93.8135L90.4267 92.7827V91.1482L90.5445 90.3236L90.7654 89.6315L91.2955 88.9395L93.5779 87.1283L93.784 86.4215L93.6368 85.3907L92.3851 80.2075L92.1643 78.573L92.0317 78.0429L91.7814 77.5717L91.428 77.2183L91.104 76.7176V76.1581V75.628L90.9421 75.2157L91.1924 74.9065L90.9863 74.4794L90.3089 73.6254L90.2206 73.2573V72.8891V72.1382L91.163 69.1931L91.855 67.0285L92.2084 66.5573L92.5618 66.3365H92.8416H93.1361H93.519L93.9165 66.2628L94.2699 66.1009L94.5055 65.8211V65.4235L94.2405 64.9818L93.6809 64.4517L93.2539 63.8479V63.1117V62.9202V62.7877L93.1656 62.6699L93.0625 62.5079V62.4196L92.768 62.2576V62.1693V61.9778V61.8453L92.6355 61.5655L92.5177 61.4036H92.3262H91.9581L91.8256 61.3005L91.3986 61.0502L91.2955 60.8146V60.682L90.8832 59.6071V59.2684L91.001 58.8414L91.9287 56.9566L92.1201 56.2792V55.9847V55.6902L92.2673 55.4841H92.5177L92.8711 55.97L93.0625 56.0878L93.195 55.705L93.3128 55.1012L94.0491 53.5257L94.373 53.3342H94.6823L95.0062 53.4373H95.3301L95.5658 53.2164L96.2284 52.1268L96.4051 51.5672L96.4934 51.42L96.8174 51.1991L97.4211 50.934L98.3341 50.5512L99.247 50.1683L100.131 49.7708L101.029 49.3879L103.296 48.3719L105.564 47.3558L107.832 46.3251L110.085 45.3238L110.261 45.2502L110.615 45.1176L110.983 44.9704H111.145L111.866 44.6906L112.765 44.19L113.177 43.601L113.575 42.3051L114.178 40.3025L114.856 38.2852V38.079L116.137 33.8677L117.403 29.6858L118.669 25.4891L118.993 24.4436L119.096 23.8252L115.842 20.3206L116.77 18.7597L117.3 18.1118L118.669 17.0222L118.861 16.7277V16.3007L118.714 14.4747H119.023H119.42L119.7 14.4011L119.936 14.2391L120.112 13.9741L120.481 13.5765L121.011 13.2526L123.043 12.6047L123.249 12.4721V12.3249L123.146 11.7801V11.6181L123.381 11.3236L123.514 10.8818L123.72 9.40932L123.853 8.95285L124.088 8.55527L124.515 8.20187L124.751 8.08407H124.957H125.148H125.502L125.796 8.18714H125.899V8.06934V7.92209V7.81902L128.226 7.36254L130.626 6.65573L131.068 6.31706V6.14036L131.259 5.89003L131.392 5.72805L131.554 5.62498H131.775H131.848L131.966 5.38938V5.09488L132.143 3.26897L133.115 0.103076L133.439 0L134.911 0.500653L135.692 0.89823L136.251 1.50196L136.472 2.45909L136.56 2.56216L138.239 2.85666L138.622 3.07754L141.007 5.89003L141.537 6.27288L142.097 6.44958L144.615 6.15508H144.748L144.836 5.89003H144.924H145.071L146.338 6.08146L147.295 6.18453H152.139H155.217L158.619 6.97969L159.885 7.70121L160.606 7.87792H160.768L161.107 7.73066H161.24H161.402H161.784L162.123 7.99572L162.535 8.20187L162.904 8.29022L163.066 8.40802L163.551 8.99702L163.699 9.23262L163.861 9.6302V9.8658L163.743 10.1309L163.507 10.4106L163.316 10.8671L163.566 11.2205L163.934 11.4856L164.185 11.7064V11.9126L164.052 12.2954V12.4869L164.155 12.6341L164.479 12.855L164.553 12.9728L164.656 13.4145L164.921 13.7679L165.922 14.784V15.0638L165.79 15.2699L165.642 15.4466V15.6528V15.8589L165.554 16.2418V16.4626V16.7571L165.672 16.8602L165.834 16.9338L166.011 17.0664L166.496 18.1118L166.688 18.2738L167.085 18.4505L167.336 18.8923V19.4224L167.189 19.8936L167.409 20.1734V21.0863L167.748 21.2483V20.998L168.175 19.5255L168.337 19.1426V17.6701L169.132 14.7251L169.383 14.2539L170.325 13.3704L170.767 12.7225L172.107 9.18845L172.239 9.0412L172.607 8.84977L172.74 8.62889L173.314 7.15639L173.594 6.05201L173.756 5.74278L173.844 5.66915H173.977H174.109L174.242 5.5219L174.315 5.35993V4.97708L174.492 4.55005V4.41752L174.742 4.29972L175.228 4.21137L176.922 4.32917L177.29 4.49115L178.041 5.15378L178.247 5.25685L179.086 4.49115L179.381 4.32917L180.073 4.21137H185.772H191.47L194.371 4.03467L195.166 4.18192H195.417V4.35862L195.534 5.09488V5.30103V5.463L195.667 5.6986V6.31706L195.799 6.65573L196.05 6.93551L196.904 7.34781L197.684 7.90737L197.905 8.14297V8.31967V8.49637V8.62889H198.067H198.244L198.391 8.71725L198.523 8.84977L198.612 8.99702H198.494L198.612 9.26207L198.538 9.46822L198.42 9.64493V9.8069L198.553 9.9836L198.789 10.3076H199.039H199.245L199.672 10.4106L199.981 10.6757L200.423 11.25L200.644 11.353L201.38 11.5886L201.527 11.7212L201.66 12.0157L201.969 12.3249L203.206 13.2526L203.559 13.3851H203.692L204.34 13.4734H204.531L204.664 13.5618V13.6501V13.9741V14.1066H204.767H204.885H204.988L205.385 14.5778L205.533 14.9312L205.43 15.2552L205.179 15.6233V15.8589L205.415 16.0651L205.857 16.2712H206.092H206.195L206.298 16.4774L206.166 16.9044V17.1547L206.504 17.3756L206.284 17.8468L206.357 17.9499H206.608L206.725 18.1118V18.3327L206.843 18.5389L207.344 19.0984V19.2457V19.4224V19.5696H207.476V19.6433L207.638 19.7758L207.815 19.9083H207.903V20.1439L208.08 20.3795L208.463 20.7771L208.728 21.1747L209.067 21.9109L209.258 22.2054V22.3821L209.17 22.8533V22.9417V23.03L209.42 23.4129L210.053 24.1197L212.071 25.3566L212.218 25.5038L212.63 26.1076L212.851 26.299L213.249 26.5346L213.455 26.7113L213.646 26.9469L213.764 27.1236V27.3592V27.7273L213.838 28.066L214.044 28.2427L214.309 28.3605L214.559 28.5372L214.854 28.8464L215.001 28.9495L215.251 29.0231H216.105L216.37 29.1409L217.283 30.1128L217.445 30.2011H217.651H217.975L217.887 30.3631L217.813 30.584V30.7901L218.108 30.9816L218.285 31.438L218.447 31.5411H218.829H219.168L219.463 31.6589L219.742 31.8651L219.948 32.0565L220.14 32.189H220.39H220.803L221.981 32.7191L222.128 32.9694L222.231 33.2787L222.422 33.5437L222.79 33.6615L222.952 33.7351L223.306 34.1033L223.468 34.2064H223.6H223.954H224.086L224.322 34.3978L224.557 34.6776L224.822 34.9132L225.146 35.031L225.367 35.1929V35.5905V36.047L225.205 36.3709L225.367 36.5476L225.677 37.0777L226.162 37.3428L226.457 37.7256L226.663 38.1379V38.403L226.781 38.5208L227.046 38.9478L227.208 39.1245L227.782 39.4927L228.474 39.2865L229.137 39.6252L229.741 40.1258L230.271 40.4351H230.639H232.229H232.406L232.774 40.7443H232.951H233.775H233.996L234.188 40.8179L234.497 40.9799H234.674V41.0977L234.968 41.7309H235.071H235.719L236.043 41.8928L236.647 42.3199L237.766 42.5407H238.414H238.576L238.767 42.6733L239.121 42.9825L239.312 43.1003H239.489H240.063L241.535 43.3212H242.89L243.332 43.2181L244.171 42.9089H244.554H244.878L251.401 47.3264L252.093 48.0332L252.417 48.4749L252.55 48.5928H252.727H253.183L253.492 48.7842H253.816L253.963 48.8873L254.17 49.1081L254.361 49.2554L254.773 49.5057L255.156 49.6824L255.274 49.7708V49.918V50.0947L255.348 50.2567L255.789 50.4481L256.481 51.0813L256.658 51.2727L257.026 51.9795L257.321 52.3476L257.924 52.5685L258.16 52.8483H258.322H258.602L258.734 52.9514L258.837 53.0839L258.999 53.2312L259.765 53.4815L260.28 53.8496L260.707 54.0116L261.385 54.4533L261.738 54.5859H262.077H262.195L262.371 54.6889L262.725 55.0571L262.902 55.1896L263.491 55.3368L266.951 57.9726L267.334 58.0757H268.261L268.512 58.1641L268.644 58.2671H268.792L268.895 58.3555V58.5027L268.983 58.6058L272.988 59.3862L273.386 59.5924L273.607 59.8133L274.048 60.417L275.212 61.7275L275.315 61.9189V62.0809L275.418 62.1987H275.639H275.845L276.08 62.0809L276.301 61.9189L276.802 61.3888L277.111 61.168H278.304L279.938 62.3018L280.115 62.5963H280.351L281.602 63.2295H281.779H282.191H282.353L282.486 63.3915V63.6271L282.604 63.8332H282.854H284.327L284.68 63.9657L284.945 64.1866L285.74 65.129L286.005 65.3352L286.579 65.6149L286.8 65.88L287.375 67.1758L287.728 67.6764L288.288 68.0593L288.832 69.5318V69.7674L289.952 70.6656L290.202 70.9307L290.334 71.1957V71.5197L290.099 73.272L289.996 73.6254L289.79 73.8463H289.539L289.348 73.9935L289.259 74.4647L289.142 74.5825H288.847L288.317 74.5089V74.5972L288.214 75.0537V75.2157L288.037 75.3188H287.861H287.478L287.08 75.4807L286.859 75.7016L286.476 76.2759L286.594 76.4379L286.741 76.5557L286.903 76.644H287.095L286.903 76.8943L286.594 77.2183L286.255 77.4833L285.917 77.6012L285.652 77.7778V78.1607L285.932 78.8381L285.725 79.1178L285.608 79.2062L285.357 79.3976L284.974 79.6038L284.592 79.751V79.8835V80.0308L285.019 80.178V80.3989L284.916 80.6198L284.798 80.7818L284.165 81.2971L284.032 81.6064L284.871 81.8567V82.1217L284.636 82.4457L282.53 84.0213L281.926 84.3747L280.763 84.8017L280.572 84.9931L280.395 85.6705L280.233 86.0975L280.071 86.3184V86.1711L279.968 86.0533L279.821 85.965H279.644V86.3184L279.85 86.5245L280.145 86.6718L280.41 86.8632V88.3505L280.086 88.6008L279.673 88.7628H279.394L279.246 88.8953V89.234L279.335 89.8819V90.2058L279.232 90.5003L278.628 91.5752L278.51 91.8992V92.1495L278.952 92.5618V92.7827L278.702 92.9741V93.1361V93.4895L278.598 93.7987V94.108V94.4466L278.702 94.5644L279.114 94.8589L279.217 95.0209L279.379 95.3007L279.482 95.4185L279.364 95.5363L279.055 95.7719H278.981V96.0075L279.07 96.1989L279.173 96.3609V96.5376L279.084 96.6701H278.864L278.289 96.5523H278.201L278.113 96.7879L278.024 97.1708V98.7464V98.8494H277.892H277.671L277.376 98.9378V99.1292L277.524 99.3648L277.597 99.5415L277.347 99.8066H277.038L276.714 99.7035L276.419 99.8066L276.184 100.248L276.404 100.528L276.743 100.778L276.846 101.132L276.611 101.338H275.786L275.609 101.529L275.433 101.78L275.05 101.942L274.24 102.163L273.96 102.354L273.813 102.619V102.884L274.093 103.12L273.945 103.414L273.621 103.812L273.459 104.092V104.254V104.401V104.739V104.843H273.297L273.18 104.769V104.622L273.077 104.533L272.915 104.622L272.797 104.769L272.708 104.916V105.078V105.255V105.623V105.947L272.62 106.153L271.707 106.315L271.295 106.565L271.03 106.978L270.941 107.567L271.044 107.817L271.295 108.067L271.751 108.406L271.972 108.789V109.216L271.899 110.217H271.972L273.592 109.525L278.525 109.083L280.498 109.348H280.778L281.867 109.142H282.442H282.766L283.841 109.363L284.4 109.613H284.65L285.446 109.79L286.211 110.055L288.067 110.453H288.258L291.203 111.925L291.498 112.028H291.615H292.072L293.913 111.763H294.457L294.84 111.866L295.002 111.984L295.297 112.279L295.429 112.397L295.606 112.5H295.783L296.607 112.72L296.784 112.809L297.27 113.221L297.432 113.339H297.623H298.212H298.919L299.508 113.192L301.305 112.205L301.967 111.94H302.63L303.263 112.205L304.382 113.324L305.03 113.736L305.693 113.604L306.62 112.882L307.445 112.632L307.887 112.5L309.094 112.676L309.83 113.604L310.169 114.149L310.64 114.694L311.185 115.135L311.745 115.371L312.319 115.253L312.643 114.753L312.893 114.119L313.247 113.604L313.6 113.206L313.821 112.809V112.352V111.793L313.909 111.351L314.336 111.115L314.852 110.968L315.264 110.791L315.927 110.026L316.265 109.761L316.722 109.496H317.193L317.635 109.584L318.842 110.07H319.24H319.681H320.123H320.535L320.904 110.217L321.183 110.6L321.448 111.366L321.61 111.572L321.831 111.69L322.317 111.837L323.407 112.441L324.084 111.896L324.732 111.13L325.247 110.733H325.689L326.072 110.512L326.367 110.158L326.543 109.687V109.407V109.245V109.098L326.794 108.686V108.48V108.259V108.023L326.352 107.184V106.875L326.823 106.757L327.132 106.595L327.235 106.227V105.814L327.442 105.49H327.795H328.296H328.752L328.944 105.166V104.224L329.047 103.812L329.267 103.429L329.577 103.09L329.886 102.869L330.254 102.766L331.108 102.649L331.992 102.163H332.419L332.816 102.325L333.14 102.501L333.42 102.59H334.141L334.568 102.516L334.848 102.266V101.824L334.598 101.029L334.716 100.675L335.894 99.4973L336.262 99.3648L337.145 99.2765L337.44 99.1439L337.705 98.8347L337.882 98.5255L338.014 98.1721L338.25 97.2444L338.441 96.8321L338.75 96.5523L339.177 96.4345H339.987H340.12L340.208 96.5376H340.311L340.488 96.4492L340.738 96.1106L340.886 95.6688V95.1682V95.124V94.7559L340.797 94.4614V94.1816L340.974 93.8135L341.254 93.4895L341.754 93.0625L342.314 92.4293L342.476 92.1495L342.549 91.8256L342.726 90.5887V90.4709V90.3678L343.006 89.7346V88.8217V88.4241V88.3505L343.153 88.0707L343.359 87.7762L343.477 87.5553V87.2902L343.153 86.8927L343.08 86.5834L343.462 85.3024V84.8459L343.256 84.198L343.168 83.5795V83.3734V83.1672L343.286 82.9611H343.433H343.875H344.022L344.184 82.6519V82.269L344.037 81.3708L344.14 81.0321L344.331 80.7229L344.508 80.3547V79.913L344.39 79.6774L343.978 79.162L343.889 78.897V78.4994L343.566 77.4392V76.9091L343.742 76.7176H344.375L344.64 76.5409V76.1286L344.346 75.4807V75.1273L345.067 75.039L345.333 75.1273L345.436 75.3629V75.6574L345.553 75.8489L345.936 75.7605L346.304 75.9225L346.628 76.1581L346.864 76.482V76.9091V77.0858V77.3066L346.982 77.4245L347.158 77.3508V77.1741V76.7471V76.5409L347.276 76.379L347.6 76.1875L347.747 76.0256V75.8341V75.4366L347.88 75.2599L348.042 75.1715H348.189L348.513 75.304H348.705L348.999 74.8917L349.205 74.7592H349.617H349.883L350.074 75.0095L350.265 75.4366L350.413 75.6133L350.516 75.4955L350.619 75.1862H350.884L351.237 75.2893H351.591L351.517 74.9359L351.149 74.3027L351.296 74.2291H351.473L351.826 74.3616H352.047L352.239 74.2438L352.71 73.6843L352.828 73.5959H352.931H353.019V73.699V74.0671L352.857 74.3911L352.754 74.7298V75.1273L352.842 75.304L353.004 75.4955L353.181 75.6427H353.358L353.431 75.4955V75.0979V74.8623V74.6709L353.549 74.4942L353.741 74.5972L354.05 74.9065H354.271L354.388 74.8328H354.506H354.757L355.095 75.0243L355.331 75.3188L355.449 75.6722V76.0845L355.611 76.5998H355.964L356.656 76.1728L356.862 76.379L357.068 76.8207L357.26 77.557V77.7189L357.186 77.8662V78.0576V78.308L357.289 78.5288L357.643 78.8675L357.805 79.0589L357.967 79.4418V79.7952L357.893 80.9732L358.114 82.0481V82.2543L358.04 82.431V82.6224V82.8727L358.173 83.0936L358.776 83.6384L359.277 84.1833L359.483 84.8017L359.616 85.4643L359.851 86.1711L360.735 87.4081L361.059 88.0412L361.162 88.8658L360.941 89.5285L360.175 90.6181L360.013 91.2218L360.234 93.1067V93.7251L359.984 93.9313L359.851 94.0785V94.2258V94.4172V94.6233L359.925 94.7559V95.0945L359.689 95.8013V96.1842L359.793 96.9499V97.318L359.675 97.7009L359.527 97.804H359.351H359.204V98.0248L359.292 98.2752L359.439 98.393H359.601H359.675V98.658L359.557 98.9378V99.1439H359.778L359.999 99.8949L360.205 101.102V101.721L359.984 102.457L359.189 104.15L359.1 104.268H358.983H358.688H358.6L358.526 104.533V105.108V105.387L358.438 105.52L358.173 105.697L358.099 105.8V105.947L358.276 106.138V106.315L358.07 106.654L357.864 106.801L357.731 106.668L357.569 106.344L357.378 106.035L357.127 105.903L356.965 106.05L356.818 106.698L356.641 106.889H356.347L356.111 106.683L355.89 106.521L355.64 106.654V106.919L355.728 107.199V107.405L355.375 107.493H355.242V107.405H355.154H355.022L354.919 107.522L354.786 107.891L353.446 109.363H352.783L352.253 109.172V108.73L352.091 108.583L351.87 108.435L351.65 108.789L351.134 110.261L351.046 110.423L350.957 110.541L350.884 110.718V111.13V111.307H350.751H350.545H350.354L350.265 111.498V111.675L350.148 111.866L350.015 112.043H349.927H349.573L349.308 111.852L349.073 111.572L348.822 111.336V111.999V112.19L348.705 112.397L348.543 112.544H348.395V112.352V111.896L348.219 111.646H347.939H347.203H346.908V111.866L347.203 112.323V112.603L346.834 112.824L345.656 113.177H345.48L345.288 113.089L345.215 112.986L345.038 112.617V112.529H344.891H344.802H344.699L344.537 112.662L344.405 112.838V113.059L344.302 113.427L344.11 113.81L343.86 114.046H343.094L343.006 113.663V113.575H342.873L342.756 113.692V113.913V114.856V114.944L342.594 115.047H342.417H342.019H341.622L340.856 115.297H340.738L340.635 115.15V115.047V114.929V114.841L340.532 114.62H340.311L340.061 114.826L339.899 115.003L339.781 115.415V115.931L339.634 116.372L339.266 116.549H338.677H338.53V117.315L338.441 118.213L338.338 118.669L338.235 118.876L337.867 119.008L336.924 119.862H336.497L336.159 119.759L335.85 119.597L335.496 119.509L335.187 119.656L335.364 119.995L335.923 120.495L336.188 120.922L336.115 121.143H335.835L335.437 120.908L335.246 120.996H334.848H334.686V121.128L334.539 121.703L334.171 121.614L333.773 121.232L333.479 121.143L333.125 121.29L332.86 121.629L332.639 121.968L331.992 122.483H331.815H331.609L331.241 122.351H331.005L330.725 122.63V122.999L330.637 123.337L330.254 123.484H330.077H329.945L329.842 123.691V123.882V124.324V124.442L329.724 124.648L328.914 125.59L328.811 125.767L328.369 125.885H328.178H328.045L327.972 125.752H327.854L327.618 125.855V125.958L327.427 126.43L327.338 126.503L327.103 126.68L327 126.783L326.911 126.945V127.107L326.838 127.225H326.632H326.411V127.063V126.886V126.753L325.998 126.665L325.778 126.915L325.66 127.225L325.513 127.387L325.336 127.504L324.57 128.241L323.422 128.653L322.965 128.977L323.083 129.507L323.289 129.669L324.025 130.008H324.261L324.511 130.111L324.703 130.361L324.938 130.862L324.688 131.848L324.57 132.128L324.393 132.378L323.952 132.526H323.775V132.128L323.495 131.745L322.833 131.569L322.082 131.48L321.552 131.333L320.727 131.686L320.403 131.981L320.491 132.408V132.585V133.689V133.777L320.329 133.895H320.182H319.593L319.092 134.145L318.503 134.293L318.327 134.587V134.955V135.323V136.133L317.973 136.619L316.854 137.429L315.382 139.402L314.778 139.815L313.924 139.977L313.556 140.153L313.394 140.477L313.276 142.244L312.878 142.966L311.642 143.717L311.288 144.527V145.366V145.764L311.067 146.146L310.773 146.323L309.521 146.647L308.888 146.986L308.24 147.442L307.636 148.031L307.165 148.767L307.033 149.032L306.93 149.327V149.636L307.047 149.916L306.871 150.314L306.576 151.197L306.355 151.536L306.061 151.83L305.825 151.992L305.177 152.316L305.015 152.434L304.883 152.567L304.78 152.714L304.691 152.905V153.111V153.538L304.397 153.7L304.25 153.936L304.146 154.186V154.392L304.073 154.554L302.6 155.821L302.468 156.115L302.321 156.292L301.614 156.881L301.349 157.175L301.113 157.897L300.568 158.471L300.495 158.692L300.362 158.898L299.022 160.371L298.683 160.665L298.315 160.798H297.52L296.754 160.916L295.974 161.21L295.459 161.681L295.149 162.373L294.958 164.818L294.84 165.142L293.029 166.393L291.321 168.573L290.54 169.117L290.187 169.25L289.407 169.397H288.994L288.847 169.603V170.06L289.112 170.958L288.98 171.783L288.582 172.46L285.019 175.729L284.518 176.362L284.297 177.113V177.938L284.709 178.748L284.974 179.16L285.387 180.044L285.534 180.515L285.696 181.251L285.828 181.796V182.179V182.709V183.798L285.725 184.314L285.622 184.638H285.401H284.974L284.209 184.844L283.87 185.065L283.738 185.448L283.841 185.683L284.606 186.817L284.754 187.804L284.415 188.525L283.958 189.232L283.738 190.16L283.855 191.102V191.662L283.679 191.897L283.296 192.707L283.163 192.84L282.869 193.075L282.736 193.208L282.574 193.649L282.486 194.607L282.309 195.019L282.029 195.255L281.337 195.682L280.999 195.961L280.763 196.624L281.205 197.169L281.426 197.331L281.897 197.699L282.368 198.303L282.501 199.245L282.339 200.187L281.249 203.471L281.058 203.78L280.616 203.957L279.762 204.134L279.364 204.296L279.084 204.517L278.584 205.076L278.466 205.518L278.687 205.945L279.261 206.608L279.438 207.27V208.183V209.14L279.261 209.98L278.849 210.642L278.746 211.069L278.952 211.526L280.189 213.19L280.38 213.808L280.292 214.471L279.143 216.135L278.687 217.092L278.51 217.327L278.157 218.285V219.256L278.363 221.892L278.702 223.365L278.937 225.573L279.114 226.015L279.6 226.796L279.688 227.134V227.532L279.423 228.371V228.842L279.615 229.829V230.359L279.453 230.609L278.79 231.198L278.569 231.272H278.142H277.906L275.344 230.845L274.696 231.125L274.608 231.228L274.49 231.434V231.625L274.844 231.773V231.949V232.156V232.376V232.848L274.667 233.819V234.232L274.961 235.174L275.05 235.66L274.858 235.881L274.549 236.058L274.181 236.455L273.68 237.206L273.342 238.001L273.062 238.944L272.885 239.916L272.812 240.784L272.929 241.756V241.977L272.753 242.404L272.591 244.024V244.51L272.753 245.379L273.047 246.085L274.034 247.558L274.196 247.926L274.284 248.353L274.358 249.354L274.579 250.547V250.768L274.475 251.018V251.225L274.667 251.313H274.844L275.285 251.534L275.418 251.652L275.55 251.975V252.417V253.374L275.433 254.066V254.332V254.449L275.609 254.847V255.082L275.006 255.745L274.932 255.907L274.829 256.216L274.755 256.364L274.475 256.688L274.137 256.938L273.769 257.041L273.445 256.894H273.297H272.635L272.517 257.011V257.159L272.414 257.291H272.193L273.253 257.895L273.562 258.175L274.078 258.602L274.299 258.999L273.96 259.706L273.739 259.898L273.533 260.133L273.268 260.531V260.825L273.401 261.134L273.872 261.576V261.753V262.416L274.269 262.681L274.608 262.857L274.976 263.152L275.595 263.535L275.874 263.829L276.213 264.315L276.449 264.845L276.743 265.405L278.216 266.362L279.055 267.113L279.688 267.452L280.351 267.525L280.793 267.614L281.352 267.952L281.941 268.085L282.501 268.261L283.134 269.086L283.62 269.292L284.636 269.189H284.842L285.195 269.587L286.005 270.132L286.874 270.956L288.17 271.486L289.642 272.679L291.115 273.238L291.748 273.931L292.484 274.505L294.237 276.272L294.884 277.141L295.68 278.039L296.062 278.466L296.916 279.821L297.638 281.19L298.153 282.191L298.256 282.736L297.947 283.693L297.299 284.533L296.519 285.578L294.649 288.611L294.119 289.304L293.883 290.113L293.78 290.702L293.603 291.615L293.382 292.322L293.559 293.147L293.751 294.045V294.678V294.884V295.12L294.089 295.414V295.65L294.56 296.887L294.634 297.373V297.579L294.958 297.741L295.311 298.109V298.198L295.429 298.698L295.68 299.155L298.212 301.673L300.068 302.821L300.892 302.998L301.305 303.204L301.466 303.499L301.157 303.823L301.275 303.97L301.614 303.646L301.982 303.395L302.777 303.057L303.189 302.983L304.382 303.057L304.191 302.541V302.203H304.441L304.824 302.497L304.927 302.777L305.163 303.69L305.266 303.881L305.604 304.294V307.106L306.031 308.343V308.888V311.965L306.105 314.557L306.031 315.529L305.707 316.295L303.823 318.798L302.041 321.61L299.685 325.836L299.007 327.309L297.02 330.107L296.386 330.828L294.428 332.625L293.706 333.832L293.5 334.038L293.206 334.2L291.733 336.041L291.203 336.895L290.761 337.823L290.452 338.765L290.275 339.722V340.724V340.871L290.423 341.136V341.298V341.43L290.334 341.651V341.74V342.417V342.682L289.922 343.536L289.289 344.272L287.61 345.465L285.725 346.555L284.43 347.527L281.588 349.235L280.969 349.338L280.734 349.47L279.791 350.28L279.099 350.663L276.935 351.561L276.257 351.973L275.933 352.121L274.328 352.386L272.988 352.842L271.648 353.652L268.703 354.329L264.875 355.669L263.844 356.362L263.284 356.494L262.651 356.774L257.497 357.819L252.344 358.865L249.399 360.146H249.001H247.735L239.474 361.721L236.529 362.222L233.702 362.576L229.962 363.327H227.929L227.473 363.209H227.237H227.017L226.855 363.312L226.619 363.503L224.94 363.945L221.421 363.488H220.287L219.109 363.886L218.932 364.048L218.667 364.166L215.811 363.754L215.575 363.547L215.251 363.444L215.06 363.223H214.957H214.809H214.677L214.574 363.297H214.471L213.72 363.459H212.851L209.45 362.443L208.772 362.104L208.242 361.618L207.874 360.941L207.579 360.102L207.344 359.675L207.079 359.483L204.134 359.262L203.825 359.086L203.412 358.953L203.029 359.204L202.838 359.586L203.015 359.807L202.897 360.293L203.236 361.177L203.132 361.574L203.383 361.353H203.618L203.81 361.515L203.898 361.825V362.693V362.855L204.09 363.003H204.355L204.944 362.87V362.988L204.826 363.282L204.723 363.65V363.974L204.281 364.225L204.104 364.446L203.869 365.27L203.677 365.756L203.559 365.977L203.427 366.154V366.316L203.53 366.492L203.677 366.684V366.875V367.302L203.589 367.67V368.039L203.721 368.466L204.045 368.848L204.855 369.482L205.209 369.894H204.929H204.708L204.237 369.644L203.972 369.938L204.134 370.188L204.546 370.365L204.973 370.453H206.446L206.887 370.571L208.36 371.293L209.126 371.852L209.538 372.471V372.765L209.464 373.03L209.332 373.281L209.155 373.457L208.934 373.56H208.787L208.669 373.443L208.537 373.34L208.183 373.148L207.138 372.22L206.799 371.735V371.602L206.711 371.352L206.622 371.249L206.475 371.175H206.401H206.151L205.798 371.087L204.782 371.175V371.396L204.855 371.617L204.944 371.823L205.106 371.985H205.297H205.547H205.753L205.842 372.191L205.989 372.677L206.343 373.163L207.093 373.884L207.432 374.076L208.316 374.311H208.772L208.875 374.429V374.65V374.959L208.802 375.21L208.581 375.416L208.492 375.622V377.286L208.375 377.536L208.286 377.801L207.83 381.026V383.117L207.741 383.515H207.624L206.976 383.912V384.015L205.606 383.78L205.209 383.529L204.414 382.896V383.146V383.382L204.782 383.868L204.34 384.074L204.237 384.266V384.575V385.164L204.163 385.561L203.913 386.415L203.795 387.211L203.442 388.197L203.294 388.403V388.624L203.78 390.097V390.583L203.501 391.584L203.427 391.967L203.265 392.423L202.882 392.674L202.426 392.836L202.072 393.027L201.763 393.336L201.439 393.763L201.174 394.234L201.071 394.72L201.159 395.059L201.689 396.105L201.969 397.503L202.131 397.724V397.827L202.426 398.387L202.602 398.534L203.177 398.711L203.78 399.138H203.986V399.27V399.83V399.962L204.252 400.169L204.458 400.552L204.693 400.772L205.047 400.463L205.297 401.538V402.142L205.003 402.422L204.134 402.26L204.045 402.157L203.766 401.73L203.574 401.597V401.818V402.009V402.171L203.692 402.333L203.81 402.584V402.775L203.721 402.893H203.648L203.825 403.246L203.957 403.349L205.43 402.48L205.989 402.274H206.563L206.357 402.539L205.709 403.025L205.562 403.335V403.688L205.4 404.41V404.807L205.326 405.131L204.782 406.206L204.296 407.502L203.81 408.15L201.115 409.622L198.936 410.992L197.714 411.492L197.404 411.728L197.066 412.052L196.712 412.229L196.315 412.302H195.844L195.417 412.214H195.24L195.034 412.479L194.548 412.891L194.283 413.2L192.987 413.554L190.852 414.702L190.012 414.879L186.066 414.717L185.286 414.967H184.859L183.136 414.805L180.544 414.967H177.702L176.878 414.776L176.112 414.364L174.301 412.597L173.491 412.229H172.74L172.563 412.125V411.89V411.639L172.725 411.301L172.548 411.124L172.121 411.227L171.635 411.433L171.238 411.536L170.516 411.345L166.099 408.989L163.655 408.326L161.976 407.443L160.341 407.06L159.458 406.986L158.191 407.119H157.617L157.146 406.957V406.589L157.485 406.339L157.941 406.191L158.265 406.265V406.677H158.398H158.53H158.633H159.723H160.047L160.238 406.515L160.076 406.015L159.546 405.808L159.237 405.587L159.752 405.057L159.311 404.733L157.602 404.321L156.586 404.454L155.939 404.733L155.762 404.895H156.101L156.69 404.733L157.013 404.851L156.763 405.205V405.411L156.984 405.587L157.19 405.808H155.35L155.026 405.956L154.775 406.221L153.303 407.399L153.126 407.605L153.052 407.826V408.356L152.979 408.577L152.714 409.018L152.508 409.534L152.375 410.079V410.638V411.625L152.89 415.718L153.612 418.575V419.311L154.068 420.681L154.186 421.432L154.407 422.183L155.394 423.272L155.659 424.009V424.715L155.512 425.525L155.276 426.262L155.026 426.762L154.864 427.425L155.055 428.294L155.57 429.678V430.547L155.246 431.592L154.481 433.344L154.216 434.375L154.304 435.229L154.584 435.833L155.482 437.85L156.071 438.66L156.734 439.323L158.206 440.295H158.457H158.839H159.031L159.178 440.383L159.473 440.648L159.914 440.884L160.371 441.06L160.739 441.149H161.652L162.064 441.252L162.418 441.576L162.8 441.841H163.227L163.669 441.649L164.096 441.546H164.597L164.847 441.634L165.024 441.782L165.274 442.12V442.282L164.788 442.503L164.435 442.857L162.962 444.874L162.845 445.124L162.697 445.875L162.815 446.096L163.345 446.214L164.818 446.111L165.554 446.479H166.173L166.791 446.361L167.203 446.214L167.601 446.008L167.895 445.905L171.297 446.14L171.739 446.023L171.915 445.625H172.018L172.534 445.11L172.652 444.874V444.712V444.138L172.548 444.005V443.843V443.77H172.637H172.725V443.622V443.328L172.548 442.857V442.621L172.386 442.327L172.018 442.15L171.194 442.047L169.338 441.752L168.367 441.649L167.586 441.149L168.19 440.825L170.811 440.456L173.034 439.19L174.507 438.115L176.082 437.394L177.187 437.055L177.938 437.246L178.6 437.924L178.998 438.631L179.558 440.103V440.545L179.675 440.928L179.955 441.252L180.544 441.796L180.956 442.68L181.089 443.696L180.956 446.155L181.295 449.866L181.06 450.867L180.603 451.883L180.309 452.87L180.544 453.768L179.646 455.005L178.468 455.564L174.757 456.418H173.609H173.241L172.431 456.831L171.739 456.963L171.194 456.536L170.767 456.05L170.163 455.093L169.824 454.696L169.456 454.534L169.147 454.269V453.709L169.294 453.12L169.397 452.826L169.736 451.353L169.957 451.162L170.148 451.059L170.03 450.838L169.633 450.484H169.545L169.279 450.366L169.191 450.278L169.103 450.101L168.44 449.733L168.205 449.454L168.116 448.997L167.925 448.673L167.512 448.393L166.747 448.055L165.849 447.804H163.949L162.638 448.025L162.182 448.187L161.77 448.393L161.298 448.806L160.665 448.938L160.459 449.071L160.327 449.203L159.531 450.308L159.208 450.632L158.854 450.779L157.956 450.867L157.058 451.117L156.631 451.441L156.41 451.809L156.248 452.237L155.997 452.722L155.438 453.356L155.32 453.724L155.438 454.328L155.703 454.666L156.439 454.858L157.028 455.314L158.191 455.682L160.4 456.787L161.019 457.214L161.726 457.876L162.079 458.141L162.653 458.289L163.066 458.509H163.272H163.448L163.92 458.377H164.391H164.567L164.715 458.465L164.994 458.789L165.318 458.981L165.48 459.128L165.834 459.349H166.29L167.763 458.745H167.998V458.848L168.219 459.496V459.805L167.822 460.218L165.672 461.69L163.537 462.574L159.914 463.648L156.675 465.946L156.101 466.682L155.747 467.035L155.379 467.3L155.07 467.433L154.878 467.978V468.434L154.996 468.861V469.391L154.878 469.833L154.584 470.113L154.245 470.334L152.773 471.806L152.095 473.102L151.786 473.514L150.814 474.398L150.593 474.545L149.901 475.811V476.076L149.651 476.445V476.68V478.153L149.739 478.536L150.122 479.36L150.019 479.684L149.916 480.214V480.7L150.078 480.906L150.314 481.098L150.461 481.525L150.564 482.011L150.696 482.364V482.717V483.689V484.013L150.947 484.102L151.285 483.984L151.492 484.293L151.065 484.617L151.227 485.191V485.604L151.58 485.839H152.228L151.786 486.207L151.403 486.649L151.3 487.061V487.444V487.798L151.536 487.945L151.654 488.401L151.359 488.549L150.785 488.666L150.417 488.843L150.122 489.138L149.945 489.992V490.61V491.008L150.181 491.376L150.314 491.552L150.461 491.641L150.608 491.818V492.068V492.289V492.554L150.844 492.701V492.892V493.099L151.065 493.393H151.374L151.506 493.511V493.953V494.218L151.285 494.321L151.182 494.542V494.733H150.961H150.741L150.638 494.895L150.549 495.16H150.387L150.269 495.293L150.387 495.396V495.528H150.225L150.343 495.602V495.69H150.152L150.004 495.558H149.916V495.705L150.019 495.852L149.945 495.985H149.828L149.739 496.088H149.607V496.264L149.695 496.353H149.901V496.485V496.618L149.813 496.78V496.927L149.96 497.074H150.063H150.196H150.269L150.52 497.148V497.295L150.417 497.428V497.546L150.534 497.634V497.752H150.343L150.107 497.678L150.004 497.766V497.884V498.061H149.901V497.899V497.634L149.813 497.428H149.607H149.401L149.327 497.56H149.224H149.106L148.959 497.649V497.781L149.047 497.987L149.194 498.09V498.267L149.047 498.341H148.841L148.709 498.444L148.62 498.621V498.841L148.812 499.003H148.974L149.077 499.151H149.239V499.298L149.047 499.445H148.959V499.21H148.723L148.62 499.313V499.46V499.651L148.517 499.533L148.385 499.445V499.21L148.267 499.121L148.178 499.018L148.016 499.106L147.796 499.18H147.251V499.327V499.548L147.339 499.799H147.074V499.931H146.706L145.926 500.314L145.278 501.035L144.924 500.903L144.114 501.551L143.79 501.934L143.599 502.302L143.452 502.493L143.334 502.685L143.157 503.259V503.966V504.363L143.069 504.731L142.98 504.952L142.745 505.026L142.568 505.158V505.689L142.715 505.836L142.598 505.909V506.13L142.833 506.705L143.142 506.808H143.363V506.925H143.496L143.584 507.043L143.673 507.22H143.967L144.232 507.073L144.527 507.176L144.88 507.456L145.337 507.367L145.705 507.75L146.014 507.868L146.264 508.295H146.043L145.793 508.589L145.572 508.722L145.484 508.884L145.322 509.016L145.086 508.913L144.939 509.12L144.748 509.296L144.851 509.591L145.071 509.826V510.18L144.762 510.106L144.556 509.959L144.365 510.165L144.453 510.327L144.718 510.695L143.982 511.21L143.599 511.078H143.231L143.128 511.534L142.333 510.842L142.023 510.533L141.361 510.96H141.052L140.786 511.284L140.551 511.152V510.68L140.315 510.342H140.05H139.77L139.446 510.46V510.96V511.299H139.064L138.563 511.549L138.062 511.372L137.679 510.872L137.105 510.386H136.605L135.412 509.988L134.352 510.194L133.777 510.106L133.394 510.695L132.702 511.284L132.305 511.755L131.966 511.505L131.701 511.417H131.068L130.759 511.505L130.656 511.711H130.287L130.081 511.991L128.933 512.33L128.417 512.624L127.917 513.154V513.743L128.815 514.008L129.198 514.185L128.859 514.686L127.092 513.979H126.783V514.686L127.593 514.877L127.976 515.363V515.952H127.313H125.34L123.234 516.335L121.762 516.497L120.657 517.027L120.083 517.557L119.214 518.249L118.213 519.442L117.639 520.517L116.947 521.4L116.343 522.313L115.739 523.359L115.327 524.051L114.487 524.89L114.06 525.641L113.81 525.936L113.368 526.245L113.133 526.76L112.927 527.423V528.233V528.645L113.28 528.984L113.192 529.234L113.074 529.366H112.765V529.735L112.662 530.059V530.235L112.809 530.441L112.735 530.692L112.5 530.898L112.146 530.81L111.587 531.251L111.322 531.502L111.071 531.693L110.747 532.665L110.188 533.077L110.011 533.578L109.628 534.064L109.407 534.52L109.672 535.168L109.231 535.404L108.862 536.066V536.243L108.273 538.128L108.141 538.849V539.645V540.528L109.01 544.666L109.628 546.757L110.041 547.729L111.763 551.13L112.809 552.146L113.324 552.647L114.222 552.941L114.782 553.133L114.973 553.339L115.224 553.854L115.916 554.384L116.667 554.546L117.064 554.797L117.329 555.577L117.933 556.137L118.566 557.153L118.817 557.771H119.008H119.258L119.42 557.845L119.597 558.228L119.744 558.316L119.936 558.478L121.541 560.333L122.601 561.997L123.293 562.675L124.869 563.499H125.561L126.15 563.911L126.886 563.632L127.254 563.838H127.637L128.005 563.72H128.388L128.682 563.838L129.271 564.191L129.551 564.265L130.553 564.177L130.862 564.265L131.053 564.427L132.025 564.604L133.91 565.031L135.986 564.839L137.017 564.427L137.488 564.339H137.915L139.005 565.075H139.697L140.109 565.531L140.301 566.223L140.728 566.591L141.052 566.989L141.228 567.151L142.156 567.946L141.979 568.462L142.288 569.934L142.539 570.788L142.745 571.642L142.495 573.439L142.333 576.133L141.861 577.709L141.331 579.446L140.33 582.391L139.977 582.598H139.446L138.961 582.48L138.033 582.333H136.958L136.413 582.833L135.809 583.628L135.338 583.952L134.852 584.144L133.733 584.733L132.585 585.572L132.172 585.69L130.773 585.616L130.494 585.69L131.362 585.999L132.084 585.925L133.483 585.116L133.925 584.998L134.926 584.733L136.649 583.746L137.135 583.187L138.003 583.01L138.813 583.098H139.314L139.638 583.466L139.947 584.851L140.197 586.058L140.669 586.573L141.331 586.735L141.861 586.927L141.375 587.295L141.258 587.575L141.626 587.796L141.847 587.913L141.405 588.046L140.934 588.237L140.492 588.311L140.315 587.81L139.358 587.486L138.857 587.722L138.519 588.296L138.416 588.797L138.813 589.062L138.681 589.739V589.872L138.563 590.019V590.343L138.21 590.593L138.298 590.858L138.769 591.256L139.402 591.447L139.491 591.874L139.137 592.39L138.637 592.508L138.489 592.154L138.151 592.007L137.827 592.213H137.37L136.531 592.316L136.016 592.478L135.677 592.67L135.25 593.023L135.103 593.671L134.882 594.068L134.749 594.348L133.998 594.716L133.321 594.996L132.85 595.909L132.187 596.159L131.907 596.498L131.539 597.102L131.215 598.044L131.465 598.913L131.245 599.001L130.641 598.869H130.022H129.522V599.001L129.198 599.266L129.301 599.649L129.213 600.238L128.624 600.606L127.828 600.886H127.269L125.914 601.078L125.148 601.726L124.118 602.285L123.691 602.8L123.043 603.301L122.513 604.037L122.159 604.288V604.877L122.056 605.422L121.629 605.583L121.158 605.819L119.862 606.01L118.831 606.909L117.565 607.719L117.153 608.234L116.991 609.603L116.284 610.399L116.137 611.076L116.034 611.694L115.135 612.445L113.795 613.034L112.323 614.05L109.275 616.981L108.936 617.879L108.656 618.895L108.553 619.499L108.2 619.823L107.891 620.147V620.853L108.244 621.001L108.347 621.472L108.082 621.663L107.95 621.825L107.611 621.973L107.508 622.193V622.473L107.361 622.753L107.228 623.445L106.742 623.96L106.197 624.152L106.374 624.432L106.595 624.682L106.713 624.962L106.565 625.3H106.315L106.065 625.565L105.741 625.772L105.962 625.978V626.346L105.446 626.876L104.416 627.008V627.17L104.739 627.332H105.122H106.359L106.86 626.817L107.125 625.83V625.094L107.405 624.711L107.508 623.901L107.832 623.489L107.994 623.357L108.259 623.445L108.524 623.843V624.387V625.462L107.758 626.935V627.421L107.405 629.291L106.978 631.308L106.86 632.089V633.311L106.727 633.973V635.122L106.83 635.534L106.477 638.229L105.903 640.114L105.756 640.732L105.476 641.336L105.358 641.704L105.255 641.837L104.636 643.088L103.517 644.281L101.942 645.591L100.234 646.828L98.5402 647.594L96.9352 647.889L95.6688 647.771L95.4185 647.697L95.2418 647.491L94.8 646.725L94.373 646.504L93.9754 645.812L93.7104 645.268L93.5484 644.531L93.2392 643.825L92.7974 643.235L92.179 642.705L91.7961 641.999L91.6783 641.38L91.3102 640.394L90.839 639.716L89.9997 638.038L89.7641 637.566L89.4401 637.228L89.0131 636.948L88.5713 636.756H88.2179L89.3518 637.537L89.5874 637.861L89.6904 638.288L90.1911 639.274L90.8243 640.408L91.1482 641.66V642.367L90.8537 642.646L90.25 643.074L89.823 643.221L89.3812 643.515H88.8953L88.1443 643.339L87.0399 643.456L85.4054 643.486L84.7134 644.001L84.1244 644.281H83.609L82.9022 644.723V644.958H83.2703H83.6973H84.6839L85.2876 644.428L85.7589 644.178L86.0092 644.104H86.2448L86.7454 644.193H87.3344L88.2621 644.399L89.1162 644.546L89.6904 644.252L90.3678 643.928H90.6917L90.9715 644.031L91.1188 644.178L91.266 644.752L91.6194 644.988L91.8698 645.194V645.459V645.871L91.9876 646.475L92.2968 647.02L92.7974 647.579L93.1803 647.844H93.6515L93.946 647.977L94.1669 648.33L94.6675 648.478L94.9178 648.89L94.6823 649.464L94.0785 649.7L93.6662 650.097L93.3128 650.348L90.1175 651.82L87.9087 652.939L87.3492 652.851L86.9074 653.293V653.676L86.3479 653.867H86.0828L85.803 653.764L85.4054 653.793L85.3171 654.427L84.9784 654.692L84.1391 655.884L83.609 656.591L83.3439 657.239L82.9905 657.961L82.3721 659.05L82.0776 659.786L81.7831 660.331V661.598L81.0174 663.748L80.6492 664.881L80.5167 665.529V666L80.7965 666.722L80.8848 668.518V669.417L80.7229 670.153L80.3253 670.506L79.4712 671.081L78.4847 672.185L76.9091 673.466L76.1434 674.32L75.7605 675.351L76.3054 674.791L77.3508 673.864L77.984 673.378L79.0737 672.7L79.6479 672.362H80.1633L80.3253 672.892V673.437L80.5462 674.644L80.929 676.868L81.2088 678.34V679.224L81.5328 679.813L81.6653 681.035L81.9745 682.301L83.7562 687.514L83.9035 688.132V688.736L83.7562 689.237L83.4028 689.575H83.0789L82.7108 689.399H82.2101L81.8273 689.664L81.2383 690.459L80.8996 690.621H80.3989L79.9572 690.503L78.0429 689.207L76.5704 689.134H76.2612L76.0403 689.207L75.5102 689.531L74.4942 689.664L74.0377 689.811L73.1984 690.562L72.3296 690.871L71.9173 691.121L75.8636 690.179L76.6882 690.047L77.5717 690.194L79.4565 690.989L80.2517 691.401L80.1044 691.902L79.1178 692.741V692.918H79.5154L79.8394 692.771L81.3119 691.946L82.0923 691.254L82.5635 690.797L83.0789 690.724L83.5648 690.974L84.2422 691.71L85.4054 695.024L86.2448 696.334L87.57 699.588L88.8069 702.239L91.752 706.907L93.9902 710.22L94.5792 711.133L94.7706 711.692L94.6381 712.105L94.2405 712.694L93.9313 713.091L93.7398 713.533L93.4306 713.666L93.2981 713.342L93.4012 712.944L93.1067 712.326ZM89.3812 789.927L89.6021 788.896V787.188L89.7788 787.379L90.1911 788.219L90.3678 788.513L90.7212 788.925L90.8684 789.176V789.676L90.5151 789.897L89.3812 789.927ZM89.6021 786.672V778.279V769.93V761.655V753.438V745.251V737.137V729.068V721.043L90.1911 721.485L90.3531 721.735L90.7212 722.707L90.8684 722.987L92.0465 724.739L93.2097 726.889L93.5337 727.301L94.7706 728.42L95.3301 729.201L95.7866 730.158L96.1548 731.277L96.8174 734.487V734.943L96.729 735.429L96.5376 735.12L96.3315 734.472L95.8308 732.322L95.389 732.057H95.0209L94.5792 732.293L94.0049 732.749L93.4895 733.265L92.5766 734.413L91.4722 735.444L90.8537 736.843L90.7065 737.903L90.9274 739.007L91.6931 739.906L92.7385 740.804H93.4748L94.2994 741.084L95.551 741.422L97.48 741.231L98.9525 742.144L99.3059 743.101L99.5857 743.705L99.4679 744.75V745L99.6888 745.575L99.8802 747.047L100.027 747.651L101.029 749.639L101.191 750.036L104.975 753.924L106.227 754.925L106.624 755.382V755.853L106.433 756.295H106.904L107.316 756.192L107.861 756.589L109.157 757.296L109.334 757.649L108.818 757.782L108.627 758.312L108.715 759.048L108.921 759.505L113.884 763.996L116.726 766.146L118.787 767.147L119.98 767.957L120.304 768.516L120.952 768.914L123.499 770.063L124.677 771.255L125.546 773.066L127.357 774.863L127.828 775.658L128.476 776.011L128.653 776.777L129.271 777.013L129.816 777.131L130.567 777.396L132.187 778.456L138.416 781.563L138.666 781.651H139.167L139.417 781.74L140.035 782.299L140.227 782.373L141.611 782.476L142.877 782.844L147.295 782.167L148.208 782.314H148.723L149.99 781.74L152.773 782.181L153.023 782.373L152.876 782.814L152.537 783.271L152.213 783.462L152.095 783.727L151.536 785.406V785.583L151.639 785.892L151.727 786.069L151.109 786.658L150.976 786.893V787.188L151.079 787.541V787.836L150.682 788.071L150.107 788.601L149.945 788.822L149.474 790.766L149.253 791.002L148.988 791.164H148.767L148.37 791.075V790.81V790.457L148.267 790.074L147.781 789.765H147.251L146.838 790.089L146.986 790.707L146.573 791.296L145.101 791.149L144.468 791.326L144.32 791.591L144.232 791.915L144.114 792.209L143.864 792.43L143.496 792.518L143.187 792.43L142.951 792.194L142.745 791.782V791.62V791.164V790.913V790.722L142.657 790.545H142.421H142.097H141.744L140.993 790.84L139.8 790.354L139.358 790.707L138.18 790.427L137.797 790.692L138.062 791.164L138.46 791.62L138.136 792.15L137.694 792.636L136.472 793.004L135.456 793.372L133.983 793.284H131.789L130.803 793.608V794.153V794.624L129.846 794.904L129.375 795.081H127.755L126.12 794.447L125.59 794.123L125.163 793.682L124.854 793.21L124.559 792.842L122.954 791.65L122.439 791.458L120.363 791.208L118.89 790.472L113.383 790.118L109.613 789.559L107.316 789.75L102.531 789.176L99.8802 788.66L99.0556 787.968L97.2739 787.792L96.302 787.173L95.7572 786.967L95.5216 787.247V787.968V788.233L95.2712 788.543L91.7961 788.852L91.3249 788.734L90.9863 788.425L90.4414 787.556L89.6904 786.717L89.6021 786.672ZM175.714 785.008L176.082 785.112L176.495 784.758L176.863 784.537L177.098 785.008L176.716 785.318L176.568 785.509L176.421 785.76L176.186 786.407L176.053 786.628L175.788 786.717H175.449L175.228 786.849L174.301 787.644H174.095L173.859 787.482L173.977 787.188L174.301 786.51V786.319L174.212 785.848H173.992L173.726 786.039L173.476 786.363L173.226 786.614L172.961 786.702H172.298H172.195L172.004 786.79L171.915 786.923V787.114V787.291V787.423L171.474 787.659L169.78 787.968L169.677 788.292L169.412 788.454H169.132L168.941 788.13V787.777L169.044 787.35L169.279 786.614H168.941H168.808L168.661 786.761L168.411 786.525H168.19L167.792 786.938L166.806 787.571L166.614 787.777L166.276 788.233L166.055 788.439L165.775 788.587L165.451 788.66H164.818V788.528V788.425V788.322L164.921 788.219V787.998H164.715L164.523 788.071L164.347 788.204L164.185 788.425L164.347 788.616L164.126 788.837L163.257 789.249L163.051 789.514L162.786 790.118L162.624 790.324L162.315 790.427H161.372L161.137 790.339L161.033 790.059L161.137 789.838L161.343 789.588L161.519 789.264L159.885 788.189L159.973 787.6L160.371 787.232L160.798 786.938L161.004 786.584L161.254 786.245L161.799 786.481L162.683 787.114H163.066L164.155 786.658L164.479 786.319L163.478 785.274L163.301 784.788L163.802 784.581L163.949 784.743L164.391 785.436L164.612 785.686L165.23 785.892L165.422 785.818L165.76 785.524H165.907H166.069H166.246L166.408 785.671V786.054V786.525V786.717H166.526H166.747V786.569V786.363V785.627V785.215V784.802L166.953 784.316H167.13L167.38 784.581L167.689 784.788L168.013 784.567L168.101 784.743H168.19H168.278H168.381L168.632 784.876L169.176 784.714H169.486L169.721 784.935L169.942 785.244L170.163 785.465H170.369L170.487 785.17V784.847V784.596L170.767 784.478L170.899 784.552L171.15 784.861L171.326 784.935L171.474 784.847L171.606 784.67L171.753 784.508H171.945L172.048 784.699L172.269 785.391L172.445 785.612H172.666L173.196 785.141L175.199 784.567L175.803 784.802L175.714 785.008ZM211.614 367.037V366.919L211.761 367.111L212.026 367.582L212.365 368.745V369.099L212.203 369.437H211.835L211.437 369.275L211.187 369.069L210.878 368.745L209.744 368.348L209.332 368.083L209.008 367.773L208.257 366.684L208.051 366.227V365.859H208.404L209.081 366.183L210.878 366.61L211.246 367.199V367.42H211.334L211.423 367.273L211.614 367.037ZM208.375 364.387L208.11 364.667H207.756L207.565 364.387L207.771 363.945L209.243 364.033L209.921 364.239L210.48 364.696L210.569 364.99L210.421 365.241L210.127 365.388H209.788L209.435 365.226L208.375 364.387ZM207.123 396.193L207.594 396.267H208.227L208.728 396.797L209.037 397.459L209.42 398.107L209.258 398.814L208.728 399.477L208.375 400.213L207.962 400.714H207.462L207.005 400.537L207.123 399.815L206.932 399.403L206.431 399.712H205.93L205.636 399.418L205.96 398.976L206.328 398.299L206.431 397.356L206.799 396.193H207.123ZM207.771 390.421H208.11L208.654 390.583L209.199 390.818L209.67 391.496V392.512V393.822L209.773 395.133L209.656 395.501L209.479 395L209.273 394.382L208.846 393.822L208.021 392.541L207.624 391.643L207.771 390.421Z" fill="#170EFF"/>
</svg>
