<svg width="81" height="82" viewBox="0 0 81 82" fill="none" xmlns="http://www.w3.org/2000/svg">
<path d="M35.0109 0.263123C21.9319 2.03594 10.4266 10.1764 4.42078 21.8806C2.24999 26.1137 0.965598 30.2382 0.260089 35.1587C-0.0836203 37.5104 -0.0836203 43.263 0.241999 45.7413C1.85201 57.6083 8.38248 68.0281 18.3501 74.5586C21.9861 76.9284 27.3589 79.1896 31.5738 80.1122C37.037 81.3062 43.6579 81.3423 49.0125 80.2027C60.9338 77.7063 71.2994 69.6924 76.7806 58.748C79.5846 53.1944 80.8328 48.093 80.9775 41.653C81.1222 36.1355 80.5795 32.2824 79.0238 27.5609C78.1555 24.974 76.057 20.5962 74.5737 18.335C68.0432 8.36743 57.6234 1.83695 45.7563 0.226944C43.3685 -0.0805817 37.435 -0.0805817 35.0109 0.263123ZM45.3041 6.23281C58.1661 7.96945 69.1829 17.1049 73.3255 29.4965C74.5013 33.006 74.8993 35.4119 75.0078 39.5003C75.1164 43.6248 74.8812 45.8498 73.9586 49.3412C70.829 61.2082 61.4946 70.6331 49.7181 73.8531C46.5885 74.7033 43.8569 75.0651 40.4922 75.0651C34.1245 75.0651 28.3538 73.4913 22.9087 70.2713C13.8818 64.9528 7.74933 55.7812 6.22978 45.3614C5.86798 42.865 5.86798 38.1254 6.22978 35.629C8.36439 21.0485 19.2907 9.48901 33.7446 6.57652C37.7063 5.76247 41.1072 5.67203 45.3041 6.23281Z" fill="#170EFF"/>
<path d="M39.8046 17.3403C38.466 17.6478 37.5796 18.8056 37.5796 20.2166C37.5796 20.687 37.67 21.2839 37.7966 21.5191C37.9233 21.7543 41.5232 25.4808 45.8286 29.7681L53.6254 37.6011H36.4399C19.6162 37.6011 19.2363 37.6011 18.6575 37.9629C17.7891 38.5056 17.355 39.3196 17.355 40.4955C17.355 41.6713 17.7891 42.4854 18.6575 43.0281C19.2363 43.3899 19.6162 43.3899 36.4399 43.3899H53.6254L45.72 51.2952C38.7735 58.2779 37.7966 59.309 37.6157 59.9784C37.055 62.1853 39.081 64.2114 41.288 63.6506C41.9573 63.4697 43.2236 62.2577 52.757 52.7424C62.2724 43.209 63.4844 41.9427 63.6653 41.2552C64.1175 39.5367 64.5155 40.007 52.9379 28.4114C47.1492 22.6045 42.2106 17.7564 41.9573 17.6297C41.3061 17.286 40.5101 17.1956 39.8046 17.3403Z" fill="#170EFF"/>
</svg>
