<svg width="327" height="215" viewBox="0 0 327 215" fill="none" xmlns="http://www.w3.org/2000/svg">
<path d="M205.855 211.042C207.067 205.413 208.497 199.818 209.452 194.141C212.84 173.943 216.125 153.727 219.309 133.493C219.925 129.615 220.017 125.62 220.177 121.673C220.235 120.156 220.589 119.525 222.218 119.53C240.312 119.584 258.411 119.472 276.519 119.647C284.417 119.724 288.824 124.185 288.412 132.02C288.058 138.749 286.841 145.445 285.828 152.13C285.312 155.551 284.574 158.934 283.617 162.259C281.983 167.917 278.929 172.324 272.631 173.589C272.146 173.681 271.54 174.908 271.627 175.528C273.431 187.795 274.745 200.172 279.263 211.891C279.491 212.482 279.632 213.108 279.874 213.917H257.669C256.19 205.19 254.736 196.556 253.252 187.911C252.568 183.945 251.768 179.999 251.124 176.028C250.852 174.365 250.115 173.764 248.394 173.807C243.793 173.924 239.182 173.914 234.581 173.832C232.986 173.802 232.332 174.316 232.07 175.931C230.063 188.255 227.086 200.449 227.076 213.04C227.027 213.347 226.944 213.648 226.829 213.937H181.128C182.404 204.89 180.256 196.299 178.273 187.47H168.547C161.522 187.47 154.487 187.509 147.467 187.446C146.06 187.446 145.275 187.892 144.65 189.142C140.819 196.779 136.383 204.133 134.298 212.55C134.152 212.913 133.919 213.234 133.621 213.488C133.323 213.741 132.968 213.918 132.587 214.005C127.739 214.121 122.919 214.068 117.64 214.068C119.337 211.692 121.033 209.738 122.265 207.542C128.117 197.234 133.993 186.937 139.593 176.513C147.864 161.08 155.864 145.483 164.101 130.041C165.129 128.102 165.308 126.56 164.305 124.67C163.558 123.268 163.073 121.722 162.331 119.894C163.345 119.807 164.091 119.69 164.843 119.69C170.981 119.666 177.124 119.69 183.267 119.622C184.842 119.622 185.511 120.044 185.831 121.683C188.478 135.375 191.213 149.057 193.947 162.734C196.561 175.771 199.135 188.818 201.889 201.826C202.558 205.001 203.877 208.041 204.895 211.139L205.855 211.042ZM234.833 159.65C235.948 159.708 236.666 159.776 237.379 159.776C245.459 159.796 253.54 159.809 261.62 159.815C264.888 159.815 265.586 159.306 266.149 156.087C267.278 149.57 268.335 143.045 269.373 136.514C269.785 133.915 269.373 133.377 266.847 133.377C258.285 133.377 249.727 133.479 241.151 133.479C239.628 133.479 238.959 134.119 238.76 135.539C238.489 137.45 238.154 139.355 237.844 141.265C236.86 147.282 235.866 153.313 234.833 159.631V159.65ZM153.003 173.415H175.679C173.536 163.18 171.466 153.275 169.376 143.355L168.862 143.273L153.003 173.415Z" fill="white"/>
<path d="M76.9865 120.005C76.7344 125.033 76.5017 130.065 76.2302 135.073C72.6182 134.477 69.3213 133.619 65.9856 133.459C60.4343 133.183 54.8587 133.357 49.2977 133.314C45.4191 133.28 41.5404 133.173 37.6618 133.144C36.1297 133.144 34.5976 133.212 33.0655 133.309C31.4268 133.415 30.3359 134.21 30.0547 135.907C29.2208 140.998 28.3821 146.089 27.5724 151.184C27.3203 152.794 27.9797 153.546 29.7154 153.536C39.1599 153.504 48.6076 153.515 58.0586 153.57C59.8274 153.569 61.5906 153.769 63.3142 154.166C68.2498 155.378 71.1927 158.84 71.1491 164.178C71.0403 168.85 70.611 173.509 69.8643 178.122C68.8946 184.74 67.6874 191.329 66.4462 197.903C66.0128 199.789 65.4058 201.631 64.633 203.406C61.724 210.799 55.9302 214.019 48.3329 214.072C33.0655 214.174 17.7885 214.048 2.52113 214.009C1.81327 214.009 1.10542 213.946 0 213.893C0.310293 208.647 0.610888 203.546 0.916332 198.325C10.8845 201.583 20.8672 199.881 30.719 200.264C35.0825 200.424 39.4459 200.143 43.8094 200.23C45.8894 200.274 47.0142 199.454 47.3487 197.462C48.3523 191.498 49.3656 185.535 50.3401 179.566C50.6601 177.593 49.3705 177.288 47.8287 177.288C39.2666 177.288 30.7044 177.259 22.1326 177.181C20.1191 177.159 18.1093 177.005 16.1158 176.721C10.5596 175.935 6.58402 171.703 6.95734 166.054C7.44217 158.835 8.44093 151.635 9.49786 144.47C10.1162 140.079 11.0545 135.74 12.305 131.486C14.5304 124.097 19.7521 119.908 27.4706 119.806C43.7028 119.588 59.9543 119.738 76.1768 119.748C76.4561 119.8 76.7281 119.887 76.9865 120.005Z" fill="white"/>
<path d="M286.584 0C288.383 14.8601 290.177 29.725 292.01 44.876H327C323.999 48.0275 321.468 50.694 318.928 53.3558C310.996 61.6367 303.035 69.8934 295.171 78.2422C294.47 79.1201 294.124 80.2292 294.201 81.35C295.171 93.6502 296.237 105.945 297.29 118.236C297.669 121.689 297.81 125.164 297.711 128.636C289.852 118.978 281.998 109.315 273.989 99.4633C269.824 102.828 265.882 106.004 261.945 109.194C259.308 111.327 256.69 113.48 254.047 115.608C253.57 116.038 253.02 116.38 252.423 116.617C249.577 117.523 248.486 116.733 248.195 113.708C247.943 111.143 247.754 108.564 247.352 106.018C247.017 103.895 247.691 102.421 249.248 100.927C258.944 91.6526 268.51 82.276 278.124 72.9381C278.841 72.356 279.4 71.6022 279.748 70.7467C278.943 70.7079 278.144 70.6352 277.324 70.6352C269.974 70.6352 262.624 70.6012 255.274 70.6643C253.776 70.6643 252.724 70.3007 251.788 69.0498C249.761 66.3347 247.376 63.8718 245.485 61.0597C244.433 59.4695 243.895 57.4235 243.546 55.5084C243.09 53.0843 243.11 50.5389 242.819 48.0614C242.474 45.1524 242.61 44.8954 245.65 44.8857C252.113 44.8857 258.576 44.8033 265.043 44.9342C267.254 44.9779 268.398 44.4058 269.271 42.1658C274.604 28.4257 280.151 14.768 285.629 1.08602C285.775 0.727248 285.944 0.373321 286.114 0.0193937L286.584 0Z" fill="white"/>
<path d="M213.122 116.825C213.651 120.301 214.242 123.297 214.494 126.323C214.586 127.385 214.184 128.868 213.447 129.561C208.458 134.235 203.319 138.773 198.228 143.321L197.583 142.977C197.869 142.065 198.112 141.139 198.437 140.247C202.975 127.923 207.484 115.584 212.109 103.293C212.793 101.48 212.899 100.084 211.343 98.7891C209.787 97.4946 209.762 96.205 211.236 94.7602C212.07 93.9408 212.691 92.9178 213.743 91.5651C211.367 91.5651 209.525 91.696 207.716 91.5118C206.795 91.4148 205.617 90.9882 205.089 90.2997C201.21 85.2672 197.423 80.1183 193.632 75.0178C193.506 74.7174 193.423 74.4008 193.385 74.0773H205.738C209.937 74.0773 214.136 74.0773 218.344 74.0773C222.223 74.0773 222.8 73.7524 224.225 70.0338C227.91 60.405 231.497 50.752 235.148 41.1087C236.307 38.0397 237.451 34.9707 239.148 31.9502C240.234 45.8649 241.32 59.7844 242.426 73.9415H273.188C272.747 74.554 272.275 75.1431 271.772 75.7063C263.385 83.8709 254.986 92.0241 246.576 100.166C245.257 101.436 244.568 102.634 244.845 104.573C245.33 107.914 245.393 111.312 245.815 114.667C246.076 116.699 244.961 116.728 243.536 116.733C234.411 116.752 225.287 116.784 216.162 116.83L213.122 116.825Z" fill="white"/>
<path d="M87.144 213.909C87.7405 212.304 88.2534 210.67 88.6809 209.012C90.5087 200.174 92.4238 191.35 93.9898 182.463C96.4964 168.247 98.7557 153.988 101.112 139.744C101.437 137.776 101.713 135.802 102.082 133.441C94.0334 133.049 86.3973 133.228 78.4509 136.108C80.08 130.605 81.5199 125.529 83.1683 120.52C83.338 120.002 84.7489 119.638 85.5925 119.633C96.0115 119.575 106.44 119.604 116.859 119.599C125.263 119.599 133.667 119.585 142.071 119.556H145.295C145.033 125.044 144.781 130.222 144.534 135.385C140.393 134.697 136.456 133.868 132.481 133.446C129.344 133.159 126.19 133.112 123.046 133.306C122.406 133.335 121.392 134.479 121.266 135.245C119.138 147.807 117.15 160.393 115.08 172.965C113.558 182.177 111.846 191.388 110.464 200.634C109.824 204.93 109.766 209.313 109.422 213.914L87.144 213.909Z" fill="white"/>
<path d="M18.2446 108.945C20.5767 94.4004 21.6045 80.0591 22.3948 65.4753C22.6081 65.4753 23.316 65.3977 24.019 65.3977C31.7763 65.3977 39.5336 65.3444 47.2909 65.3977C53.2107 65.4414 55.6688 68.171 55.1791 74.0762C54.9561 76.8058 55.2955 79.8554 54.1707 82.1778C52.0908 86.4685 54.0058 90.7205 53.3222 94.9192C52.9053 97.4597 52.8374 100.068 52.3526 102.58C51.4508 106.836 48.4739 108.936 44.188 108.916C36.5131 108.873 28.8382 108.916 21.1633 108.945H18.2446ZM37.3034 89.9836C35.6113 89.9836 33.9096 90.0514 32.2369 89.9836C30.8987 89.9108 30.2976 90.4975 30.22 91.7484C30.0018 94.4634 29.7836 97.1785 29.5461 99.8887C29.4297 101.232 30.0309 101.775 31.3593 101.755C33.5314 101.721 35.7228 101.789 37.8706 101.755C42.9371 101.726 42.9371 101.717 43.3638 96.7421C43.9504 89.9836 43.9504 89.9836 37.3034 89.9836ZM45.4389 72.5684H31.9508C31.6308 76.1513 31.3254 79.5597 30.9812 83.2347C35.3447 83.2347 39.33 83.2686 43.3347 83.1814C43.6223 83.1209 43.89 82.9887 44.1129 82.7972C44.3358 82.6056 44.5067 82.3609 44.6098 82.0857C44.9734 79.0021 45.1722 75.8895 45.4389 72.5732V72.5684Z" fill="white"/>
<path d="M184.426 64.6188C184.833 67.6151 185.255 70.6065 185.652 73.6028C186.423 79.3432 187.218 85.0836 187.921 90.8337C188.125 92.4773 188.891 92.8894 190.467 92.8603C195.548 92.7682 200.648 92.8264 205.724 92.8264H208.682C207.79 93.83 207.319 94.4263 206.781 94.9451C201.745 99.8386 196.701 104.724 191.65 109.602C189.957 111.24 187.485 112.603 189.967 115.904H164.353C164.353 115.638 164.266 115.23 164.426 115.017C166.438 112.331 164.911 110.498 163.17 108.414C159.34 103.847 155.748 99.0807 151.821 94.0966C152.717 93.9657 153.275 93.8251 153.871 93.8057C159.52 93.6312 165.168 93.4179 170.841 93.3209C172.387 93.3209 173.076 92.7342 173.614 91.3088C176.746 83.0279 179.989 74.7906 183.199 66.5436C183.456 65.8842 183.747 65.2297 184.018 64.5752L184.426 64.6188Z" fill="white"/>
<path d="M41.744 37.6613L42.6264 33.4045C47.4747 33.4045 52.5558 33.2687 57.6029 33.5305C58.5047 33.579 60.027 35.2517 60.027 36.2262C60.1385 39.014 59.6634 41.826 59.3628 44.6235C59.323 45.114 59.1017 45.5721 58.7422 45.9083C54.4709 48.9433 58.3544 52.0947 58.1701 55.1734L58.8489 55.3528C59.2755 54.6304 59.7604 53.9371 60.124 53.1807C62.7179 47.804 65.3408 42.4708 67.8231 37.0213C68.2692 36.0516 68.1237 34.7911 68.308 33.3851C68.1092 33.5257 68.2207 33.3851 68.3468 33.3851C73.8738 33.0651 73.8932 33.0602 75.3332 38.3982C76.7392 43.6102 78.087 48.8367 79.4833 54.0534C79.5629 54.3527 79.7058 54.6313 79.9024 54.8705C80.0989 55.1098 80.3446 55.304 80.6227 55.4401C81.4469 48.1676 82.2711 40.9339 83.1341 33.3172C84.6807 33.3172 86.4407 33.1669 88.1521 33.3948C88.7824 33.4772 89.5242 34.3644 89.8248 35.048C91.9629 39.8964 93.9944 44.8029 96.6561 49.6657L98.353 33.4578H101.926C101.364 38.1558 100.797 42.8199 100.249 47.4888C99.953 50.0536 99.7978 52.6377 99.3615 55.1783C99.2015 56.1091 98.3579 57.7091 97.907 57.6751C96.0355 57.5394 93.592 59.1296 92.409 56.2449C90.6312 51.9105 88.8261 47.5874 86.9934 43.2756C86.7248 42.5369 86.2314 41.9011 85.5825 41.4575C84.9959 46.7907 84.4044 52.0947 83.7935 57.6315H74.2569C74.0823 57.3503 73.9417 57.2243 73.9272 57.0837C73.292 50.9845 71.503 49.6609 65.4087 51.1687C64.5311 51.382 63.5227 52.7832 63.3433 53.7771C62.6597 57.5152 60.2598 58.1406 57.0793 57.7527C56.9985 57.7479 56.9176 57.7479 56.8368 57.7527C53.283 57.8061 53.2782 57.8109 52.4734 54.3977C52.0473 52.931 51.7105 51.4398 51.4649 49.9324C51.1982 47.61 49.8698 46.8682 47.8335 47.4016C47.4388 47.5346 47.0805 47.7576 46.7869 48.053C46.4932 48.3483 46.2722 48.7079 46.1414 49.1033C45.7293 51.799 45.5839 54.5383 45.3269 57.4715H39.8047C40.4511 50.8455 41.1073 44.2194 41.7731 37.5934L41.744 37.6613ZM54.4321 43.4793L55.0527 37.2443H47.4602C47.2372 39.3243 47.019 41.3363 46.7911 43.4793H54.4321ZM71.8036 46.8343C71.2121 44.6429 70.6788 42.6841 70.1503 40.7206H69.5685L66.6159 46.8343H71.8036Z" fill="white"/>
<path d="M150.313 91.1829C145.198 90.9938 140.306 90.8532 135.414 90.606C133.63 90.5138 132.772 90.989 132.747 92.9671C132.647 95.2256 132.424 97.477 132.078 99.7111C131.914 101.03 132.297 101.68 133.736 101.65C139.278 101.524 144.815 101.452 150.827 101.35C150.415 103.372 149.944 105.898 149.334 108.39C149.266 108.676 148.393 108.913 147.879 108.913C138.919 108.947 129.964 108.937 121.165 108.937C122.454 94.4458 123.725 80.1336 125.043 65.5547H152.931V72.8757H134.372C134.095 76.1531 133.809 79.5809 133.47 83.5953C136.578 83.5953 139.438 83.6874 142.294 83.5662C145.149 83.445 147.855 83.1056 150.861 82.8389C150.677 85.6752 150.487 88.5309 150.313 91.1829Z" fill="white"/>
<path d="M115.923 65.4482H122.711C122.299 68.0906 121.795 70.5681 121.547 73.0746C120.738 81.4235 120.03 89.7868 119.259 98.1405C119.155 99.7472 118.948 101.346 118.638 102.926C117.717 106.94 115.177 108.889 111.002 108.904C105.184 108.923 99.3664 108.923 93.5484 108.904C88.2153 108.904 85.602 106.194 86.019 100.88C86.7511 91.5516 87.6771 82.238 88.4431 72.9098C88.6371 70.5196 88.4722 68.0954 88.4722 65.5113H99.3421C98.2076 77.4139 97.0731 89.3214 95.895 101.714H103.095C105.679 101.714 108.263 101.655 110.852 101.743C112.374 101.796 112.966 101.258 113.092 99.6968C113.984 88.3808 114.954 77.06 115.923 65.4482Z" fill="white"/>
<path d="M54.5486 108.893C56.6382 94.2224 57.7485 79.9684 58.4515 65.501H68.8948C67.7215 77.4909 66.553 89.4032 65.3409 101.786C68.8657 101.786 72.0656 101.883 75.2558 101.762C78.446 101.64 81.6119 101.311 85.0639 101.054C84.6276 103.255 84.2252 105.606 83.6482 107.919C83.5066 108.177 83.3041 108.397 83.0582 108.559C82.8123 108.722 82.5305 108.821 82.2373 108.85C73.0304 108.923 63.838 108.893 54.5486 108.893Z" fill="white"/>
<path d="M180.566 38.1076C180.624 36.8438 180.786 35.587 181.051 34.3501C181.177 33.8992 182.084 33.3804 182.636 33.3804C192.89 33.3271 203.14 33.3417 213.598 33.3417V37.1379C210.689 37.1379 207.896 37.1961 205.089 37.1379C203.634 37.0943 203.077 37.6664 203.062 39.1063C203.062 40.4638 202.81 41.8214 202.655 43.3486H212.264C212.112 44.7029 211.951 46.1057 211.78 47.5569H202.17C201.937 49.5399 201.714 51.4356 201.462 53.5786H211.595C211.683 57.6124 211.508 57.8014 207.649 57.8063H195.528C196.26 51.6489 196.769 45.8746 197.695 40.1632C198.107 37.6324 196.789 37.3949 195.092 37.2979C193.487 37.2106 191.615 36.3282 191.383 39.4118C190.932 45.4285 190.04 51.4162 189.308 57.6124H183.907C184.697 50.9023 185.482 44.2261 186.331 36.8373L180.552 38.0639L180.566 38.1076Z" fill="white"/>
<path d="M180.571 38.0303C180.102 39.3675 179.723 40.7346 179.437 42.1222C179.097 44.43 178.772 46.6457 175.922 47.5766L178.603 57.7581C177.051 57.7581 175.451 57.9181 173.914 57.6757C173.308 57.5835 172.557 56.706 172.358 56.003C171.68 53.769 171.155 51.4915 170.787 49.1863C170.453 46.9609 168.901 47.4796 167.51 47.3584C165.847 47.2178 165.764 48.2408 165.658 49.4723C165.439 52.1146 165.11 54.7473 164.804 57.5787H159.302C160.194 49.5547 161.071 41.5792 161.983 33.371C166.933 33.371 171.994 33.2644 177.046 33.4728C177.953 33.5068 178.942 34.7334 179.645 35.611C180.159 36.2606 180.271 37.2351 180.561 38.0788C180.566 38.1078 180.571 38.0303 180.571 38.0303ZM174.617 37.1382C172.276 37.1382 170.123 37.0848 167.975 37.1867C167.727 37.2565 167.501 37.3871 167.316 37.5665C167.132 37.746 166.995 37.9687 166.918 38.2145C166.647 39.8581 166.54 41.5308 166.341 43.5089C168.581 43.5089 170.661 43.5913 172.722 43.4507C173.035 43.3778 173.326 43.2279 173.567 43.0146C173.808 42.8013 173.993 42.5313 174.103 42.2289C174.399 40.6726 174.443 39.0775 174.617 37.1382Z" fill="white"/>
<path d="M148.185 57.7637C146.73 57.7637 145.276 57.8122 143.821 57.7637C140.592 57.6425 139.39 56.4692 139.622 53.2354C139.923 49.061 140.325 44.8866 140.941 40.7461C142.037 33.4009 142.216 33.333 149.595 33.333C151.612 33.333 153.624 33.333 155.641 33.333C158.589 33.3669 160.073 34.7342 159.811 37.6674C159.326 42.9521 158.71 48.227 157.973 53.4778C157.566 56.3868 155.99 57.5989 153.004 57.7491C151.394 57.8267 149.78 57.7491 148.156 57.7491L148.185 57.7637ZM144.834 53.7493C147.229 53.7493 149.242 53.8705 151.225 53.6766C151.801 53.6232 152.655 52.7457 152.766 52.1348C153.251 49.604 153.503 47.0295 153.77 44.4648C154.022 42.1085 154.182 39.7425 154.4 37.1341C151.976 37.1341 149.969 37.0468 147.976 37.1923C147.653 37.2595 147.353 37.4079 147.104 37.6233C146.854 37.8388 146.664 38.1143 146.551 38.4237C145.92 43.3739 145.421 48.3483 144.834 53.7493Z" fill="white"/>
<path d="M101.267 53.7051C104.501 53.7051 107.463 53.5694 110.411 53.7536C112.607 53.8845 113.518 53.0797 113.465 50.9367C113.498 50.0502 113.582 49.1664 113.717 48.2896C111.046 48.2896 108.568 48.3429 106.096 48.2896C103.327 48.2168 102.217 47.2035 102.348 44.4109C102.51 41.7645 102.842 39.1313 103.342 36.5275C103.446 35.6665 103.86 34.8728 104.507 34.2954C105.154 33.7179 105.99 33.3962 106.857 33.3907C111.196 33.2501 115.54 33.347 120.064 33.347V37.1384H112.171C107.851 37.1384 107.851 37.1384 108.059 42.0158C110.416 42.0158 112.806 41.9867 115.191 42.0158C118.401 42.0595 119.424 43.0388 119.259 46.2678C119.123 48.9102 118.687 51.5379 118.381 54.1706C118.124 56.3717 116.718 57.5644 114.672 57.642C110.648 57.8262 106.61 57.8117 102.581 57.7535C102.135 57.7535 101.446 56.9681 101.325 56.4444C101.201 55.5366 101.181 54.6174 101.267 53.7051Z" fill="white"/>
<path d="M125.136 57.69H119.526C120.433 49.6757 121.339 41.6615 122.275 33.3757C127.177 33.3757 132.229 33.2739 137.276 33.4339C137.689 33.431 138.097 33.5159 138.475 33.6832C138.852 33.8504 139.19 34.096 139.465 34.4037C139.74 34.7115 139.946 35.0742 140.071 35.4679C140.195 35.8616 140.234 36.2772 140.185 36.6871C140.015 39.6494 139.744 42.6214 139.298 45.5547C138.919 48.0564 137.242 49.2733 134.706 49.2782C132.447 49.2782 130.183 49.38 127.919 49.2782C126.333 49.1958 125.722 49.8842 125.625 51.3339C125.494 53.3265 125.32 55.324 125.136 57.69ZM126.416 45.4335C128.782 45.4335 130.779 45.4625 132.767 45.4335C133.194 45.4335 133.95 45.1619 133.989 44.9486C134.347 42.5875 134.585 40.207 134.861 37.8313C132.864 37.6083 130.871 37.2834 128.874 37.2252C128.302 37.2252 127.274 37.8701 127.191 38.3501C126.799 40.5318 126.673 42.7523 126.411 45.4335H126.416Z" fill="white"/>
<path d="M41.7927 37.6213C40.2751 37.4516 38.7479 37.1365 37.2449 37.1995C36.6001 37.2383 35.5529 38.1158 35.4704 38.717C34.7432 44.1326 33.9772 49.5676 33.6766 55.0171C33.5408 57.4122 32.7069 57.9261 30.6609 57.7128C29.7979 57.6158 28.9204 57.6206 27.9216 57.5722C28.7216 50.7506 29.4973 44.1084 30.3167 37.0928L24.5908 37.4468C24.7314 33.4469 24.7993 33.3693 28.3289 33.3742C32.4402 33.3742 36.55 33.3742 40.6582 33.3742C40.9262 33.4069 41.1918 33.4571 41.4533 33.5245C41.5405 34.8481 41.6327 36.2541 41.7248 37.6601L41.7927 37.6213Z" fill="white"/>
</svg>
 